<?xml version="1.0" encoding="utf-8"?>
<!-- Generator: Adobe Illustrator 26.5.0, SVG Export Plug-In . SVG Version: 6.00 Build 0)  -->
<svg version="1.1" id="圖層_1" xmlns="http://www.w3.org/2000/svg" xmlns:xlink="http://www.w3.org/1999/xlink" x="0px" y="0px"
	 width="68.8px" height="68.8px" viewBox="0 0 68.8 68.8" style="enable-background:new 0 0 68.8 68.8;" xml:space="preserve">
<style type="text/css">
	.st0{fill:#801924;}
	.st1{fill:#352B2B;}
	.st2{fill:#70383B;}
	.st3{fill:none;stroke:#BD9C26;stroke-width:0.26 38;}
	.st4{fill:#FFFFFF;}
	.st5{fill:none;stroke:#BD9C26;stroke-width:0.1979;}
	.st6{fill:none;stroke:#C39C2A;stroke-width:0.1319;}
	.st7{fill:#FFFAD9;}
	.st8{fill:#BD9C26;}
	.st9{fill:#FAFAFA;}
	.st10{fill:#FCFAEA;}
	.st11{fill:#342B2B;}
</style>
<g>
	<g>
		<path class="st2" d="M68.7,34.4c0,18.9-15.4,34.3-34.3,34.2c-18.9,0-34.3-15.4-34.2-34.3c0-18.9,15.4-34.3,34.3-34.2
			C53.3,0.1,68.7,15.5,68.7,34.4L68.7,34.4z"/>
		<path class="st3" d="M68.7,34.4c0,18.9-15.4,34.3-34.3,34.2c-18.9,0-34.3-15.4-34.2-34.3c0-18.9,15.4-34.3,34.3-34.2
			C53.3,0.1,68.7,15.5,68.7,34.4L68.7,34.4z"/>
		<path class="st4" d="M65.2,34.4c0,17-13.8,30.8-30.8,30.8c-17,0-30.8-13.8-30.8-30.8c0-17,13.8-30.8,30.8-30.8
			C51.4,3.6,65.2,17.4,65.2,34.4L65.2,34.4z"/>
		<path class="st5" d="M65.2,34.4c0,17-13.8,30.8-30.8,30.8c-17,0-30.8-13.8-30.8-30.8c0-17,13.8-30.8,30.8-30.8
			C51.4,3.6,65.2,17.4,65.2,34.4L65.2,34.4z"/>
		<path class="st6" d="M57.7,34.4c0,12.9-10.5,23.3-23.3,23.3c-12.9,0-23.3-10.5-23.3-23.3c0-12.9,10.5-23.3,23.3-23.3
			C47.3,11.1,57.7,21.6,57.7,34.4L57.7,34.4z"/>
		<path class="st2" d="M56.7,34.4c0,12.3-9.9,22.3-22.2,22.3c-12.3,0-22.3-9.9-22.3-22.2c0-12.3,9.9-22.3,22.2-22.3
			C46.7,12.1,56.7,22.1,56.7,34.4L56.7,34.4z"/>
		<path class="st7" d="M55.2,27.6c-1.6-4.8-6.7-7.5-11.6-6c-0.1-5-4.2-9.1-9.3-9.1c-5,0-9.1,4-9.3,9c-4.8-1.4-9.9,1.2-11.4,6
			c-1.6,4.8,1,9.9,5.7,11.6c-2.9,4.1-1.9,9.8,2.2,12.8c4.1,3,9.8,2.1,12.8-1.9c3,4,8.7,4.9,12.8,1.9c4.1-3,5-8.7,2.2-12.8
			C54.1,37.6,56.7,32.4,55.2,27.6L55.2,27.6z"/>
		<path class="st8" d="M34.8,13.9c0.1,0.4,0,3.2-0.1,4.4c0,0.3,0,1.9,0,2.4c0,0.5,0,2.6,0,3.1c0.1-0.5,0.2-0.7,0.1-1.2
			c0.2,0.1,0.3,0.4,0.3,0.7c0.1-0.5,0.4-1.7,0-2.9c0.2,0.1,0.5,0.2,0.6,1.8c0.1-0.5,0.4-2.3-0.3-2.6c0,0,0.6,0.2,0.7,0.7
			c0.1-0.6,0.2-1,0.4-1.2c-0.1,0.6,0,1.3,0,1.6c0.2-0.8,0.5-2,1.1-2.5c-0.3,0.6-0.6,1.5-0.7,2.4c0,0,0.3-0.6,0.4-1.5
			c0,0,0.1,0.5,0.1,0.7c0.1-0.4,0.5-1.5,0.8-1.9c0.2-0.5,0.2-0.4,0.3-0.7c0,0.3-0.1,0.5-0.2,0.9c-0.1,0.3-0.3,1.3-0.4,1.6
			c0.3-0.7,1.1-2.1,1.7-2.5c-0.3,0.5-0.7,0.9-1.2,2.5c-0.5,0.5-2.2,2.1-3.2,4.4c-0.4,0.9-0.5,3.2-0.5,4.9c0,0,0.2-0.5,0.4-0.8
			c0-0.7-0.2-1.9-0.4-2.2c0.4,0.4,0.7,0.7,0.7,1.4c0-1.1-0.2-2.5-0.5-3c0.4,0.6,0.6,0.8,0.6,1.2c0.1-0.6,0-0.7,0-1
			c0.2,0.3,0.4,0.6,0.5,1.2c-0.1-1-0.1-1.8,0.4-2.6c-0.2,0.7-0.3,1.6-0.1,2.1c0.1,0.3,0.2,0.3,0.2-0.2c0-0.5-0.1-1.4,0.8-2.8
			c-0.2,0.8-0.4,1.1-0.3,2.2c0.3-0.8,1-2.6,1.6-3c-0.3,0.6-0.8,1.6-1,2.5c0.2-0.3,0.5-0.7,0.5-0.8c0.2-0.5,0.7-1.6,1.6-2.2
			c-0.3,0.4-1,1.5-1.2,2.1c0.5-0.7,1.5-1.7,2.9-2c-0.6,0.4-1.7,1.3-2.5,2.1c0.9-0.3,1.3-0.5,2-0.2c-0.5,0-1.6,0.3-2.1,0.6
			c0.5-0.1,1-0.2,1.4,0.1c-0.4,0-1.7,0.3-2.3,0.7c0.5-0.1,1.3-0.4,1.6-0.1c-0.4,0-1.5,0.3-2.1,0.8c0.6-0.2,1-0.3,1.4-0.4
			c-0.6,0.3-1.4,0.8-2,1.3c0.6-0.3,1.4-0.7,2-0.6c-0.5,0.2-1.7,0.7-2.1,1.1c0.7-0.4,1.3-0.6,2.2-0.6c-0.6,0.2-2.2,0.8-2.9,1.7
			c0.4-0.2,0.9-0.5,1.5-0.4c-0.4,0.2-2.7,0.8-2.6,4c0.3-0.4,1.1-1.4,1.6-1.7c0.1-0.7,0.2-1.7,0.6-2c-0.1,0.5-0.2,1.1-0.1,1.6
			c0,0.2,0.2,0.1,0.2-0.1c0-0.4,0.2-1.7,0.8-2.5c-0.2,0.5-0.4,1.2-0.4,2.1c0,0.3,0.2,0.2,0.3-0.1c0,0,0.2-1.8,0.8-2.3
			c-0.1,0.5-0.3,1.3-0.3,1.8c0,0.2,0.3,0,0.3-0.4c0.1-0.5,0.4-1.6,1.2-2.5c-0.3,0.7-0.6,1.2-0.7,2.2c0,0.2-0.2,0.5,0.2-0.1
			c0.2-0.5,0.5-2,2-3.1c-0.4,0.4-0.9,1.4-1.3,2.6c-0.2,0.5-0.1,0.4,0.4-0.2c0.3-0.7,1.5-2.7,2.2-3c0,0-1.2,1.6-1.5,2.6
			c-0.1,0.3,0,0.3,0.4-0.3c0.4-0.6,1-2.2,2.4-2.8c-0.4,0.4-1.4,1.7-1.6,2.3c-0.1,0.3,0.2,0.1,0.2,0.1c0.1-0.1,0.3-0.4,0.5-0.7
			c0.3-0.5,1.4-1.8,2.3-2.1c-0.4,0.3-1.3,1.1-1.9,2.3c0.3-0.1,0.6-0.3,0.8-0.6c0.3-0.3,1.2-1.5,2.3-1.7c0,0-1.5,1-1.9,1.8
			c-0.3,0.2-0.5,0.4,0,0.2c0.2-0.2,0.7-0.4,0.9-0.7c0.2-0.2,1.3-1.2,2.4-1.2c-0.5,0.2-1.6,0.9-2.3,1.5c0.2,0,0.3-0.1,0.6-0.3
			c0.3-0.2,1.8-1.2,3-0.9c-0.8,0.2-1.2,0.3-1.2,0.3c-0.3,0.1-0.7,0.4-1.2,0.7c0,0,2.8-0.9,3.4-0.1c-0.3-0.1-0.9-0.2-1.7,0.1
			c0.7,0.1,3.2,0.3,4,1.4c-0.5-0.2-1.8-0.9-3.4-0.9c0.7,0.4,1.3,1.2,1.4,1.6c0,0-1.4-1.3-2.4-1.6c0.5,0.2,1.6,0.8,1.9,2.1
			c-0.3-0.4-1.5-1.7-2.7-2c0.4,0.2,1.8,1.1,2.1,2.4c-0.4-0.5-1.8-2-2.8-2.1c0.7,0.5,1.7,1,2.1,2.1c-0.3-0.2-0.7-0.7-0.8-0.9
			c-1.1-0.8-2.6-1.2-2.4-1c0,0,2.6,1.2,2.6,2.5c-0.5-0.8-0.7-0.9-0.8-1c-0.8-0.3-1.2-1-2.7-1.2c0,0,1.6,0.7,2.6,2.1
			c0,0-2.2-1.9-3.6-1.7c0,0,2.6,0.6,2.7,2.6c-0.2-0.3-1.4-2.2-3.3-2.2c1.2,0.4,1.8,0.7,2.4,1.7c0,0.3,0,1.1-0.2-0.2
			c-0.3,0-0.5-0.3-0.9-0.5c-0.4-0.3-1.5-0.6-2.2-0.4c0.7,0.2,2.2,0.7,2.6,1.6c0.3,0.3,0.5,0.5,0.5,0.7c-0.3-0.3-0.6-0.6-0.7-0.8
			c-0.2-0.1-0.6-0.4-0.7-0.5c-0.3-0.1-0.6-0.3-2.5-0.5c1.1,0.1,2.4,0.3,3.2,2.2c-0.4-0.5-2.1-2.4-4.2-1.5c1.1,0,2.6,0.5,3.3,1.5
			c0,0-1.2-1-3.8-1.1c0.4,0.1,0.6,0.2,0.7,0.2c0.4,0,1.9,0.1,2.7,1.4c-0.7-0.5-1.8-1.1-3.6-1c-0.3,0-0.6,0-0.8,0.1
			c0.6,0,1.9,0,2.9,0.9c-0.6-0.3-2.9-0.6-3.5-0.5c0.7,0.1,2.3,0.5,2.7,0.9c-0.4-0.1-1-0.3-1.2-0.3c-0.4-0.1-2.7-0.2-3.5,0.8
			c-0.3,0.4-0.9,1-1.1,1.7c0.4-0.4,0.6-0.7,1.8-1.1c0.3-0.2,1.4-0.5,1.1-1.3c0.2,0.1,0.6,0.6-0.1,1.1c0.3-0.1,0.5-0.2,0.7-0.3
			c0.2-0.1,1-0.6,1.6-0.7c-0.4,0.2-1.1,0.8-1.3,1c0.2,0,0.4-0.1,0.5-0.1c0.2-0.1,1.1-0.6,2.2-0.7c-0.6,0.3-1.3,0.6-1.6,0.8
			c-0.1,0.1-0.3,0.3,0.2,0.2c0.3-0.1,1.3-1,2.5-1c-0.6,0.3-1.3,0.6-1.7,1c-0.2,0.2,0.1,0.3,0.3,0.1c0.2-0.2,0.5-0.4,0.6-0.4
			c0.2-0.2,0.6-0.6,2.4-0.6c-0.6,0.2-1.7,0.6-2.3,1c-0.2,0.1-0.3,0.4,0.4,0.2c0.4-0.3,1.5-1,3.2-0.8c-0.6,0.1-1.9,0.4-2.6,0.9
			c-0.2,0.2,0,0.2,0.3,0.1c0,0,2-1,3.4-0.4c-0.4,0-2.1,0.1-2.9,0.7c0.4,0,1,0,1.3-0.1c0.4-0.1,1.5-0.4,2.3-0.1c-0.5,0-2,0.2-2.3,0.4
			c-0.2,0.1,0,0.2,0.2,0.1c0.2,0,1.6-0.4,3,0.2c-0.6,0-2.1-0.1-2.6,0.1c-0.2,0.1-0.1,0.3,0.4,0.2c0.4-0.1,1.9-0.4,2.9,0.3
			c-0.8-0.2-2.1-0.1-2.5,0c0.7,0,1.6,0,2.3,0.5c-0.6-0.1-1.4-0.2-1.7-0.1c0.6,0.2,1.8,0.1,2.7,1.1c-0.6-0.3-1.5-0.6-2.2-0.6
			c-0.2,0,0,0.2,0.3,0.3c0.4,0,1.4,0.1,2.3,1.1c-0.6-0.3-1.5-0.6-1.9-0.6c0.8,0.4,1.4,0.6,1.5,0.9c0.2,0.2,0.6,0.5,0.7,0.7
			c-0.4-0.3-1.3-0.8-1.6-0.9c0.2,0.2,1.2,1,1.6,2.8c-0.3-0.4-1.3-1.9-1.5-2.2c0.2,0.6,0.3,1.2,0.4,1.3c-0.3-0.4-0.9-1.7-1.4-2.2
			c0.1,0.4,0.5,1.8,0.7,1.9c-0.5-0.6-1-1.6-1.3-2.2c-0.1-0.3-0.4-0.4-0.4-0.5c0.3,0.4,0.6,1.1,0.6,2.3c-0.1-0.3-0.2-0.8-0.2-0.8
			c-0.2-0.3-0.5-0.9-0.5-1c-0.2-0.3-0.6-0.8-0.6-0.8c0,0.3,0.1,0.5,0.1,0.5c0.1,0.2,0.2,0.4,0.3,0.6c0.1,0.3,0.3,0.7,0.4,0.8
			c-0.5-0.5-0.7-0.6-1.4-2.1c-0.1-0.5-0.2-0.4-0.3-0.4c0.1,0.4,0.5,2,0.9,2.6c-0.4-0.3-0.9-1.1-1.2-2.2c-0.1-0.4-0.4-0.7-0.6-0.7
			c0.2,0.4,0.6,1.2,0.6,1.9c0,0.3,0.1,0.9,0.1,0.9c-0.2-0.6-0.9-2.8-1.7-3.2c0.5,0.5,0.6,1.2,0.6,2.9c0,0-0.3-2.8-1.9-3.4
			c0.3,0.3,1.1,1.1,1,2.7c-0.1-0.5-0.7-2.1-1.5-2.6c0.3,0.5,0.7,1.1,0.6,2.1c-0.1-0.4-0.5-2-1.4-2.3c0.4,0.4,0.8,0.8,0.7,1.8
			c-0.2-0.5-0.9-1.9-1.5-1.9c0.4,0.4,0.8,0.7,0.8,1.5c-0.3-0.5-1-1.5-1.6-1.6c0.4,0.4,0.8,0.6,0.9,1.4c-0.2-0.3-0.7-1.2-2-1.5
			c0.4,0.2,1,0.6,1,1.2c-0.3-0.4-1.6-1.6-2.8-1.1c-0.4,0.2-1.1,0.7-1.4,1.4c0,0.2,0,0.4,0,0.4c0.4,0,1.2,0,2,0.5
			c0.4,0.2,0.5,0.2,0.7,0c0.2-0.1,1.4-0.6,2.3-0.4c-0.6,0.1-1.5,0.3-1.9,0.7c-0.2,0.2,0,0.3,0.4,0.1c0.5-0.2,1.3-0.7,3.2-0.7
			c-0.7,0.2-2.3,0.5-2.7,1c-0.3,0.3,0,0.2,0.2,0.1c0.2-0.1,0.7-0.3,0.9-0.5c-0.2,0.2-0.6,0.6-0.7,0.7c0.7-0.3,2-1.1,3.2-0.8
			c-0.5,0-1.6,0.3-2.6,1.1c-0.2,0.2-0.2,0.3,0.3,0.1c0.5-0.2,2-0.7,3.1,0c-0.6-0.1-1.8-0.2-2.9,0.4c-0.2,0.2,0.1,0.2,0.3,0.1
			c0.3-0.1,2.2-0.5,3.4,0.1c-0.6,0-2.4,0-2.8,0.3c-0.2,0.2,0,0.3,0.3,0.2c0.3-0.1,2-0.5,3.1,0.4c-0.6-0.2-1.8-0.5-2.6,0
			C41.8,37,42.1,37,42.2,37c0.4,0,2.1-0.2,3.4,1c-0.8-0.3-1.8-0.7-2.8-0.5c-0.2,0.1-0.1,0.2,0.2,0.3c0.5,0,2.5,0.1,3.4,1
			c-0.6-0.2-1.2-0.5-2.5-0.5c-0.5,0-0.3,0.1,0,0.2c0.3,0,1,0.1,1.1,0.2c-0.2,0-0.9,0-0.9,0c-0.1,0-0.1,0.2,0.2,0.2
			c0.3,0,1.9,0,2.9,0.9c-0.6-0.2-1.7-0.6-2.4-0.5c0.3,0.1,1.5,0.5,2.5,1.3c-0.6-0.3-2-0.8-2.2-0.7c0.2,0.2,0.3,0.3,0.6,0.4
			c0.3,0.1,1.8,0.6,2.3,1.7c-0.4-0.3-1.4-1.1-1.8-1.1c-0.3,0,0,0.1,0.2,0.2c0.2,0.1,1.1,0.6,1.4,1c0.2,0.3,0.4,0.5,0.6,0.6
			c-0.4-0.3-0.5-0.3-0.7-0.6c-0.2-0.1-0.8-0.5-1-0.5c0.3,0.4,0.5,0.5,0.9,0.7c0.2,0.2,0.9,0.7,1.1,1.5c-0.3-0.4-0.9-0.9-1.2-1.1
			c0,0.2,0.1,0.3,0.2,0.4c0.2,0.2,0.8,0.8,1,1.5c-0.2-0.3-0.3-0.5-0.4-0.6c-0.2-0.1-0.3-0.4-0.5-0.5c0.1,0.3,0.4,1.2-0.2,2.1
			c0.1-0.6,0-1.3-0.1-1.8c0,0.3-0.1,0.6-0.5,0.8c0.2-0.4,0.4-1,0.1-1.7c0,0.3-0.1,1.1-0.6,1.4c0.2-0.3,0.5-1.2,0-2.2
			c0,0.3-0.1,0.7-0.2,0.9c0,0.2-0.1,0.6-0.4,0.7c0.1-0.3,0.6-1.3-0.3-2.7c0.1,0.4,0.3,1.6-0.4,2.2c0.1-0.4,0.3-2.1-0.1-2.5
			c0.1,0.4,0.3,1.8-1.1,2.4c0.4-0.5,1.3-1.8,0.1-3.5c0,0,0,1.4-0.4,1.9c0-0.6,0.1-2.2-0.6-2.7c0.1,0.7,0.3,2.1-0.4,2.9
			c0.1-0.6,0.4-2.4-0.3-3.3c0.1,0.6,0,1.9-0.2,2.4c0-0.6,0.1-2.2-0.6-3c0.2,0.6,0.4,1.8-0.1,2.6c0-0.8-0.1-2.2-0.8-3.2
			c0.1,0.4,0.3,1.6-0.2,2.5c0-0.7-0.1-2.9-1.1-3.5c0.3,0.6,0.9,1.9,0.5,3.2c0-0.8-0.6-2.6-1.3-3.5c0.3,0.7,0.7,1.6,0,2.8
			c0.1-0.7-0.2-2.6-1-3.4c0.1,0.3,0.2,0.7,0.2,1.3c0.1,0.2,0.2,0.8,0.3,0.9c-0.2-0.3-0.7-1.5-1-2.4c-0.2-0.3-0.3-0.4-0.5-0.5
			c-0.2-0.1-0.7-0.4-1.5-0.3c0,1.3,0.2,3.2,0.4,4.1c0.2,0.9,0.6,3,0.1,4.8c-0.1,0.6,0,1.2,0.1,1.9c-0.1,0.7-0.1,1.1,0.1,2
			c-0.1,0.7-0.1,1.1,0.1,2c0,0,0,1.6,0.5,2.3c0,0,0,0.1-0.2,0c-0.1-0.1-0.3-0.4-0.5-0.8c-0.4,0.2-0.9-0.7-1.2-1
			c0.2,0,0.8-0.1,1.1-0.2c0.1,0,0-0.2,0-0.2c-0.8,0.2-1.7,0.2-2.3,0.1c0,1-0.3,1.7-0.5,2c-0.1,0.1-0.3,0.1-0.3,0
			c0.1-0.2,0.4-0.6,0.3-2.2c0.2-1,0.2-1.4,0-2.1c0.1-0.7,0.2-1.2,0.1-2c0.1-0.7,0.2-1.1,0.1-1.9c-0.5-1.7-0.3-3.9-0.1-4.9
			c0,0,0.5-2.1,0.4-3.4c-0.2,0.2-0.3,0.3-0.4,0.5c0.1,0.3,0.2,1.1-0.6,2.1c0.1-0.4,0.3-1,0.3-1.7c0-0.2-0.2-0.1-0.4,0.2
			c-0.1,0.3-0.2,1.7,0.1,2.6c-0.2-0.2-0.6-0.7-0.6-2.1c0-0.2-0.2,0-0.2,0.3c0,0.3-0.1,1.2,0.2,1.7c0.1,0.2,0.2,0.7,0.1,1.1
			c0-0.4-0.3-0.9-0.4-1.1C31,38,31,37.6,30.9,37.2c-0.1,0.2-0.2,1,0,1.4c0.1,0.3,0.3,1.2,0,1.7c-0.1-0.4-0.1-0.9-0.2-1.2
			c0,0-0.3-0.8-0.3-1.1c0,0.5,0.1,1.8,0.2,2.5c-0.1-0.2-0.5-0.8-0.6-1.7c0-0.3-0.1-0.7-0.2-0.3c0,0.4-0.1,1.9,0.3,3
			c-0.2-0.3-0.6-0.8-0.7-2.2c0-0.2-0.1-0.1-0.1,0.2c0,0.3,0,2.5,0.3,3c-0.4-1-0.6-1.6-0.7-2.6c0-0.3-0.1,0-0.1,0.3
			c0,0.3,0,1.5-0.1,1.9c0,0.2,0,0.6,0,0.7c-0.2-0.3-0.4-1-0.4-2.1c-0.1,0.3-0.4,1-0.1,2.8c-0.2-0.3-0.5-0.7-0.4-1.8
			c-0.1,0.6-0.3,1.9-0.2,2.5c-0.2-1-0.5-1.7,0.1-3c0.5-1.1,2.1-3.9,5.2-6.6c0-0.3,0-0.7-0.8-0.5c-0.5,0.1-1.4,0.6-1.9,1.1
			c0,0-0.4,1.3-0.7,2.1c0.1-0.7,0.2-1.5,0.1-1.9c-0.2,0.4-0.5,1.5-0.5,2c0,0.3-0.1,0.6-0.2,0.7c0-0.4,0-0.7-0.1-0.8
			c-0.1-0.3-0.1-0.7,0-1.3c-0.1,0.5-0.5,1.3-0.5,2.8c-0.2-0.3-0.5-1.1-0.2-2.4c-0.2,0.2-0.8,0.7-0.5,3.7c-0.2-0.3-0.7-0.9-0.5-2.8
			c-0.2,0.6-0.3,1.7-0.3,3.2c-0.3-0.7-0.5-1.3-0.2-3c-0.2,0.2-0.5,0.7-0.3,2.6c0,0.2,0.1,0.5,0.1,0.9c-0.1-0.3-0.5-1-0.5-2.9
			c-0.2,0.5-0.6,2.1-0.1,4.1c-0.3-0.5-0.8-1.7-0.6-3.2c-0.1,0-0.1,0.1-0.1,0.4c0,0.3-0.1,2.5-1.4,3.4c0.1-0.2,0.8-0.8,0.9-3.3
			c-0.2,0.2-1,1.1-0.2,3.7c0,0-0.6-0.5-0.7-2.7c-0.1,0.2-0.2,0.2-0.2,0.5c0,0.3,0.1,1.8-1,3c0.2-0.6,0.6-1,0.6-2.8
			c0,0-0.6,1.1-1,2.7c-0.1,0.7-0.4,1.5-0.6,1.6c0.1-0.5,0.3-2,0.3-2.5c-0.3,0.8-0.8,2.7-1.8,3.5c0.3-0.6,0.7-1,0.9-1.9
			c0.1-0.4,0.4-1.1,0.4-1.3c-0.4,0.4-1.2,1.5-1.4,1.8c0.2-0.6,0.9-1.9,1.7-2.8c-0.5,0.4-1.2,1-1.6,1.5c0.4-0.7,1.5-1.8,1.9-2.1
			c-0.3,0.1-0.8,0.3-1.6,1c0.3-0.4,1-1.1,1.6-1.4c0.3-0.2,0.5-0.4,0.6-0.5c-0.5,0.1-1.9,0.8-2.6,1.4c0.2-0.4,1.2-1.5,2.9-1.9
			c-0.7,0.1-1.4,0.2-2.5-0.7c0.6,0.3,2.1,0.6,3.1-0.1c0,0-1.6,0.3-2.5,1.1c0.3-0.5,1.8-1.6,3.1-1.8c-0.4,0-2,0.4-2.4,0.6
			c0.9-0.4,1.9-0.8,2.8-0.9c0.3,0,0.2-0.2,0.3-0.2c0,0-2,0-2.8,0.5c0.3-0.4,1.6-1.1,3.2-1.1c-0.4-0.1-1-0.1-2.3,0.3
			c0.5-0.3,1.8-1,3.3-0.9c-0.2-0.1-0.3-0.1-0.4-0.1c0.4-0.1,0.7-0.1,0.9-0.2c-0.4-0.1-1.5-0.1-2.3,0.2c0.3-0.3,1.1-0.7,2.2-0.8
			c-0.2-0.1-0.5-0.3-0.5-0.7c0,0,0.9,0.8,2.2,0.2c-0.4,0-1.3,0-1.4,0c0.4-0.2,1-0.4,1.8-0.5c0.3,0,0.4-0.1,0.4-0.2
			c-0.4,0-1.1,0.1-1.6,0.3c0.3-0.2,1.1-0.7,2.2-0.6c0.2,0,0.4-0.1,0.5-0.1c0,0,1.2-0.8,1.6-1c0.4-0.2,0.9-0.3,1.2-0.2
			c-0.2-0.5-0.9-1.6-2.6-1.5c0.5-0.5,2-0.2,2.6,0.6c0,0-0.1-0.7-0.2-0.9c-0.4-0.3-1-0.6-2-0.5c-0.6,0.1-1.2,1.1-1.5,2.2
			c0,0,0-1,0.5-1.9c-0.5,0.3-1.4,1.1-1.6,3.1c0,0-0.6-1.3,0.3-2.7c-0.5,0.4-1.1,0.7-1.6,3.3c-0.1-0.8,0.1-2.1,0.6-3
			c-0.5,0.3-1,0.8-1,3.2c0,0-0.6-1-0.1-2.6c-0.3,0.4-0.5,0.5-0.6,1.4c-0.1,0.4-0.4,1.4-0.6,1.9c0.1-0.7,0.2-1.8,0.2-2
			c0-0.4,0.2-0.7,0.2-0.8c-0.4,0.4-1.4,1.5-1.1,3.7c0,0-0.6-0.9-0.3-2.6c-0.3,0.7-0.7,2.2-0.7,2.2c0.1-0.8,0.2-2.2,0.5-2.8
			C23.6,34,23.1,35,22.9,37c-0.1-0.5-0.3-1.2,0.2-2.8c-0.4,0.6-0.9,1.2-1.1,3.9c-0.3-0.9-0.5-1.6,0.2-3.4c-0.3,0.4-0.6,1-0.8,1.6
			c-0.1,0.7-0.3,2.1-0.6,2.9c0,0-0.1-1.7,0.2-3.5c-0.4,1.1-0.7,1.7-0.9,3.7c-0.2-0.7-0.4-1.6,0.4-3.5c-0.4,0.7-0.8,1.7-1,2.7
			c-0.1-0.4-0.1-0.8-0.1-1c0,0-0.4,0.7-0.7,1.3c0,0-0.1-0.1-0.2-0.1c0.1-0.5,0.2-1.2,0.8-1.8c-0.6,0.3-1.3,0.9-1.8,1.3
			c0,0-0.1,0-0.1,0c0.3-0.4,1-1.3,2.2-2.1c-0.4,0.1-1.5,0.5-1.9,0.5c0.3-0.2,1.9-1,2.1-1.1c-0.4,0.1-1,0.1-2,0.6
			c0.3-0.3,1.3-0.9,2.7-1.2c0,0-1.5,0-3,0.7c0.6-0.4,1.4-0.9,3.6-1.3c0.2,0,0.3-0.1,0-0.1c-0.2,0-0.9,0-1.3,0.1
			c0.5-0.2,1.1-0.5,1.8-0.6c-0.3-0.1-1.7,0-2.8,0.1c0.4-0.2,1.7-0.7,3.6-0.6c0.2,0,0.5-0.1,0.1-0.1c-0.4,0-1.1,0-1.5-0.1
			c0.4-0.1,0.7-0.2,1.7-0.2c0.2,0,0.2-0.1-0.1-0.1c-0.3,0-2,0.1-2.8,0c0.4-0.1,1-0.3,3.3-0.4c-0.3-0.1-1.4-0.3-2.7-0.2
			c0.4-0.1,1.6-0.5,3.5-0.1c0.6,0.1,0.8-0.1,0.2-0.3c-0.2,0-2.3-0.4-2.8-0.4c0.7-0.1,2.2-0.2,3.6,0.2c0.2,0.1,0.5,0,0.1-0.1
			c-0.4-0.1-1.2-0.5-2.6-0.6c0,0,1.9-0.3,3.4,0.4c0.1,0.1,0.5,0,0.2-0.2c-0.4-0.2-1.3-0.5-1.7-1.2c0.3,0.2,1.6,0.9,2.9,1
			c-0.3-0.1-1.3-0.5-1.4-1.2c0.2,0.3,0.9,1,2.8,0.9c0.2,0,0.4-0.1,0-0.1c-0.3-0.1-0.6-0.3-1.7-0.3c0.4-0.1,1.6-0.1,2.6,0.2
			c0,0-0.2-0.2-0.6-0.4c0.4,0,0.7-0.1,1.5,0.4c0,0,1.1-0.2,1.8,0.2c-0.3-0.3-0.5-0.7-1.3-1.1c-0.3-0.1-1.6-0.2-2.3,0.9
			c0.1-0.6,0.5-1.1,1.1-1.3c-0.4,0.1,0,0,0,0s-1.4,0.2-2.4,1.3c0.2-0.5,0.9-1.3,1.9-1.6c-0.4,0-1.7,0.2-3,1.6c0.1-0.4,0.7-1.5,2-2
			c-0.3,0.1-1.2,0.3-1.8,1c-0.2,0.3-0.7,0.9-1.4,0.9c0.4-0.3,0.7-0.7,1-1.1c0.2-0.3,0.8-1,1.3-1.2c-0.4,0.1-1.5,0.3-2.6,2.1
			c0.1-0.6,0.4-1.5,1.7-2.3c0,0,0.2-0.2-0.1-0.1c-0.2,0.1-1.4,0.6-2.3,2.5c0-0.5,0.2-1.5,1.3-2.6c-0.4,0.2-1.4,0.7-2.3,2.5
			c0-0.5,0.2-1.7,1.8-2.7c-0.4,0.2-1.4,0.5-2.7,2.6c0.2-0.6,0.9-1.9,1.8-2.6c0,0,0.3-0.2-0.1-0.1c-0.2,0.1-1.4,0.6-2.5,2.8
			c0.1-0.5,0.6-2.4,1.7-3c-0.3,0.1-1.7,0.8-2.5,2.7c0-0.3,0.3-1.7,1.4-2.7c0.1-0.1,0.1-0.2-0.2,0c-0.3,0.2-1.6,0.8-2.2,2.4
			c0-0.3-0.1-0.6,0-0.8c0.1-0.2,0.6-1.2,1.4-1.8c0.1,0,0.1-0.1-0.2,0c0,0-1.7,0.8-2.5,3c0-0.3,0.4-1.6,0.9-2.3
			c0.1-0.1,0.2-0.3,0.3-0.4c0.1-0.2,0.3-0.3,0.6-0.4c0-0.1-0.1-0.2-0.4,0c0,0-1.3,0.8-1.7,2.3c0-0.5,0.1-1.3,0.7-2
			c-0.4,0.4-1.4,1.3-2,2.4c0.1-0.5,0.5-1.5,1.1-2.1c-0.6,0.3-1.8,0.9-2.7,2.7c0.1-0.4,0.4-1.7,1.6-2.8c-0.4,0.1-1.9,1-2.3,1.1
			c0.4-0.4,1.4-1.4,3.1-1.8c-0.4,0-1.2-0.1-2-0.1c0.3-0.1,0.9-0.3,3.1-0.2c0,0-0.3-0.3-2.1-0.4c0.3-0.1,1.7-0.4,3,0.2
			c0.1,0.1,0.6,0.2,0.3-0.1c-0.3-0.1-1.2-0.5-2.4-0.7c0.7,0,2-0.1,3.5,0.7c0.2,0.1,0.9,0.2,0.4,0c-0.5-0.3-1.6-0.9-2.9-1.2
			c0.5,0,2.1,0,3.8,1.2c0.2,0.1,0.2,0.1,0.1-0.1c-0.3-0.3-1-1-2.2-1.5c0.3,0,1.5,0.2,2.8,1.4c0.2,0.2,1.1,0.7,0.7,0.2
			c-0.4-0.4-1-1.2-2.1-2c0.5,0.2,1.7,0.7,2.8,2.1c0.2,0.2,0.4,0.4,0.4,0.1c-0.1-0.2-0.6-1.4-2.3-1.5c0.2-0.1,1.9-0.5,2.8,1.5
			c0.1,0.3,0.5,0.6,0.5,0.2c-0.1-0.3-0.6-1.9-1.5-2.6c0,0,1.3,0.4,2,2.4c0.1,0.4,0.5,0.8,0.9,0.9c-0.3-0.3-0.9-0.9-1.4-2.7
			c0.3,0.5,1.3,2.1,2.2,2.8c0.1,0.2,0.2,0.1,0.1,0c-0.1-0.3-0.6-0.9-1-1.4c-0.2-0.1-0.6-0.5-0.7-0.8c0.3,0.2,0.4,0.3,0.6,0.4
			c0.2,0.1,1.1,0.9,1.9,2.2c-0.1-0.5-0.4-1.2,0-2.2c0,0.6,0.4,2.4,1.2,3C30,28,29.9,27.5,30,26.5c0.1,0.6,0.3,1.8,1,2.3
			c0,0-0.4-0.6,0-1.8c0,0.4,0.1,1.6,0.7,2.2c0.2,0.2,1.1,0.8,1.2,1.1c-0.2-0.5-0.6-1.1-0.3-1.9c0,0,0.5,1.8,1.4,2.5c0-0.4,0-2-0.4-2
			c-0.3-0.1-1.1-0.3-1.5-0.7c0.3,0.1,1.2,0.1,1.4,0.2c-0.4-0.3-0.8-0.3-1.1-0.4c0,0-0.6-0.2-1-0.2c0.3-0.1,0.7-0.3,1.8,0
			c-0.4-0.2-0.9-0.6-2.4-0.7c0.3-0.1,0.9-0.4,2.1,0.1c-0.4-0.2-0.9-0.4-1.7-0.5c-0.3,0-1.1,0-1.5-0.3c0.7,0,2.4-0.1,3.1,0.2
			C32,26,31.3,25.7,29,25.9c0,0,1-0.7,2.7-0.3c0.2,0.1,0.2-0.1,0-0.2c-0.3-0.1-1.9-0.6-3.4,0c0.3-0.2,1.1-0.8,2.8-0.6
			c-0.5-0.1-1.5-0.3-3.3-0.2c0.6-0.2,1.4-0.7,3.2-0.3c-0.4-0.2-1.8-0.8-3.9-0.1c0,0,1.6-1.2,3-0.7c-0.4-0.2-1.7-0.4-3,0
			c0.4-0.2,1-0.6,2.3-0.6c-0.4-0.1-1.2-0.2-2.7,0.3c0.5-0.3,1.1-0.8,2.1-0.8c-0.5-0.1-1.8-0.4-3.6,0.2c0.2-0.2,1.1-0.8,2-0.8
			c-0.4,0-1.4-0.1-2.8,0.3c0.3-0.3,1-0.6,1.7-0.6c0,0-0.4,0-1,0c-0.1,0-0.1,0-0.2,0c-0.5,0-1.1,0.2-1.6,0.4c0.1-0.1,0.5-0.3,1.1-0.5
			c0.1,0,0.3,0.1,0.5,0.1c0.1,0,0.1,0,0.2,0c0-0.1,0-0.2,0-0.2c1-0.2,2.4,0,4,0.9c-0.3-0.5-1.1-1.4-2-2c0.4,0.2,1.7,0.7,2.8,2.3
			c0,0-0.2-1-1.3-2.1c0.4,0.3,1.4,1.1,2,2.6c0-0.4-0.4-1.6-1.1-2.4c0.3,0.2,1.3,0.9,1.7,3c0-0.5-0.3-1.9-0.6-2.3
			c0.5,0.7,0.9,1.1,1.1,2.6c0,0.2,0.2,0.6,0.2,0.1c0-0.5-0.1-1.9-0.5-2.5c0.4,0.5,1,1.5,1,3c0,0,0.1,1,0.2,0.2
			c0-0.3,0.1-1.5-0.3-2.3c0.2,0.3,0.8,1.1,0.8,3.1c0,0.2,0.1,0.4,0.1,0.5c0.1,0.1,0.2,0.4,0.2-0.1c0-0.4,0.1-1.3-0.1-1.6
			c0.2,0.2,0.7,0.8,0.5,2.3c0,0.2,0,0.6,0.1,0.4c0.1-0.1,0.2-0.4,0.2-0.6c-0.1-0.5-0.3-4.6-2.8-7c-0.3-0.7-0.6-1.7-1.9-2.3
			c0.4,0.1,1.4,0.5,2.1,1.6c-0.2-0.6-0.6-1.5-1-1.9c0.7,0.7,1.3,1.5,1.7,2.9c0.1,0.3,0.2,0.6,0.2,0.2c-0.1-0.4-0.4-1.7-0.6-2.2
			c0.4,0.7,0.8,1.4,1.2,3.3c0.1,0.2,0.1,0.3,0.1,0c0-0.4,0.1-1.1-0.2-1.9c0.3,0.4,0.7,0.6,0.6,2.8c0,0.3,0,0.6,0.1,0.2
			c0.1-0.4,0.2-1.1,0.1-1.8c0.2,0.5,0.3,1.3,0.2,2.5c-0.1,0.4,0.1,1,0.1,1.2c0,0,0.2-1.4,0-2.4c0.1,0.3,0.3,0.5,0.3,1
			C34.2,22.2,34.2,15.3,34.8,13.9L34.8,13.9z"/>
		<path class="st4" d="M33.4,43.7c0.7,0.2,1.2,0.1,1.8-0.1c0.1,0,0.1,0.1,0,0.1c-0.1,0-0.4,0.2-1,0.2c0,0.3,0.1,0.7,0,1.1
			c0.4,0,0.7,0,1.1-0.2c0.1-0.1,0.1,0.1,0.1,0.1c-0.1,0-0.9,0.4-2.1,0.1C33.4,44.6,33.5,44.3,33.4,43.7L33.4,43.7z"/>
		<path class="st9" d="M33.7,33c0.2,3.4-0.1,4.3-0.5,7.1c-0.1,1.3,0,2.7,0.5,2.8c0.5,0.1,0.5-0.2,0.4-0.6c-0.4-1.9,0-3,0-5.9
			c0.1-4,0.3-10.1,0.2-10.6c0-0.4,0-1.4,0-1.7c-0.1,0.3-0.2,0-0.3-0.4c0,0.5,0,0.7,0,1.4c-0.1-0.3-0.2-0.5-0.3-0.7
			c0.2,0.6,0.2,1.7,0.2,2c0,0.7-0.1,1.3-0.1,1.3c-0.1,0.1-0.3-0.3-0.5-0.6c-1.3-2.3-2.8-3.7-4-4.7c0,0,2.5,2.1,3.9,4.9
			c0.3,0.7,0.6,0.8,0.7,3.5c-0.1,0.9-0.3,0.9-0.8,0.2c-1.5-2.1-7.8-5.9-14.9-4.3c5.2-0.8,10.7,0.5,14.2,3.8
			C33.1,31.2,33.6,31.7,33.7,33L33.7,33z"/>
		<path class="st9" d="M32.6,31c-1.4-0.7-7.2-0.2-12.9,5.5c4.8-4.7,10.9-6.5,13-5.3C32.7,31.1,32.6,31,32.6,31L32.6,31z"/>
		<path class="st10" d="M33.2,33.6c-0.9-0.4-2.2,0.4-6.6,3.9c0,0-2.8,2.1-4,4.3c2-2.7,4.1-4.2,6.3-5.9c0.9-0.6,3.7-3,4.4-2
			C33.2,33.8,33.2,33.6,33.2,33.6L33.2,33.6z"/>
		<path class="st10" d="M34.7,29.5c0.7-1.6,2.1-5.1,4-6.4c0,0-2.1,1.5-4,7C34.6,29.9,34.7,29.5,34.7,29.5L34.7,29.5z"/>
		<path class="st9" d="M34.8,31.5c1.1-1.8,5.2-4.3,7.5-5.7c1.9-1,3.8-1.6,5.9-1.7c-1.6,0.2-3.4,0.5-5.5,1.5c-2.4,1.4-7.4,4.4-8,6.3
			L34.8,31.5L34.8,31.5z"/>
		<path class="st9" d="M35,32.4c0.4-0.5,1.2-1.3,3.5-1.2c1.8,0.1,6.6,0.8,9.7,3.7c-1.3-1-3-2.4-7.2-3.3c-1.5-0.3-4.9-1-6.1,1.1
			C35,32.6,35,32.4,35,32.4L35,32.4z"/>
		<path class="st9" d="M35,33.8c1.6-0.2,5.5,2.4,7.6,4.1c1,0.9,3.2,2.3,4.9,5.2c-2.1-2.9-3.6-4-5.4-5.4c-0.6-0.5-5.5-4.3-7.1-3.6
			C35,34,35,33.8,35,33.8L35,33.8z"/>
		<path class="st9" d="M33.4,45.5c0.7,0.1,1.3,0.1,1.9-0.1c0.1-0.1,0.1,0.1,0.1,0.1c-0.2,0.1-0.5,0.2-1.1,0.2c0,0.5,0,0.7,0,1.2
			c0.4,0,0.7-0.1,1.1-0.2c0.1-0.1,0.1,0.1,0.1,0.1c-0.1,0.1-1,0.5-2.2,0.1C33.4,46.6,33.5,46.1,33.4,45.5L33.4,45.5z"/>
		<path class="st9" d="M33.3,47.4c0.1,0.5,0.1,1,0,1.7c0,0,1.1,0.3,2.2-0.1c0.1-0.1,0-0.2-0.1-0.2c-0.2,0.1-0.5,0.2-1.1,0.2
			c0-0.5,0-0.8,0-1.3c0.4,0,0.9-0.1,1.2-0.2c0.1-0.1,0.1-0.2,0-0.2C34.9,47.4,34.3,47.6,33.3,47.4L33.3,47.4z"/>
		<path class="st11" d="M11.5,25.6c0-0.1,0-0.1-0.1-0.2L11,25.3l-0.9,2.2l-0.5-0.2l0.9-2.2L10.2,25l0.2-0.2l-0.2-0.5L9.5,26
			l-0.4-0.2l1-2.3c0.1-0.1,0.2-0.1,0.3,0l0.1,0c0,0,0,0,0.1,0.1l0.2,1l0.8-2l0.5,0.2l-0.8,2l0.5,0.2c0.1,0.1,0.2,0.2,0.3,0.4
			l-0.3,0.8l-0.2,0c-0.1,0-0.2,0-0.2,0c0,0,0,0,0-0.1L11.5,25.6L11.5,25.6z M9.3,23.9l-0.4,0.2L9,24.6L9.3,23.9L9.3,23.9z M7.5,23.2
			L8,22.9l0.2,0.3l-0.6,0.3l0.2,0.7l-0.3,0.2l-0.2-0.6L7,24l-0.1,0.1l-0.2-0.3l0.5-0.4L7,23l0.4-0.2L7.5,23.2L7.5,23.2z M9.3,23.8
			l0.4-1.1l-0.3-0.1l-0.3,0.8l-0.4-0.2L9,22.4l-0.3-0.1L8.4,23L8,22.9l0.3-0.7L8,22l-0.3,0.8l-0.4-0.2l0.5-1.3l2.1,0.9l0.2-0.4
			l1.1,0.5L11,22.8l-0.7-0.3l-1.6,3.9l0.7,0.3l-0.2,0.6l-1.1-0.5l0.2-0.5l-2.1-0.8l0.5-1.3l0.4,0.2l-0.3,0.8L7,25.3l0.3-0.8l0.4,0.2
			l-0.3,0.8l0.3,0.1l0.3-0.8l0.4,0.2l-0.3,0.8l0.3,0.1l0.4-1H8.7l-0.1-0.5l-0.4,0.3L8,24.3l0.4-0.3l-0.2-0.5l0.3-0.1l0.1,0.4
			l0.4-0.3L9.3,23.8L9.3,23.8z"/>
		<path class="st11" d="M16.6,12.9l1.8-1.5l0.3,0.4L17,13.2c0.3,0.3,0.8,0.5,1.5,0.8c0.7,0.2,1.4,0.2,2.1,0c0,0,0,0,0,0c0,0,0,0,0,0
			c0,0,0,0,0,0c0,0.1,0,0.2,0,0.2c0,0.1,0,0.2,0,0.3l-0.1,0c-0.3,0-0.6,0.1-0.8,0.1c-0.3,0-0.6,0-0.9-0.1c-0.5-0.1-1-0.4-1.5-0.6
			c0.2,0.6,0.3,1.3,0.2,1.9c-0.1,0.6-0.2,1.1-0.4,1.7l0,0c0,0,0,0-0.1,0c-0.1,0-0.3-0.1-0.5-0.1l0,0l0,0c0.1-0.3,0.2-0.7,0.3-1
			c0.1-0.3,0.1-0.6,0.1-0.9c0-0.7-0.2-1.3-0.5-1.9l-1.8,1.5l-0.3-0.4l1.8-1.5L15.1,12l0.5-0.3c0.1,0,0.2,0,0.2,0c0,0,0,0.1,0,0.2
			L16.6,12.9L16.6,12.9z"/>
		<path class="st11" d="M29.1,7.8l0,0.1l0.3-0.1l0-0.1L29.1,7.8L29.1,7.8z M28.6,7.5l1.1-0.2l0.2,0.9l-1.1,0.3L28.6,7.5L28.6,7.5z
			 M28.5,7.1l1-0.2l0.1,0.3l-1,0.2L28.5,7.1L28.5,7.1z M28.4,6.7l1-0.2l0.1,0.3l-1,0.2L28.4,6.7L28.4,6.7z M28.1,5.7l1.1-0.3
			l0.1,0.4L28.2,6L28.1,5.7L28.1,5.7z M28.2,6.6l-0.1-0.4l1.3-0.3l0.1,0.2l0.1-0.3l0.1,0.1l0.1-0.4L30,5.2l0.4,0.1
			c0.1,0,0.1,0,0.1,0.1c0,0,0,0.1-0.1,0.1l-0.2,0.6l0.1,0.1l0.3-0.5l0.4,0.2l0,0l0,0c0,0,0,0.1-0.2,0.1c-0.1,0.2-0.2,0.5-0.3,0.7
			l0.2,0l-0.1-0.2l0.3-0.2l0.4,0.7l-0.4,0.2L30.9,7l0-0.1L30.7,7l0.1,0.3L31,7.1l0.4,0.6l-0.4,0.2L31,7.7l-0.2-0.3L30.9,8l-0.4,0.1
			l-0.1-0.5c0,0.1,0,0.2,0,0.3c0,0.1,0,0.2-0.1,0.3l-0.4-0.1c0-0.1,0-0.2,0.1-0.4c0-0.1,0-0.2,0-0.3l0.4,0.1l-0.1-0.3L30,7.2
			c0,0.1-0.1,0.1-0.1,0.1c0,0-0.1,0-0.1-0.1l-0.2-0.3L30,6.8l0.1-0.2l-0.3-0.1l-0.3-0.1L28.2,6.6L28.2,6.6z M28.3,10.6h-0.5l0.1-1.3
			l2.8-0.6l0-0.1l-2.9,0.6l-0.1-0.5L31,8l0.2,1l-2.9,0.6l0,0.2l2.8-0.6c0.2-0.1,0.4,0,0.4,0.1c0,0,0,0.1,0,0.2l-0.1,0.3l-0.1,0.3
			c-0.1,0.3-0.4,0.4-0.7,0.5l-0.7,0.2c-0.1,0-0.1,0-0.1-0.1l-0.2-0.3l0,0c0,0,0,0,0,0c0,0,0,0,0,0l0,0l0.7-0.2l0,0
			c0.2,0,0.3-0.1,0.4-0.3l0-0.1l0.1-0.1l-2.6,0.6L28.3,10.6L28.3,10.6z M27.6,8L27.6,8c0,0.1,0,0.1,0,0.2l-0.1,0.3c0,0,0,0.1,0,0.2
			c0,0.1,0,0.1,0,0.2L27,8.8L27.2,8L27.6,8L27.6,8z M27.7,5.9c0.1,0,0.1,0.1,0.1,0.1c0,0,0,0.1-0.1,0.1l0,0l-0.3,0.5l0.1,0.1
			l0.1-0.2l0.1-0.2l0.4,0.2c0,0,0,0,0,0.1c0,0,0,0.1-0.1,0.1l-0.2,0.3l-0.1,0.3l0.2-0.1l0,0l0-0.1l0.3-0.2l0.2,0.3l0.2,0.3l-0.3,0.2
			l-0.1-0.2l-0.2,0.1L28,7.9l0.3-0.2c0.1,0.2,0.3,0.4,0.4,0.6l-0.3,0.2L28,8l0.1,0.6l-0.4,0.1l-0.2-1l-0.4,0.1
			c0,0.1-0.1,0.1-0.1,0.1C27,8,27,8,27,7.9l-0.2-0.3l0.4-0.2l0.1-0.2l0.1-0.2c-0.2-0.1-0.4-0.2-0.6-0.3l0.2-0.4l0.1,0.1l0.3-0.6
			L27.7,5.9L27.7,5.9z M27.1,9.1c0,0.2,0,0.3,0,0.5c0,0.2,0,0.3,0,0.5c0,0.4,0,0.7-0.1,1l0,0.1c0,0.1,0,0.2,0,0.2c0,0-0.1,0-0.2-0.1
			l-0.3-0.2c0.1-0.3,0.1-0.7,0.2-1.1c0-0.1,0-0.3,0.1-0.6c0-0.3,0-0.5,0-0.6L27.1,9.1L27.1,9.1z M25.9,7.5c0.1,0,0.2,0.1,0.3,0.1
			c0.1,0,0.2,0.1,0.3,0.1c0.1,0.1,0.3,0.1,0.4,0.2l-0.2,0.5c-0.3-0.1-0.6-0.3-0.9-0.4L25.9,7.5L25.9,7.5z M25.8,6.1
			c0.4,0.2,0.7,0.3,0.9,0.4L26.5,7c-0.2-0.2-0.5-0.3-0.9-0.4L25.8,6.1L25.8,6.1z"/>
		<path class="st11" d="M41,9.1l-0.2,0.3l1.6,0.4l-0.2-0.4L41,9.1L41,9.1z M43.1,8.1l-2.5-0.7l0,0.1l2.5,0.7L43.1,8.1L43.1,8.1z
			 M43.7,7.9l-0.2,0.8l-3.5-1L40.2,7L43.7,7.9L43.7,7.9z M44.7,6.9l-0.1,0.4l-2.2-0.6l-0.1,0.2l1.9,0.5l-0.1,0.4l-4.4-1.2L40,6.3
			l1.9,0.5l0.1-0.2l-2.2-0.6l0.1-0.4L42,6.2l0.1-0.3l0.6,0.2c0.1,0,0.1,0.1,0.1,0.1c0,0-0.1,0.1-0.1,0.1l0,0.1L44.7,6.9L44.7,6.9z
			 M39.6,8.3L39.4,9l-0.5-0.1l0.3-1.1l5,1.4l-0.3,1L43.4,10l0.2-0.6L39.6,8.3L39.6,8.3z M43.4,9.5l-0.1,0.3l-0.6-0.2l0.4,0.9l-0.4,0
			l-0.2-0.4l-1-0.2l-0.1,0.4l1.7,0.5L43,11.1l-1.7-0.5l-0.1,0.3l2.2,0.6l-0.1,0.4l-4.9-1.4l0.1-0.4l2.2,0.6l0.1-0.3l-1.7-0.5
			l0.1-0.4l1.7,0.5L41,9.9l-1.3-0.3c0,0.1-0.1,0.1-0.1,0.1c0,0-0.1-0.1-0.1-0.2l0-0.4l0.8,0.2l0.3-0.3l-0.9-0.2l0.1-0.3L43.4,9.5
			L43.4,9.5z"/>
		<path class="st11" d="M55.5,15.7L52,12.4l0.4-0.4l1.5,1.4l0.7-0.7l0.4,0.5c0,0.1,0,0.1,0,0.1c0,0-0.1,0-0.2,0l-0.5,0.5l1.6,1.5
			L55.5,15.7L55.5,15.7z M51.4,15.8l-0.5-0.3c0.5-0.7,0.9-1.4,1.1-2.1l0.6,0.2C52.2,14.4,51.8,15.1,51.4,15.8L51.4,15.8L51.4,15.8z
			 M49.2,15.1l0.4-0.4l2,1.9c0.5-0.2,0.9-0.5,1.3-0.7c0.4-0.3,0.9-0.6,1.3-0.9l0.3,0.5c0.1,0.1,0.1,0.2,0,0.2c0,0-0.1,0-0.2,0
			c-0.8,0.6-1.6,1-2.3,1.4l1.4,1.3l-0.4,0.4L49.2,15.1L49.2,15.1z"/>
		<path class="st11" d="M58.8,23.1l0.2,0.6l0.5-0.2l-0.2-0.6L58.8,23.1L58.8,23.1z M58.2,22.9l1.2-0.5l0.6,1.4l-1.2,0.5L58.2,22.9
			L58.2,22.9z M61.1,25.3l-0.4-1c-0.2,0.1-0.5,0.2-0.8,0.4c-0.2,0.1-0.4,0.3-0.6,0.4c0.4,0,0.8,0,1.3-0.1l0,0.4c0,0.1,0,0.1-0.1,0.2
			c0,0-0.1,0-0.1-0.1c-0.3,0-0.5,0-0.8,0c-0.2,0-0.5,0-0.8,0c-0.1,0-0.1,0.1-0.2,0.3l0,0c0,0.1,0.2,0.1,0.6,0.1l0,0L59,26.3l0,0l0,0
			c-0.1,0-0.2,0-0.4,0c-0.1,0-0.2,0-0.3,0c-0.1,0-0.2-0.1-0.2-0.2c0,0,0-0.1,0-0.2c0-0.2,0.1-0.4,0.3-0.6c-0.3-0.1-0.6-0.2-0.8-0.4
			c0,0,0,0,0,0c0,0,0,0,0,0c0.1-0.1,0.1-0.3,0.2-0.4l0.1,0c0.1,0.1,0.2,0.2,0.4,0.2c0.1,0.1,0.3,0.1,0.5,0.2
			c0.3-0.2,0.6-0.5,0.9-0.6c0.3-0.2,0.7-0.4,1-0.5l-0.7-1.8l0.4-0.2l0.7,1.7l0.5-0.2l0.1,0.4c0,0.1,0,0.2,0,0.2c0,0-0.1,0-0.2,0
			L61,24.1l0.2,0.5c0,0,0.1-0.1,0.1-0.2c0-0.1,0.1-0.1,0.1-0.2l0.3,0.2c0,0.1-0.1,0.3-0.2,0.3c-0.1,0.1-0.1,0.2-0.2,0.2l0.1,0.2
			L61.1,25.3L61.1,25.3z M58.3,24.6l-0.8-1.2c-0.1,0-0.2-0.1-0.2-0.1c0,0,0-0.1,0.1-0.2l0.4-0.2l0.9,1.5L58.3,24.6L58.3,24.6z
			 M56.7,23.2l1.5,3.6l4-1.6l-1.5-3.6L56.7,23.2L56.7,23.2z M56.1,23.4l-0.2-0.5l5-2.1l1.9,4.6l-5,2.1L57.6,27l0.2-0.1l-1.5-3.6
			L56.1,23.4L56.1,23.4z"/>
		<path class="st11" d="M62,42.5l0.5,0.1c0.2,0.1,0.4,0.3,0.3,0.5l-0.1,0.5c0,0,0,0,0,0c0,0,0,0,0,0l-0.4,0c0,0,0,0,0-0.1l0.1-0.4
			l0,0c0,0,0-0.1,0-0.1c0,0-0.1,0-0.1-0.1L62,43l-0.1,0.9c0.1,0.1,0.1,0.2,0.1,0.2c0,0,0,0-0.1,0.1l-0.5,0l0.2-1.2l-0.5-0.1l0,0
			c0,0,0-0.1,0-0.1l-0.2-0.4l-0.4,1.6L60,43.6l0.6-2.1c0.1-0.1,0.2-0.2,0.3-0.1c0.1,0,0.1,0,0.1,0.1l0.4,0.9l0.1,0l0.1-1.1l0.4,0.2
			L62,42.5L62,42.5z M59.9,39.2l-0.2,0.7l0.4,0.3l0-0.2c0.9,0.1,1.5,0.2,1.9,0.2c-0.4-0.2-0.8-0.4-1.1-0.6
			C60.5,39.4,60.2,39.3,59.9,39.2L59.9,39.2z M59.2,42.6l0.3,0.1l0.3-1.1l-0.3-0.1L59.2,42.6L59.2,42.6z M58.6,43l0.6-2.1l1.2,0.4
			l-0.6,2.1L58.6,43L58.6,43z M60,38.7c1.1,0.4,1.9,0.8,2.5,1.2c0.2-0.1,0.4-0.2,0.6-0.3c0.2-0.1,0.4-0.3,0.6-0.5l0,0l0.3,0.4l0,0
			c-0.2,0.2-0.4,0.3-0.6,0.4c-0.2,0.1-0.4,0.2-0.6,0.3c0.2,0.4,0.4,0.9,0.5,1.5l0,0l-0.4,0.2l0,0l0,0c-0.1-0.5-0.2-0.9-0.6-1.4
			c-0.5,0.1-1.2,0.1-2-0.1l0.1,0.1l-0.3,0.4c-0.6-0.5-1.2-1-2-1.4l0.3-0.5c0-0.1,0.1-0.1,0.1-0.1c0,0,0.1,0.1,0.1,0.2l0.6,0.3
			l0.4-1.5l0.5,0.1L60,38.7L60,38.7z M57.6,41.8L57.6,41.8l0.2-0.5c0-0.1,0.1-0.1,0.1-0.1c0,0,0,0,0.1,0.1c0,0,0,0.1,0,0.1l0.3,0.1
			l0.3-1l0.4,0.1l-0.8,2.7l-0.4-0.1l0.3-1.2L57.6,41.8L57.6,41.8z"/>
		<path class="st11" d="M58.7,47.7l-0.7,1l1.1,0.7l0.7-1L58.7,47.7L58.7,47.7z M59.6,49.7l0.3,0.2l-0.3,0.5l-2.2-1.4l1.3-1.9
			l2.2,1.4l-0.3,0.5l-0.3-0.2L59.6,49.7L59.6,49.7z M57.2,50.1l-0.7,1l1.1,0.7l0.7-1L57.2,50.1L57.2,50.1z M58,52l0.3,0.2L58,52.7
			l-2.2-1.4l1.2-1.9l2.2,1.4l-0.3,0.5L58.7,51L58,52L58,52z M56,47l-1.2,1.8l1,0.6l1.2-1.8L56,47L56,47z M56.2,49.7l0.2,0.1
			l-0.3,0.5l-2-1.3l1.8-2.7l2,1.3L57.5,48l-0.2-0.1L56.2,49.7L56.2,49.7z"/>
		<path class="st11" d="M51.1,55.4l-0.4,0.3L51,56l0.4-0.3L51.1,55.4L51.1,55.4z M50.5,52.5l0.4-0.2c0.1,0,0.1,0,0.1,0l0,0
			c0,0,0,0.1,0,0.1l0.7,0.9l0.7-0.6l0.8,1c0.1,0.1,0.2,0.2,0.3,0.4c0.2,0.3,0.4,0.5,0.4,0.6c0,0.1,0.2,0.3,0.6,0.9
			c0.1,0.3,0.1,0.6,0,0.8l-0.3,0.2c-0.1,0-0.1,0-0.2,0l-0.2-0.2l-0.1,0c0,0,0-0.1,0.1-0.1l0.2-0.1c0.1-0.1,0.1-0.2,0-0.4
			c-0.3-0.4-0.5-0.7-0.5-0.8c-0.1-0.1-0.2-0.2-0.3-0.4c-0.1-0.2-0.3-0.4-0.5-0.7c-0.2-0.3-0.3-0.4-0.4-0.5l-0.3,0.3
			c0.3,0.4,0.5,0.7,0.7,0.9c0.1,0.1,0.2,0.2,0.2,0.4c0.1,0.1,0.2,0.3,0.3,0.5c0.3,0.5,0.5,1,0.6,1.5c-0.1,0-0.1,0-0.1,0
			c0,0-0.1,0-0.1,0l-0.1,0c0,0-0.1,0-0.1,0c0,0,0-0.1-0.1-0.1c0-0.1,0-0.1,0-0.1c0,0,0-0.1,0-0.1c-0.2-0.5-0.5-1.1-0.8-1.6l-0.3-0.4
			l-0.5-0.7l-0.4,0.3l-0.3-0.3l0.4-0.3L50.5,52.5L50.5,52.5z M50.7,54.9l-0.4,0.3l0.2,0.3l0.4-0.3L50.7,54.9L50.7,54.9z M50.4,56
			L50,56.2l0.2,0.3l0.3-0.3L50.4,56L50.4,56z M50,55.5l-0.3,0.3l0.2,0.3l0.3-0.3L50,55.5L50,55.5z M50,54.7L49.5,55l0.2,0.2l0.4-0.3
			L50,54.7L50,54.7z M49.7,54.4l-0.2-0.3l0.4-0.2c0,0,0.1,0,0.1,0l0,0.1l0.1,0.1l0.5-0.4l0.2,0.3l-0.5,0.4l0.2,0.2l0.4-0.3l1.1,1.4
			l-0.7,0.6l0.2,0.2l0.9-0.7l0.8,1c0.2,0.3,0.2,0.5,0.1,0.7l-0.3,0.3c-0.1,0.1-0.1,0.1-0.2,0l-0.3-0.1l0,0c0,0,0-0.1,0.1-0.1
			l0.2-0.2c0.1-0.1,0.1-0.2,0-0.3l-0.5-0.6l-0.6,0.4l0.2,0.3l0.1-0.2l-0.1,0l0.1-0.3l0.6,0.3c0,0.2-0.1,0.3-0.1,0.3l0,0l0,0
			l-0.2-0.1L51.6,58c0,0.1,0,0.1,0,0.2c0,0-0.1,0-0.1,0l-0.3-0.2l0.3-0.4l-0.3-0.4l-0.5,0.4l0.9,1.1l-0.4,0.3l-1.1-1.4l0.9-0.7
			l-0.2-0.2l-0.7,0.6L49,55.8l0.3-0.3l-0.2-0.2l-0.5,0.4l-0.2-0.3L49,55l-0.2-0.3l0.4-0.2c0,0,0.1,0,0.1,0c0,0,0,0.1,0,0.1l0.1,0.1
			L49.7,54.4L49.7,54.4z M48.2,55.1l1.3,1.7l0.8,1.2c0.2,0.3,0.3,0.5,0.4,0.7c0.1,0.2,0.1,0.4,0.2,0.6c0,0,0,0,0,0l0,0l0,0l-0.2,0
			l-0.2,0c0,0-0.1,0-0.1-0.1l0-0.1c-0.1-0.2-0.2-0.5-0.4-0.9c-0.1-0.2-0.2-0.4-0.3-0.6c-0.1-0.2-0.3-0.4-0.5-0.6l-1.6-2l2.5-2
			l0.2,0.3L48.2,55.1L48.2,55.1z"/>
		<path class="st11" d="M43.4,59.6l-0.5-0.2l-0.3,0.4L43.4,59.6L43.4,59.6z M42.7,57.9l0.6,0.2l-0.1,0.4l-0.6-0.2l-0.4,0.6l-0.3-0.1
			l0.3-0.6L41.7,58l-0.1,0l0.1-0.4l0.6,0.2l0.2-0.4l0.4,0.1L42.7,57.9L42.7,57.9z M43.5,62.4c0.1,0,0.1-0.1,0.1-0.2l-0.1-0.4
			l-2.3,0.8L41,62.2l2.3-0.8l-0.1-0.3l0.3,0l0.3-0.5l-1.9,0.6l-0.2-0.4l2.4-0.8c0.1,0.1,0.2,0.1,0.3,0.2l0,0.1c0,0,0,0.1,0,0.1
			l-0.6,0.8l2-0.7l0.2,0.5L44,61.7l0.2,0.5c0,0.2,0,0.3-0.1,0.5L43.2,63l-0.1-0.2C43,62.7,43,62.7,43,62.7c0,0,0-0.1,0-0.1
			L43.5,62.4L43.5,62.4z M43.5,59.6l1.1-0.4l-0.1-0.3l-0.8,0.3l-0.1-0.4l0.8-0.3l-0.1-0.3l-0.7,0.3L43.3,58l0.7-0.3l-0.1-0.3
			l-0.8,0.3L43,57.3l1.3-0.5l0.7,2.2l0.4-0.1l0.4,1.1l-0.5,0.2l-0.2-0.7l-4,1.4l0.2,0.7l-0.6,0.2l-0.4-1.1l0.5-0.2l-0.7-2.1l1.3-0.5
			l0.1,0.4l-0.8,0.3l0.1,0.3l0.8-0.3l0.1,0.4L41,59.3l0.1,0.3l0.8-0.3l0.1,0.4L41.2,60l0.1,0.3l1.1-0.4l-0.1-0.2l0.3-0.4l-0.5-0.1
			l0.1-0.3l0.5,0.1l0.3-0.5l0.3,0.2l-0.2,0.4l0.5,0.1L43.5,59.6L43.5,59.6z"/>
		<path class="st11" d="M27.7,59.9c0,0.4,0,0.8,0,1.1l-0.5,0c0-0.4,0-0.7,0-1.1L27.7,59.9L27.7,59.9z M26.1,59.2
			c0.1,0.1,0.2,0.2,0.3,0.3s0.2,0.3,0.3,0.4l-0.4,0.2l-0.5-0.7L26.1,59.2L26.1,59.2z M28.4,58.3C28.4,58.4,28.4,58.4,28.4,58.3
			c0,0.1,0,0.2,0,0.2c0,0-0.1,0-0.1,0c0,0,0,0-0.1,0c0,0,0,0-0.1-0.1c-1.1-0.2-2.2-0.5-3.2-0.9l-0.1,0l0,0l0,0l0-0.5c0,0,0,0,0,0
			l0.4,0.2c0.5,0.2,1.1,0.4,1.6,0.5c0.5,0.1,1,0.2,1.5,0.3L28.4,58.3L28.4,58.3z M24.7,60.9c0.1,0.3,0.2,0.6,0.4,0.8
			c0.3,0,0.7-0.1,1.1-0.2L24.7,60.9L24.7,60.9z M24.9,59.2c0,0.1,0,0.1,0,0.2c0,0-0.1,0-0.2,0c-0.2,0.1-0.3,0.2-0.5,0.3
			c-0.2,0.1-0.3,0.1-0.5,0.2l-0.2-0.5c0.4-0.1,0.8-0.3,1.2-0.5L24.9,59.2L24.9,59.2z M27.7,60.7L28,60l-3.8-1.6l-0.3,0.8L23.4,59
			l0.5-1.2l1,0.4l-0.1-0.6l0.4,0c0.1,0.3,0.2,0.5,0.2,0.7l-0.2,0l0.7,0.3c0-0.1,0-0.2,0-0.3c0-0.1-0.1-0.2-0.1-0.3l0.5,0
			c0,0.1,0.1,0.3,0.1,0.4c0,0.1,0.1,0.3,0.1,0.4l-0.1,0l0.7,0.3L27.1,59c0.3-0.1,0.6-0.2,1-0.5l0.2,0.4c0,0.1,0,0.1,0,0.1
			c0,0-0.1,0-0.2,0c-0.1,0.1-0.2,0.1-0.3,0.2c-0.1,0-0.2,0.1-0.3,0.1l1.1,0.4l-0.5,1.1L27.7,60.7L27.7,60.7z M25.6,59.2
			c0.1,0,0.1,0.1,0.1,0.1c0,0-0.1,0.1-0.2,0.1l-0.2,0.4l0,0c0,0.1,0,0.2,0.1,0.2l0.9,0.4c0.1,0,0.3,0,0.6-0.2l0,0
			c0,0.1,0.1,0.2,0.2,0.3c0,0,0,0,0,0.1c0,0,0,0,0,0c-0.4,0.3-0.6,0.4-0.8,0.3l-1.1-0.4L25,60.6l1.7,0.7c0.1,0.1,0.1,0.1,0.1,0.2
			c0,0.1,0,0.1,0,0.2c-0.5,0.3-0.9,0.4-1.3,0.5c0.3,0.2,0.5,0.3,0.8,0.5c0.2,0.1,0.5,0.2,0.7,0.3l0,0c0,0-0.1,0.1-0.2,0.2
			c-0.1,0.1-0.1,0.1-0.2,0.2c-0.3-0.1-0.7-0.3-1-0.5c-0.3-0.2-0.6-0.4-0.9-0.7c-0.2,0-0.5-0.1-0.8-0.1c-0.3-0.1-0.6-0.1-1-0.2
			l-0.1,0l-0.1-0.4l0,0l0,0c0.2,0.1,0.5,0.2,0.7,0.2c0.2,0.1,0.5,0.1,0.9,0.1c-0.1-0.1-0.1-0.3-0.2-0.4c-0.1-0.2-0.1-0.3-0.1-0.4
			c-0.3,0-0.6,0.1-0.8,0.1l0,0l0,0l-0.2-0.4l0,0l0,0c0.6,0,1.1-0.1,1.7-0.3c-0.1-0.1-0.1-0.2,0-0.3l0.4-0.9L25.6,59.2L25.6,59.2z"/>
		<path class="st11" d="M16.4,55l0.5,0.4l0.3-0.4l-0.5-0.4L16.4,55L16.4,55z M19.5,55.8l-0.9-0.7c-0.2,0.2-0.3,0.4-0.5,0.7
			c-0.1,0.2-0.2,0.4-0.4,0.7c0.3-0.2,0.7-0.4,1.1-0.7l0.2,0.4c0,0.1,0,0.1,0,0.2c0,0-0.1,0-0.2,0c-0.2,0.2-0.4,0.3-0.7,0.4
			c-0.2,0.1-0.4,0.2-0.7,0.3c0,0.1-0.1,0.2,0,0.3l0,0c0.1,0,0.2,0,0.6-0.2l0,0l0,0.4l0,0l0,0c-0.1,0.1-0.2,0.1-0.3,0.2
			c-0.1,0-0.2,0.1-0.3,0.1c-0.1,0-0.2,0-0.3-0.1c0,0-0.1-0.1-0.1-0.1c-0.1-0.2-0.1-0.4,0-0.6c-0.3,0-0.6,0-0.9,0c0,0,0,0,0,0
			c0,0,0,0,0,0c0-0.2,0-0.3-0.1-0.5l0,0c0.1,0,0.3,0,0.4,0c0.2,0,0.3,0,0.5,0c0.2-0.4,0.3-0.7,0.5-1c0.2-0.3,0.4-0.6,0.6-0.9
			l-1.5-1.2l0.3-0.3l1.4,1.2l0.4-0.4l0.3,0.3c0.1,0.1,0.1,0.2,0.1,0.2c0,0-0.1,0-0.2,0.1l-0.2,0.2l0.4,0.3c0-0.1,0-0.1,0-0.2
			c0-0.1,0-0.2,0-0.2l0.4,0c0,0.1,0,0.3,0,0.4c0,0.1,0,0.2-0.1,0.3l0.1,0.1L19.5,55.8L19.5,55.8z M15.8,55l0.8-1l1.2,1L17,56
			L15.8,55L15.8,55z M16.7,56.5l-1.3-0.6c-0.1,0-0.2,0-0.3,0c0,0,0-0.1,0-0.2l0.2-0.4l1.5,0.9L16.7,56.5L16.7,56.5z M14.6,55.9
			l3,2.5l2.7-3.3l-3-2.5L14.6,55.9L14.6,55.9z M14.2,56.5l-0.4-0.4l3.5-4.2l3.8,3.2l-3.5,4.1l-0.4-0.3l0.1-0.2l-3-2.5L14.2,56.5
			L14.2,56.5z"/>
		<path class="st11" d="M14.4,48.8C14.4,48.9,14.4,48.9,14.4,48.8c-0.1,0.1-0.1,0.1-0.1,0.1c0,0-0.1,0-0.1-0.1c0,0,0,0,0-0.1
			c0,0,0-0.1,0-0.1c-0.7-0.8-1.4-1.7-2-2.7l0-0.1l0,0v0l0.3-0.4c0,0,0.1,0,0.1,0l0.2,0.4c0.3,0.5,0.6,1,0.9,1.4
			c0.3,0.4,0.6,0.8,1,1.1L14.4,48.8L14.4,48.8z M12.9,49.6c-0.2,0.4-0.5,0.7-0.7,0.9l-0.4-0.3c0.2-0.3,0.5-0.5,0.6-0.9L12.9,49.6
			L12.9,49.6z M12.1,48.1c0,0.1,0,0.3,0,0.4c0,0.2,0,0.3,0,0.5L11.6,49l0-0.9L12.1,48.1L12.1,48.1z M12.4,50.3l0.7-0.4L11,46.3
			l-0.7,0.4l-0.3-0.4l1.1-0.6l0.6,1L12,46l0.4,0.3c-0.1,0.3-0.2,0.5-0.3,0.7L11.9,47l0.4,0.7c0.1-0.1,0.1-0.2,0.2-0.3
			c0-0.1,0.1-0.2,0.1-0.3l0.4,0.3c0,0.1-0.1,0.3-0.2,0.4c-0.1,0.1-0.1,0.2-0.2,0.3l-0.1,0l0.4,0.7l0-0.1c0.3,0.1,0.6,0.2,1.1,0.3
			l0,0.5c0,0.1,0,0.1-0.1,0.1c0,0-0.1,0-0.2-0.1c-0.1,0-0.2,0-0.3-0.1c-0.1,0-0.2,0-0.3-0.1l0.6,1l-1.1,0.6L12.4,50.3L12.4,50.3z
			 M11.1,47.4c0,0.1,0,0.1-0.1,0.2c0,0-0.1,0-0.1-0.1c-0.2,0-0.4-0.1-0.6-0.1c-0.2,0-0.3-0.1-0.5-0.2l0.1-0.5
			c0.4,0.2,0.8,0.3,1.2,0.3L11.1,47.4L11.1,47.4z M9.9,48.6c-0.1,0.3-0.2,0.6-0.2,0.9c0.3,0.2,0.6,0.4,1,0.5L9.9,48.6L9.9,48.6z
			 M11.6,47.8c0,0.1,0,0.1,0,0.1c0,0-0.1,0-0.2,0l-0.4,0.2l0,0c-0.1,0.1-0.1,0.1,0,0.3l0.5,0.8c0,0.1,0.2,0.1,0.6,0.2l0,0
			c0,0.1,0,0.2,0,0.4c0,0,0,0,0,0c0,0,0,0,0,0c-0.4,0-0.7-0.1-0.8-0.3l-0.6-1l-0.3-0.1l1,1.6c0,0.1,0,0.2,0,0.2
			c0,0.1-0.1,0.1-0.1,0.1c-0.6-0.1-1-0.2-1.4-0.4c0.1,0.3,0.2,0.6,0.3,0.8c0.1,0.2,0.2,0.5,0.4,0.7l0,0c-0.1,0-0.2,0-0.3,0
			c-0.1,0-0.2,0-0.2,0c-0.2-0.3-0.3-0.6-0.5-1c-0.1-0.3-0.2-0.7-0.3-1.1c-0.2-0.2-0.4-0.4-0.6-0.6c-0.2-0.2-0.4-0.5-0.6-0.8l0-0.1
			L8.2,48l0,0l0,0c0.1,0.2,0.3,0.4,0.4,0.6c0.2,0.2,0.4,0.4,0.6,0.6c0-0.2,0.1-0.3,0.1-0.5c0-0.2,0.1-0.3,0.2-0.4
			C9.2,48.1,9,48,8.8,47.8l0,0l0,0l0.1-0.5l0,0l0,0c0.5,0.3,1,0.6,1.5,0.8c0-0.1,0.1-0.2,0.2-0.2l0.9-0.5L11.6,47.8L11.6,47.8z"/>
		<path class="st11" d="M10.9,40.5c0,0.1,0,0.2-0.1,0.2c0,0-0.1,0-0.2-0.1l-0.2,0c-0.9,0.2-1.7,0.6-2.3,1.1
			c-0.7,0.7-1.1,1.4-1.4,2.3l0,0c0,0,0,0,0,0c0,0,0,0,0,0c-0.1-0.1-0.3-0.3-0.5-0.4c0,0,0,0,0,0c0,0,0,0,0,0c0,0,0,0,0-0.1
			c0.3-0.7,0.7-1.3,1.3-1.9c0.3-0.3,0.6-0.5,0.9-0.8c-0.5,0-1.1-0.1-1.6-0.4c-0.7-0.4-1.2-0.8-1.5-1.2l0-0.1
			c0.1-0.2,0.2-0.4,0.2-0.6l0,0l0.1,0C5.7,39,6,39.2,6.3,39.5c0.3,0.2,0.7,0.5,1.2,0.7c0.4,0.1,0.9,0.1,1.4,0.1
			c0.6,0,1.2-0.1,1.9-0.3L10.9,40.5L10.9,40.5z"/>
		<path class="st11" d="M62.3,34.4c0,0.4-0.3,0.8-0.8,0.8c-0.4,0-0.8-0.3-0.8-0.8c0-0.4,0.3-0.8,0.8-0.8
			C61.9,33.6,62.3,33.9,62.3,34.4L62.3,34.4z"/>
		<path class="st11" d="M8.2,34.4c0,0.4-0.3,0.8-0.8,0.8c-0.4,0-0.8-0.3-0.8-0.8c0-0.4,0.3-0.8,0.8-0.8C7.8,33.6,8.2,34,8.2,34.4
			L8.2,34.4z"/>
		<path class="st11" d="M35.2,61.5c0,0.4-0.3,0.8-0.8,0.8c-0.4,0-0.8-0.3-0.8-0.8c0-0.4,0.3-0.8,0.8-0.8
			C34.9,60.7,35.2,61,35.2,61.5L35.2,61.5z"/>
		<path class="st8" d="M34.2,1.6c-0.1,0.1,0,0.1-0.1,0.3C34,2,33.9,2,33.8,1.9c-0.1-0.1-0.1-0.3,0.1-0.5c0.2-0.2,0.4-0.3,0.7-0.1
			c0.3,0.1,0.4,0.6,0.2,0.9c-0.2,0.3-0.6,0.5-1.1,0.4c-0.5-0.1-0.8-0.7-0.5-1.4c0.2-0.4,0.7-0.8,1.3-0.8c0.5,0,0.9,0,1.4,0.4
			c0.3-0.3,0.7-0.3,1.1-0.3c0.1,0,0.1,0.1,0,0.1c-0.2,0-0.7,0.1-0.8,1c-0.1,0.9-0.4,1.6-0.9,1.9c0,0-0.4,0-0.9,0
			c0.4-0.1,1.3-0.7,1.3-1.6c0-0.3,0-0.6-0.4-0.9c0.5,0.6,0.3,1.4-0.1,1.8c-0.5,0.5-1.4,0.8-2.6,0.1c-0.3,0.3-0.6,0.4-1,0.2
			c-0.1,0-0.1-0.1,0-0.2c0.2-0.1,0.7-0.2,0.8-1c0-0.8,0.3-1.4,0.9-1.9c0.1,0,0.9,0,0.9,0c-0.2,0.1-1.2,0.4-1.3,1.6
			c0,0.6,0.4,1,0.9,1C34.9,3,35.4,2.1,35,1.4C34.9,1,34.5,0.9,34.1,1c-0.4,0.1-0.6,0.4-0.6,0.7c0,0.3,0.2,0.5,0.4,0.5
			c0.4,0,0.5-0.1,0.6-0.4C34.5,1.6,34.4,1.6,34.2,1.6L34.2,1.6z"/>
		<path class="st8" d="M38.9,2.4C39,2.4,38.9,2.3,39,2.2c0.1-0.1,0.2-0.1,0.3,0c0.1,0.1,0,0.3-0.1,0.5c-0.2,0.1-0.4,0.2-0.7,0
			c-0.3-0.2-0.3-0.6-0.1-1c0.2-0.3,0.6-0.4,1.2-0.2C40,1.7,40.2,2.4,39.8,3c-0.3,0.4-0.8,0.7-1.4,0.6c-0.5,0-0.9-0.1-1.3-0.6
			c-0.3,0.2-0.7,0.3-1.1,0.1C35.9,3.1,35.9,3,36,3c0.2,0,0.7,0,0.9-0.9c0.2-0.9,0.7-1.6,1.1-1.7c0,0,0.4,0.1,0.9,0.1
			c-0.4,0-1.4,0.5-1.5,1.4c0,0.3,0,0.6,0.3,1c-0.4-0.7-0.1-1.4,0.4-1.8c0.5-0.4,1.5-0.7,2.6,0.2c0.3-0.2,0.7-0.3,1.1-0.1
			c0.1,0,0.1,0.1,0,0.2c-0.2,0-0.8,0.1-0.9,0.9C40.7,3,40.4,3.6,39.7,4c-0.1,0-0.9-0.1-0.9-0.1c0.2-0.1,1.3-0.3,1.5-1.4
			c0.1-0.6-0.3-1-0.8-1.1c-1.2-0.3-1.8,0.6-1.5,1.3c0.1,0.3,0.5,0.5,0.9,0.4c0.4,0,0.7-0.3,0.7-0.6c0-0.3-0.1-0.5-0.4-0.5
			c-0.4-0.1-0.6,0.1-0.6,0.3C38.6,2.4,38.7,2.5,38.9,2.4L38.9,2.4z"/>
		<path class="st8" d="M43.5,2.9C43.3,3,43.4,3,43.3,3.1c-0.1,0.1-0.2,0-0.3-0.1c-0.1-0.1,0-0.3,0.2-0.5c0.2-0.1,0.4-0.2,0.7,0.1
			c0.2,0.2,0.2,0.7-0.1,1c-0.3,0.2-0.7,0.3-1.2,0.1c-0.5-0.3-0.6-0.9-0.1-1.4c0.3-0.3,0.9-0.5,1.5-0.4c0.5,0.1,0.9,0.3,1.2,0.7
			c0.3-0.2,0.7-0.1,1.1,0c0.1,0.1,0.1,0.2,0,0.2c-0.2,0-0.7-0.1-1,0.7C45,4.4,44.5,4.9,44,5.1c0,0-0.4-0.1-0.9-0.3
			c0.4,0,1.4-0.3,1.7-1.2c0.1-0.3,0.1-0.6-0.1-1c0.3,0.7-0.1,1.4-0.6,1.7c-0.6,0.3-1.5,0.4-2.6-0.6c-0.3,0.2-0.7,0.2-1.1,0
			c-0.1,0-0.1-0.1,0-0.1c0.2,0,0.8,0,1-0.7c0.2-0.7,0.6-1.3,1.4-1.6c0.1,0,0.9,0.3,0.9,0.3c-0.2,0-1.3,0.1-1.7,1.2
			c-0.2,0.6,0.2,1.1,0.6,1.2c1.2,0.5,1.8-0.3,1.7-1.1c-0.1-0.4-0.4-0.5-0.8-0.6c-0.4,0-0.7,0.2-0.8,0.5c-0.1,0.3,0.1,0.5,0.3,0.6
			c0.4,0.1,0.6,0,0.7-0.2C43.7,3,43.6,2.9,43.5,2.9L43.5,2.9z"/>
		<path class="st8" d="M47.7,5c0.1,0,0.1-0.1,0.2-0.2c0.1,0,0.2,0,0.3,0.1c0,0.1,0,0.3-0.3,0.4c-0.2,0.1-0.5,0.1-0.7-0.2
			C47,4.9,47,4.5,47.4,4.2C47.6,4,48.1,4,48.6,4.3c0.4,0.3,0.4,1-0.1,1.4c-0.4,0.3-0.9,0.4-1.6,0.2c-0.5-0.2-0.8-0.4-1.1-0.9
			c-0.4,0.1-0.7,0.1-1.1-0.2c-0.1-0.1,0-0.2,0-0.1c0.2,0,0.7,0.2,1.1-0.6c0.4-0.8,1.1-1.3,1.6-1.4c0,0,0.4,0.2,0.8,0.4
			c-0.4-0.1-1.4,0.1-1.8,1c-0.1,0.2-0.2,0.6,0,1c-0.2-0.8,0.3-1.4,0.9-1.6c0.6-0.2,1.6-0.2,2.5,0.9c0.3-0.1,0.7-0.1,1,0.2
			c0.1,0.1,0.1,0.2-0.1,0.1c-0.2,0-0.8-0.1-1.1,0.6c-0.3,0.7-0.8,1.2-1.6,1.4c-0.1-0.1-0.8-0.4-0.8-0.4c0.2,0,1.3,0.1,1.8-1
			c0.3-0.6,0-1.1-0.4-1.3c-1.1-0.6-1.9,0.1-1.8,0.9c0,0.4,0.3,0.6,0.7,0.7c0.4,0.1,0.7-0.1,0.9-0.4c0.1-0.3,0-0.5-0.2-0.6
			c-0.3-0.2-0.6-0.1-0.7,0.1C47.4,4.9,47.5,5,47.7,5L47.7,5z"/>
		<path class="st8" d="M51.9,6.8c-0.1,0-0.1,0.1-0.2,0.1c-0.1,0-0.2,0-0.3-0.1c0-0.1,0.1-0.3,0.3-0.4c0.2,0,0.5,0,0.7,0.3
			c0.2,0.3,0,0.7-0.3,0.9c-0.3,0.1-0.8,0.1-1.2-0.3c-0.4-0.4-0.3-1,0.3-1.4c0.4-0.2,1-0.3,1.6,0c0.4,0.2,0.8,0.5,1,1.1
			c0.4-0.1,0.7,0.1,1,0.4c0.1,0.1,0,0.2-0.1,0.1c-0.2-0.1-0.7-0.3-1.2,0.4C53,8.6,52.4,9,51.8,9c0,0-0.4-0.2-0.7-0.5
			c0.3,0.1,1.4,0.1,2-0.7c0.1-0.2,0.3-0.6,0.2-1c0,0.8-0.5,1.3-1.1,1.5c-0.7,0.1-1.6,0-2.3-1.3c-0.4,0.1-0.7,0-1-0.3
			c-0.1-0.1,0-0.2,0.1-0.1c0.2,0,0.7,0.2,1.2-0.4c0.4-0.6,1-1,1.8-1.1c0.1,0.1,0.7,0.5,0.7,0.5c-0.2-0.1-1.3-0.3-2,0.7
			c-0.3,0.5-0.2,1.1,0.2,1.4c1,0.8,1.9,0.2,2-0.6c0-0.4-0.2-0.6-0.6-0.8c-0.4-0.1-0.7,0-0.9,0.3c-0.2,0.3-0.1,0.5,0.1,0.6
			c0.3,0.2,0.5,0.2,0.7,0C52.2,6.9,52.1,6.8,51.9,6.8L51.9,6.8z"/>
		<path class="st8" d="M55.4,9.9c0.1,0,0.1-0.1,0.3-0.1c0.1,0,0.2,0.1,0.2,0.2c0,0.1-0.1,0.3-0.4,0.3c-0.2,0-0.5,0-0.6-0.4
			c-0.1-0.3,0.1-0.7,0.5-0.9c0.3-0.1,0.8,0,1.1,0.4c0.3,0.4,0.1,1.1-0.5,1.4c-0.5,0.2-1,0.1-1.6-0.3c-0.4-0.3-0.7-0.6-0.8-1.2
			c-0.4,0-0.7-0.2-1-0.5c-0.1-0.1,0-0.2,0.1-0.1c0.1,0.1,0.6,0.4,1.2-0.2c0.7-0.7,1.4-1,1.9-0.9c0,0,0.3,0.3,0.7,0.6
			c-0.3-0.2-1.4-0.3-2,0.4c-0.2,0.2-0.4,0.5-0.3,1c0.1-0.8,0.7-1.2,1.3-1.3c0.7-0.1,1.6,0.2,2.1,1.6c0.4,0,0.7,0.1,0.9,0.5
			c0,0.1,0,0.2-0.1,0.1c-0.2-0.1-0.7-0.3-1.2,0.2c-0.5,0.6-1.1,0.9-1.9,0.9c-0.1-0.1-0.7-0.6-0.7-0.6c0.2,0.1,1.2,0.5,2-0.4
			c0.4-0.5,0.3-1,0-1.4c-0.9-0.9-1.8-0.5-2,0.3c-0.1,0.4,0.2,0.7,0.5,0.8c0.3,0.2,0.7,0.1,0.9-0.1c0.2-0.3,0.1-0.5,0-0.6
			c-0.3-0.3-0.5-0.2-0.7-0.1C55.2,9.7,55.3,9.9,55.4,9.9L55.4,9.9z"/>
		<path class="st8" d="M59,12.8c-0.1,0-0.1,0.1-0.3,0.1c-0.1,0-0.2-0.1-0.2-0.2c0-0.1,0.2-0.3,0.4-0.3c0.2,0,0.5,0.1,0.6,0.4
			c0.1,0.3-0.2,0.7-0.6,0.8c-0.3,0.1-0.8-0.1-1-0.6c-0.2-0.5,0-1.1,0.7-1.3c0.5-0.1,1,0,1.5,0.5c0.3,0.3,0.6,0.7,0.6,1.3
			c0.4,0,0.7,0.3,0.9,0.6c0.1,0.1,0,0.2-0.1,0.1c-0.1-0.1-0.6-0.4-1.2,0.1c-0.7,0.6-1.5,0.7-2,0.6c0,0-0.3-0.3-0.6-0.7
			c0.3,0.2,1.3,0.5,2.1-0.1c0.2-0.2,0.4-0.5,0.4-0.9c-0.2,0.8-0.9,1.1-1.5,1.1c-0.7,0-1.5-0.5-1.9-1.9c-0.4,0-0.7-0.3-0.9-0.6
			c0-0.1,0-0.2,0.1-0.1c0.2,0.1,0.7,0.4,1.2-0.1c0.6-0.5,1.2-0.7,2-0.6c0.1,0.1,0.6,0.7,0.6,0.7c-0.2-0.1-1.1-0.6-2.1,0.1
			c-0.5,0.4-0.4,1-0.2,1.4c0.7,1,1.7,0.7,2,0c0.1-0.3-0.1-0.7-0.4-0.9c-0.3-0.2-0.7-0.2-0.9,0c-0.2,0.2-0.2,0.5-0.1,0.6
			c0.2,0.3,0.5,0.3,0.7,0.2C59.2,13,59.2,12.8,59,12.8L59,12.8z"/>
		<path class="st8" d="M61.5,16.8c0.1,0,0.1,0,0.3,0c0.1,0,0.2,0.1,0.2,0.2c0,0.1-0.2,0.2-0.4,0.2c-0.2,0-0.4-0.2-0.5-0.5
			c0-0.3,0.2-0.7,0.7-0.7c0.3,0,0.8,0.2,0.9,0.7c0.2,0.5-0.2,1.1-0.9,1.2c-0.5,0-1-0.2-1.4-0.7c-0.3-0.4-0.5-0.8-0.5-1.3
			c-0.4-0.1-0.7-0.4-0.8-0.7c0-0.1,0.1-0.2,0.1-0.1c0.1,0.1,0.5,0.5,1.2,0.1c0.8-0.5,1.6-0.5,2.1-0.3c0,0,0.2,0.4,0.5,0.8
			c-0.3-0.3-1.3-0.7-2.1-0.2c-0.2,0.2-0.5,0.4-0.5,0.9c0.3-0.7,1-1,1.6-0.9c0.7,0.1,1.5,0.7,1.6,2.1c0.4,0.1,0.7,0.3,0.8,0.7
			c0,0.1,0,0.2-0.1,0.1c-0.2-0.1-0.6-0.5-1.2-0.1c-0.7,0.4-1.3,0.6-2.1,0.3c-0.1-0.1-0.5-0.8-0.5-0.8c0.2,0.1,1,0.8,2.1,0.2
			c0.5-0.3,0.6-0.9,0.3-1.3c-0.6-1.1-1.6-0.9-2-0.3c-0.2,0.3,0,0.7,0.2,0.9c0.3,0.3,0.7,0.3,0.9,0.1c0.3-0.2,0.3-0.4,0.2-0.6
			c-0.2-0.3-0.4-0.4-0.7-0.3C61.3,16.6,61.3,16.7,61.5,16.8L61.5,16.8z"/>
		<path class="st8" d="M64.1,20.6c-0.1-0.1-0.1,0-0.3,0c-0.1,0-0.2-0.1-0.1-0.3c0.1-0.1,0.2-0.2,0.5-0.1c0.2,0.1,0.4,0.2,0.4,0.6
			c0,0.3-0.3,0.6-0.8,0.6c-0.3,0-0.7-0.3-0.8-0.9c-0.1-0.5,0.3-1,1-1c0.5,0,1,0.3,1.3,0.9c0.2,0.4,0.4,0.8,0.2,1.4
			c0.4,0.1,0.6,0.5,0.7,0.9c0,0.1-0.1,0.1-0.1,0.1c-0.1-0.1-0.4-0.6-1.2-0.3c-0.9,0.3-1.7,0.3-2.1,0c0,0-0.2-0.4-0.3-0.8
			c0.2,0.3,1.1,0.9,2,0.5c0.2-0.1,0.6-0.3,0.7-0.8C64.8,22,64,22.2,63.5,22c-0.6-0.2-1.3-0.9-1.2-2.3c-0.3-0.1-0.6-0.4-0.7-0.8
			c0-0.1,0.1-0.1,0.1-0.1c0.1,0.1,0.5,0.6,1.2,0.3c0.7-0.3,1.4-0.3,2.1,0c0,0.1,0.4,0.8,0.4,0.8c-0.2-0.2-0.9-0.9-2-0.5
			c-0.6,0.2-0.7,0.8-0.6,1.3c0.4,1.2,1.4,1.2,1.9,0.6c0.2-0.3,0.1-0.7-0.1-1C64.4,20,64,19.9,63.7,20c-0.3,0.1-0.3,0.4-0.3,0.6
			c0.1,0.3,0.4,0.4,0.6,0.4C64.3,20.9,64.3,20.7,64.1,20.6L64.1,20.6z"/>
		<path class="st8" d="M65.3,25.2c0.1,0.1,0.2,0,0.3,0c0.1,0.1,0.1,0.2,0.1,0.3c-0.1,0.1-0.3,0.2-0.5,0.1c-0.2-0.1-0.4-0.3-0.3-0.6
			c0.1-0.3,0.4-0.6,0.8-0.5c0.3,0.1,0.7,0.4,0.7,1c0,0.5-0.5,1-1.2,0.9c-0.5-0.1-0.9-0.4-1.2-1.1c-0.2-0.5-0.3-0.9,0-1.4
			c-0.3-0.2-0.5-0.5-0.6-0.9c0-0.1,0.1-0.1,0.1-0.1c0.1,0.2,0.3,0.6,1.2,0.5c0.9-0.2,1.7,0,2.1,0.3c0,0,0.1,0.4,0.2,0.9
			c-0.2-0.3-1-1-1.9-0.8c-0.3,0.1-0.6,0.2-0.8,0.7c0.5-0.6,1.3-0.7,1.8-0.4c0.6,0.3,1.2,1.1,0.9,2.5c0.3,0.2,0.5,0.5,0.5,0.9
			c0,0.1-0.1,0.1-0.1,0c-0.1-0.2-0.4-0.6-1.1-0.4c-0.8,0.2-1.4,0.2-2.1-0.3c0-0.1-0.2-0.9-0.2-0.9c0.1,0.2,0.8,1.1,1.9,0.8
			c0.6-0.2,0.8-0.7,0.7-1.2c-0.2-1.2-1.3-1.4-1.8-0.8c-0.3,0.3-0.2,0.6-0.1,1c0.2,0.3,0.5,0.5,0.9,0.4c0.3-0.1,0.4-0.3,0.3-0.5
			c-0.1-0.4-0.3-0.5-0.6-0.4C65.2,24.9,65.2,25,65.3,25.2L65.3,25.2z"/>
		<path class="st8" d="M66.8,29.5c-0.1-0.1-0.2,0-0.3-0.1c-0.1-0.1-0.1-0.2-0.1-0.3c0.1-0.1,0.3-0.1,0.5,0c0.2,0.1,0.3,0.3,0.2,0.7
			c-0.1,0.3-0.5,0.5-0.9,0.3c-0.3-0.1-0.6-0.5-0.6-1c0.1-0.5,0.6-0.9,1.3-0.7c0.4,0.2,0.8,0.6,1,1.2c0.1,0.5,0.1,0.9-0.2,1.4
			c0.3,0.2,0.4,0.6,0.4,1c0,0.1-0.1,0.1-0.1,0.1c-0.1-0.2-0.2-0.7-1.1-0.6c-0.9,0.1-1.7-0.2-2-0.6c0,0,0-0.4-0.1-0.9
			c0.1,0.3,0.8,1.2,1.8,1c0.3,0,0.6-0.1,0.9-0.6c-0.6,0.5-1.3,0.5-1.8,0.1c-0.5-0.4-1-1.2-0.5-2.6c-0.3-0.2-0.4-0.6-0.4-1
			c0-0.1,0.1-0.1,0.2,0c0.1,0.2,0.3,0.7,1.1,0.6c0.8-0.1,1.4,0,2,0.6c0,0.1,0.1,0.9,0.1,0.9c-0.1-0.2-0.6-1.2-1.8-1
			c-0.6,0.1-0.9,0.6-0.9,1.1c0,1.3,1.1,1.5,1.7,1.1c0.3-0.2,0.3-0.6,0.2-0.9c-0.1-0.3-0.5-0.6-0.8-0.5c-0.3,0.1-0.4,0.3-0.4,0.5
			c0,0.4,0.2,0.5,0.5,0.5C66.9,29.8,66.9,29.6,66.8,29.5L66.8,29.5z"/>
		<path class="st8" d="M66.7,34.2c0.1,0.1,0.1,0,0.3,0.1c0.1,0.1,0.1,0.2,0,0.3c-0.1,0.1-0.3,0.1-0.5-0.1c-0.2-0.1-0.3-0.4-0.2-0.7
			c0.1-0.3,0.6-0.4,0.9-0.2c0.3,0.2,0.5,0.6,0.4,1.1c-0.1,0.5-0.7,0.8-1.4,0.5c-0.4-0.2-0.8-0.7-0.8-1.3c0-0.5,0-0.9,0.3-1.4
			c-0.3-0.3-0.4-0.7-0.3-1.1c0-0.1,0.1-0.1,0.1,0c0,0.2,0.2,0.7,1,0.8c0.9,0.1,1.6,0.4,1.9,0.9c0,0,0,0.4,0,0.9
			c-0.1-0.4-0.7-1.3-1.6-1.3c-0.3,0-0.6,0.1-0.9,0.4c0.6-0.5,1.4-0.3,1.8,0.1c0.5,0.5,0.9,1.4,0.2,2.6c0.3,0.3,0.4,0.6,0.3,1
			c0,0.1-0.1,0.1-0.2,0c-0.1-0.2-0.2-0.7-1-0.7c-0.8,0-1.4-0.2-1.9-0.9c0-0.1,0-0.9,0-0.9c0.1,0.2,0.4,1.2,1.7,1.3
			c0.6,0,1-0.5,1-0.9c0.1-1.3-0.8-1.7-1.5-1.3c-0.3,0.2-0.4,0.6-0.3,0.9c0.1,0.4,0.4,0.6,0.7,0.6c0.3,0,0.5-0.2,0.5-0.4
			c0-0.4-0.2-0.5-0.4-0.6C66.7,33.9,66.6,34.1,66.7,34.2L66.7,34.2z"/>
		<path class="st8" d="M66.8,38.9c-0.1-0.1-0.1-0.1-0.2-0.2c-0.1-0.1-0.1-0.2,0-0.3c0.1-0.1,0.3,0,0.5,0.1c0.1,0.2,0.2,0.4,0,0.7
			c-0.2,0.3-0.6,0.3-1,0.1c-0.3-0.2-0.4-0.6-0.2-1.2c0.2-0.5,0.8-0.7,1.4-0.3c0.4,0.3,0.6,0.8,0.6,1.4c0,0.5-0.1,0.9-0.6,1.3
			c0.2,0.3,0.2,0.7,0.1,1.1c-0.1,0.1-0.1,0.1-0.2,0c0-0.2,0-0.7-0.9-0.9c-0.9-0.2-1.5-0.7-1.7-1.2c0,0,0.1-0.4,0.2-0.9
			c0,0.4,0.5,1.4,1.4,1.5c0.3,0,0.6,0,1-0.3c-0.7,0.4-1.4,0.1-1.8-0.4c-0.4-0.6-0.6-1.5,0.2-2.6c-0.2-0.3-0.3-0.7-0.1-1.1
			c0-0.1,0.1-0.1,0.2,0c0,0.2,0.1,0.8,0.9,0.9c0.8,0.1,1.3,0.5,1.7,1.2c0,0.1-0.2,0.9-0.2,0.9c0-0.2-0.2-1.3-1.4-1.5
			c-0.6-0.1-1,0.3-1.1,0.8c-0.3,1.2,0.6,1.8,1.3,1.5c0.3-0.1,0.5-0.5,0.5-0.9c0-0.4-0.3-0.7-0.6-0.7c-0.3,0-0.5,0.1-0.5,0.3
			c-0.1,0.4,0.1,0.6,0.3,0.6C66.8,39.1,66.9,39,66.8,38.9L66.8,38.9z"/>
		<path class="st8" d="M65.4,43.3c0.1,0.1,0.1,0.1,0.2,0.2c0.1,0.1,0,0.2-0.1,0.3c-0.1,0.1-0.3,0-0.5-0.2c-0.1-0.2-0.2-0.4,0.1-0.7
			c0.2-0.2,0.7-0.2,1,0.1c0.2,0.3,0.4,0.7,0.1,1.2c-0.3,0.5-0.9,0.6-1.4,0.1c-0.3-0.3-0.5-0.9-0.4-1.5c0.1-0.5,0.3-0.9,0.7-1.2
			c-0.2-0.3-0.2-0.7,0-1.1c0.1-0.1,0.2-0.1,0.2,0c0,0.2-0.1,0.7,0.7,1c0.9,0.3,1.4,0.9,1.6,1.4c0,0-0.1,0.4-0.3,0.9
			c0-0.4-0.3-1.4-1.2-1.7c-0.3-0.1-0.6-0.1-1,0.1c0.7-0.3,1.4,0.1,1.7,0.6c0.3,0.6,0.4,1.5-0.6,2.6c0.2,0.3,0.2,0.7,0,1.1
			c0,0.1-0.1,0.1-0.2,0c0-0.2,0-0.8-0.7-1c-0.7-0.2-1.3-0.6-1.6-1.4c0-0.1,0.3-0.9,0.3-0.9c0,0.2,0.1,1.3,1.2,1.7
			c0.6,0.2,1-0.2,1.2-0.6c0.5-1.2-0.3-1.8-1.1-1.7c-0.4,0.1-0.5,0.4-0.6,0.8c0,0.4,0.2,0.7,0.5,0.8c0.3,0.1,0.5-0.1,0.6-0.3
			c0.1-0.4,0-0.6-0.2-0.7C65.5,43.1,65.4,43.2,65.4,43.3L65.4,43.3z"/>
		<path class="st8" d="M64.3,47.8c0-0.1-0.1-0.1-0.2-0.2c0-0.1,0-0.2,0.1-0.3c0.1,0,0.3,0,0.4,0.3c0.1,0.2,0.1,0.5-0.2,0.7
			c-0.2,0.2-0.7,0.1-0.9-0.2c-0.2-0.3-0.2-0.7,0.1-1.2c0.3-0.4,1-0.4,1.4,0.1c0.3,0.4,0.4,0.9,0.2,1.6c-0.2,0.5-0.4,0.8-0.9,1.1
			c0.1,0.4,0,0.7-0.2,1.1c-0.1,0.1-0.2,0-0.1,0c0-0.2,0.2-0.7-0.6-1.1c-0.8-0.4-1.3-1.1-1.3-1.6c0,0,0.2-0.4,0.4-0.8
			c-0.1,0.4,0.1,1.4,0.9,1.9c0.2,0.1,0.6,0.2,1,0c-0.8,0.1-1.4-0.3-1.6-0.9c-0.2-0.6-0.2-1.6,1-2.5c-0.1-0.3-0.1-0.7,0.2-1
			c0.1-0.1,0.2,0,0.1,0.1c0,0.2-0.1,0.8,0.6,1.1c0.7,0.3,1.2,0.8,1.3,1.6c-0.1,0.1-0.4,0.8-0.4,0.8c0-0.2,0.1-1.3-1-1.9
			c-0.6-0.3-1.1,0-1.3,0.4c-0.7,1.1,0.1,1.9,0.8,1.8c0.4,0,0.6-0.3,0.7-0.7c0.1-0.4-0.1-0.7-0.4-0.9c-0.3-0.1-0.5,0-0.6,0.2
			c-0.2,0.3-0.1,0.6,0.1,0.7C64.2,48.1,64.3,48,64.3,47.8L64.3,47.8z"/>
		<path class="st8" d="M61.6,51.7c0,0.1,0.1,0.1,0.1,0.2c0,0.1,0,0.2-0.1,0.3c-0.1,0-0.3-0.1-0.4-0.3c-0.1-0.2,0-0.5,0.3-0.7
			c0.3-0.2,0.7,0,0.9,0.3c0.2,0.3,0.1,0.8-0.3,1.2c-0.4,0.4-1,0.3-1.4-0.3c-0.2-0.4-0.3-1,0-1.6c0.2-0.4,0.5-0.8,1-1
			c-0.1-0.4,0.1-0.7,0.4-1c0.1-0.1,0.2,0,0.1,0.1c-0.1,0.2-0.3,0.7,0.4,1.2c0.8,0.6,1.1,1.2,1.1,1.8c0,0-0.2,0.4-0.5,0.7
			c0.1-0.3,0.1-1.4-0.7-2c-0.2-0.1-0.6-0.3-1-0.1c0.8,0,1.3,0.5,1.5,1.1c0.1,0.7,0,1.6-1.3,2.3c0.1,0.4,0,0.7-0.3,1
			c-0.1,0.1-0.2,0-0.1-0.1c0-0.2,0.2-0.7-0.4-1.2c-0.7-0.4-1-1-1.1-1.8c0.1-0.1,0.5-0.7,0.5-0.7c-0.1,0.2-0.3,1.3,0.7,2
			c0.5,0.3,1.1,0.1,1.4-0.2c0.8-1,0.2-1.9-0.6-1.9c-0.4,0-0.6,0.2-0.8,0.6c-0.1,0.4,0,0.7,0.3,0.9c0.3,0.2,0.5,0.1,0.6-0.1
			c0.2-0.3,0.2-0.5,0-0.7C61.8,51.5,61.6,51.6,61.6,51.7L61.6,51.7z"/>
		<path class="st8" d="M59.3,55.7c0-0.1-0.1-0.1-0.1-0.3c0-0.1,0.1-0.2,0.2-0.2c0.1,0,0.3,0.1,0.3,0.4c0,0.2,0,0.5-0.4,0.6
			c-0.3,0.1-0.7-0.1-0.9-0.5c-0.1-0.3,0-0.8,0.4-1.1c0.4-0.3,1.1-0.1,1.3,0.5c0.2,0.5,0.1,1-0.3,1.5c-0.3,0.4-0.6,0.7-1.2,0.8
			c0,0.4-0.2,0.7-0.5,1c-0.1,0.1-0.2,0-0.1-0.1c0.1-0.1,0.4-0.6-0.2-1.2c-0.7-0.7-0.9-1.4-0.8-1.9c0,0,0.3-0.3,0.6-0.7
			c-0.2,0.3-0.3,1.4,0.4,2c0.2,0.2,0.5,0.4,1,0.3c-0.8-0.1-1.2-0.7-1.3-1.3c0-0.7,0.3-1.6,1.6-2.1c0-0.4,0.2-0.7,0.5-0.9
			c0.1,0,0.2,0,0.1,0.1c-0.1,0.2-0.3,0.7,0.2,1.2c0.6,0.5,0.9,1.1,0.8,1.9c-0.1,0.1-0.6,0.7-0.6,0.7c0.1-0.2,0.5-1.2-0.4-2
			c-0.5-0.4-1-0.3-1.4,0c-0.9,0.8-0.5,1.8,0.3,2c0.4,0.1,0.7-0.1,0.8-0.5c0.2-0.3,0.1-0.7-0.1-0.9c-0.3-0.2-0.5-0.2-0.6,0
			c-0.3,0.3-0.3,0.5-0.1,0.7C59.1,55.9,59.2,55.9,59.3,55.7L59.3,55.7z"/>
		<path class="st8" d="M55.6,58.7c0,0.1,0.1,0.1,0.1,0.3c0,0.1-0.1,0.2-0.2,0.2c-0.1,0-0.3-0.2-0.3-0.4c0-0.2,0.1-0.5,0.4-0.6
			c0.3-0.1,0.7,0.2,0.8,0.6c0.1,0.3-0.1,0.8-0.6,1c-0.5,0.2-1.1,0-1.3-0.7c-0.1-0.5,0-1,0.5-1.5c0.3-0.3,0.7-0.6,1.3-0.6
			c0-0.4,0.3-0.7,0.6-0.9c0.1-0.1,0.2,0,0.1,0.1c-0.1,0.1-0.4,0.6,0.1,1.2c0.6,0.7,0.7,1.5,0.6,2c0,0-0.3,0.3-0.7,0.6
			c0.2-0.3,0.5-1.3-0.1-2.1c-0.2-0.2-0.5-0.4-0.9-0.4c0.8,0.2,1.1,0.9,1.1,1.5c0,0.7-0.5,1.5-1.9,1.9c0,0.4-0.2,0.7-0.6,0.9
			c-0.1,0-0.2,0-0.1-0.1c0.1-0.2,0.4-0.7-0.1-1.2c-0.5-0.6-0.7-1.2-0.6-2c0.1-0.1,0.7-0.6,0.7-0.6c-0.1,0.2-0.6,1.1,0.1,2.1
			c0.4,0.5,1,0.4,1.4,0.2c1-0.7,0.7-1.7,0-2c-0.3-0.1-0.7,0.1-0.9,0.4c-0.2,0.3-0.2,0.7,0,0.9c0.2,0.2,0.5,0.2,0.6,0.1
			c0.3-0.2,0.3-0.5,0.2-0.7C55.8,58.5,55.7,58.5,55.6,58.7L55.6,58.7z"/>
		<path class="st8" d="M52.3,61.8c0-0.1,0-0.1,0-0.3c0-0.1,0.1-0.2,0.2-0.2c0.1,0,0.2,0.2,0.2,0.4c0,0.2-0.2,0.4-0.5,0.5
			c-0.3,0-0.7-0.3-0.7-0.7c0-0.3,0.2-0.8,0.7-0.9c0.5-0.2,1.1,0.2,1.2,0.9c0,0.5-0.2,1-0.7,1.4c-0.4,0.3-0.8,0.5-1.4,0.4
			c-0.1,0.4-0.4,0.6-0.8,0.8c-0.1,0-0.2-0.1-0.1-0.1c0.1-0.1,0.5-0.5,0.1-1.2c-0.5-0.8-0.5-1.6-0.3-2.1c0,0,0.4-0.2,0.8-0.5
			c-0.3,0.3-0.7,1.2-0.2,2.1c0.2,0.2,0.4,0.5,0.9,0.6c-0.7-0.3-1-1-0.9-1.6c0.1-0.7,0.7-1.4,2.1-1.6c0.1-0.4,0.3-0.6,0.7-0.8
			c0.1,0,0.2,0,0.1,0.1c-0.1,0.1-0.5,0.6-0.1,1.2c0.4,0.7,0.5,1.3,0.3,2.1c-0.1,0.1-0.8,0.5-0.8,0.5c0.1-0.2,0.8-1,0.2-2.1
			c-0.3-0.5-0.9-0.6-1.3-0.4c-1.1,0.6-1,1.6-0.3,2c0.3,0.2,0.7,0,0.9-0.2c0.3-0.3,0.3-0.6,0.1-0.9c-0.2-0.3-0.4-0.3-0.6-0.2
			c-0.3,0.2-0.4,0.4-0.3,0.6C52,62,52.2,62,52.3,61.8L52.3,61.8z"/>
		<path class="st8" d="M47.9,63.7c-0.1,0.1,0,0.1,0,0.3c0,0.1-0.1,0.2-0.3,0.1c-0.1-0.1-0.2-0.2-0.2-0.5c0.1-0.2,0.2-0.4,0.6-0.4
			c0.3,0,0.6,0.3,0.6,0.8c0,0.3-0.3,0.7-0.8,0.8c-0.5,0.1-1-0.3-1-1c0-0.5,0.3-1,0.9-1.3c0.4-0.2,0.8-0.4,1.4-0.3
			c0.1-0.4,0.4-0.6,0.9-0.7c0.1,0,0.1,0.1,0.1,0.1c-0.1,0.1-0.6,0.4-0.3,1.2c0.3,0.9,0.3,1.7,0,2.1c0,0-0.4,0.2-0.8,0.4
			c0.3-0.2,0.9-1.1,0.5-2c-0.1-0.2-0.3-0.6-0.8-0.7c0.7,0.4,0.8,1.1,0.7,1.7c-0.2,0.6-0.9,1.3-2.3,1.3c-0.1,0.3-0.4,0.6-0.8,0.7
			c-0.1,0-0.2-0.1-0.1-0.1c0.1-0.1,0.6-0.5,0.3-1.2c-0.3-0.7-0.4-1.4,0-2.1c0.1-0.1,0.8-0.4,0.8-0.4c-0.2,0.2-0.9,0.9-0.5,2
			c0.3,0.6,0.8,0.7,1.3,0.5c1.2-0.4,1.2-1.5,0.6-2c-0.3-0.2-0.7-0.1-1,0.1c-0.3,0.2-0.4,0.6-0.3,0.9c0.2,0.3,0.4,0.3,0.6,0.3
			c0.3-0.1,0.4-0.4,0.3-0.6C48.2,63.6,48,63.6,47.9,63.7L47.9,63.7z"/>
		<path class="st8" d="M43.8,65.8c0.1-0.1,0-0.1,0-0.3c0.1-0.1,0.2-0.1,0.3-0.1c0.1,0.1,0.2,0.3,0.1,0.5c-0.1,0.2-0.3,0.4-0.6,0.3
			c-0.3-0.1-0.6-0.4-0.5-0.8c0.1-0.3,0.4-0.7,1-0.7c0.5,0,1,0.5,0.9,1.2c-0.1,0.5-0.5,0.9-1.1,1.2c-0.5,0.2-0.9,0.3-1.4,0
			c-0.2,0.3-0.5,0.5-0.9,0.5c-0.1,0-0.1-0.1-0.1-0.1c0.2-0.1,0.6-0.3,0.5-1.2c-0.2-0.9,0-1.7,0.3-2.1c0,0,0.4-0.1,0.9-0.2
			c-0.3,0.2-1,1-0.8,1.9c0.1,0.3,0.2,0.6,0.7,0.8c-0.6-0.5-0.7-1.3-0.4-1.8c0.3-0.6,1.1-1.2,2.5-0.9c0.2-0.3,0.5-0.5,0.9-0.5
			c0.1,0,0.1,0.1,0,0.1c-0.2,0.1-0.6,0.4-0.5,1.1c0.2,0.7,0.2,1.4-0.3,2.1c-0.1,0-0.9,0.2-0.9,0.2c0.2-0.1,1.1-0.7,0.8-1.9
			c-0.2-0.6-0.7-0.8-1.2-0.7c-1.2,0.2-1.4,1.3-0.9,1.8c0.3,0.3,0.6,0.2,1,0.1c0.3-0.2,0.5-0.5,0.4-0.9c-0.1-0.3-0.3-0.4-0.5-0.4
			c-0.4,0.1-0.5,0.3-0.4,0.5C43.5,65.9,43.7,65.9,43.8,65.8L43.8,65.8z"/>
		<path class="st8" d="M39.1,66.3c-0.1,0.1,0,0.2-0.1,0.3c-0.1,0.1-0.2,0.1-0.3,0.1c-0.1-0.1-0.1-0.3,0-0.5c0.1-0.2,0.3-0.3,0.7-0.3
			c0.3,0.1,0.5,0.5,0.4,0.9c-0.1,0.3-0.5,0.6-1,0.6c-0.5-0.1-0.9-0.6-0.7-1.3c0.2-0.4,0.6-0.8,1.2-1c0.5-0.1,0.9-0.1,1.4,0.2
			c0.2-0.3,0.6-0.4,1-0.4c0.1,0,0.1,0.1,0.1,0.1c-0.2,0.1-0.7,0.3-0.6,1.1c0.1,0.9-0.2,1.7-0.6,2c0,0-0.4,0.1-0.9,0.1
			c0.3-0.1,1.2-0.8,1-1.8c0-0.3-0.1-0.6-0.6-0.9c0.5,0.6,0.5,1.3,0.2,1.8c-0.4,0.6-1.2,1-2.6,0.6c-0.2,0.3-0.6,0.4-1,0.4
			c-0.1,0-0.1-0.1,0-0.2c0.2-0.1,0.7-0.3,0.6-1.1c-0.1-0.8,0-1.4,0.6-2c0.1,0,0.9-0.1,0.9-0.1c-0.2,0.1-1.2,0.6-1,1.8
			c0.1,0.6,0.6,0.9,1.1,0.9c1.3,0,1.5-1.1,1.1-1.7c-0.2-0.3-0.6-0.3-0.9-0.2c-0.4,0.1-0.6,0.5-0.5,0.8c0.1,0.3,0.3,0.4,0.5,0.4
			c0.4,0,0.5-0.2,0.5-0.5C39.4,66.3,39.3,66.2,39.1,66.3L39.1,66.3z"/>
		<path class="st8" d="M34.6,67.2c0.1-0.1,0-0.1,0.1-0.3c0.1-0.1,0.2-0.1,0.3,0c0.1,0.1,0.1,0.3-0.1,0.5c-0.1,0.2-0.4,0.3-0.7,0.2
			C34,67.4,33.8,67,34,66.6c0.2-0.3,0.6-0.5,1.1-0.4c0.5,0.1,0.8,0.7,0.5,1.4c-0.2,0.4-0.7,0.8-1.3,0.8c-0.5,0-0.9,0-1.4-0.4
			c-0.3,0.3-0.7,0.3-1.1,0.3c-0.1,0-0.1-0.1,0-0.1c0.2,0,0.7-0.2,0.8-1c0.1-0.9,0.4-1.6,0.9-1.9c0,0,0.4,0,0.9,0
			c-0.4,0.1-1.3,0.7-1.3,1.6c0,0.3,0.1,0.6,0.4,0.9c-0.5-0.6-0.3-1.4,0.1-1.8c0.5-0.5,1.4-0.9,2.6-0.2c0.3-0.3,0.6-0.4,1-0.3
			c0.1,0,0.1,0.1,0,0.2c-0.2,0.1-0.7,0.2-0.8,1c0,0.8-0.2,1.4-0.9,1.9c-0.1,0-0.9,0-0.9,0c0.2-0.1,1.2-0.4,1.3-1.6
			c0-0.6-0.4-1-0.9-1c-1.3-0.1-1.7,0.8-1.3,1.5c0.2,0.3,0.6,0.4,0.9,0.3c0.4-0.1,0.6-0.4,0.6-0.7c0-0.3-0.2-0.5-0.4-0.5
			c-0.4,0-0.5,0.1-0.6,0.4C34.3,67.2,34.5,67.2,34.6,67.2L34.6,67.2z"/>
		<path class="st8" d="M30,66.4c-0.1,0.1-0.1,0.1-0.2,0.2c-0.1,0.1-0.2,0.1-0.3,0c-0.1-0.1-0.1-0.3,0.1-0.5c0.2-0.1,0.4-0.2,0.7-0.1
			c0.3,0.2,0.3,0.6,0.1,1c-0.2,0.3-0.6,0.5-1.2,0.3c-0.5-0.2-0.7-0.8-0.3-1.4c0.3-0.4,0.8-0.7,1.4-0.6c0.5,0,0.9,0.1,1.3,0.5
			c0.3-0.2,0.7-0.3,1.1-0.1c0.1,0,0.1,0.1,0,0.2c-0.2,0-0.7,0.1-0.9,0.9c-0.2,0.9-0.6,1.6-1.1,1.8c0,0-0.4-0.1-0.9-0.1
			c0.4,0,1.3-0.5,1.5-1.4c0-0.3,0-0.6-0.3-1c0.4,0.7,0.1,1.4-0.4,1.8c-0.5,0.4-1.5,0.7-2.6-0.2c-0.3,0.2-0.7,0.3-1.1,0.1
			c-0.1,0-0.1-0.1,0-0.2c0.2,0,0.8-0.1,0.9-0.9c0.1-0.8,0.4-1.4,1.1-1.8c0.1,0,0.9,0.1,0.9,0.1c-0.2,0.1-1.3,0.3-1.5,1.5
			c-0.1,0.6,0.3,1,0.8,1.1c1.2,0.3,1.8-0.6,1.5-1.3c-0.1-0.3-0.5-0.5-0.9-0.4c-0.4,0-0.7,0.3-0.7,0.6c0,0.3,0.1,0.5,0.4,0.5
			c0.4,0.1,0.6-0.1,0.6-0.3C30.2,66.4,30.1,66.3,30,66.4L30,66.4z"/>
		<path class="st8" d="M25.3,65.9c0.1-0.1,0.1-0.1,0.2-0.2c0.1-0.1,0.2,0,0.3,0.1c0.1,0.1,0,0.3-0.2,0.5c-0.2,0.1-0.4,0.2-0.7-0.1
			c-0.2-0.2-0.2-0.7,0.1-1c0.3-0.2,0.7-0.3,1.2-0.1c0.5,0.3,0.6,0.9,0.1,1.4c-0.3,0.3-0.9,0.5-1.5,0.4c-0.5-0.1-0.9-0.3-1.2-0.7
			c-0.3,0.2-0.7,0.1-1.1-0.1c-0.1-0.1-0.1-0.2,0-0.2c0.2,0,0.7,0.1,1-0.7c0.3-0.9,0.9-1.4,1.4-1.6c0,0,0.4,0.1,0.9,0.3
			c-0.4,0-1.4,0.3-1.7,1.2c-0.1,0.3-0.1,0.6,0.1,1c-0.3-0.7,0.1-1.4,0.6-1.7c0.6-0.3,1.5-0.4,2.6,0.6c0.3-0.2,0.7-0.2,1.1,0.1
			c0.1,0,0.1,0.1,0,0.1c-0.2,0-0.8,0-1,0.7c-0.2,0.7-0.6,1.3-1.4,1.5c-0.1,0-0.9-0.3-0.9-0.3c0.2,0,1.3-0.1,1.7-1.2
			c0.2-0.6-0.1-1.1-0.6-1.2c-1.2-0.5-1.8,0.3-1.7,1.1c0.1,0.4,0.4,0.5,0.8,0.6c0.4,0,0.7-0.2,0.8-0.5c0.1-0.3-0.1-0.5-0.3-0.6
			c-0.4-0.1-0.6,0-0.7,0.2C25.1,65.8,25.2,65.9,25.3,65.9L25.3,65.9z"/>
		<path class="st8" d="M21.1,63.8c-0.1,0-0.1,0.1-0.2,0.2c-0.1,0-0.2,0-0.3-0.1c0-0.1,0-0.3,0.3-0.4c0.2-0.1,0.5-0.1,0.7,0.2
			c0.2,0.2,0.1,0.7-0.2,0.9c-0.3,0.2-0.7,0.3-1.2-0.1c-0.4-0.3-0.4-1,0.1-1.4c0.4-0.3,0.9-0.4,1.6-0.2c0.5,0.2,0.8,0.4,1.1,0.9
			c0.4-0.1,0.7,0,1.1,0.2c0.1,0.1,0,0.2,0,0.1c-0.2,0-0.7-0.2-1.1,0.6c-0.4,0.8-1.1,1.3-1.6,1.4c0,0-0.4-0.2-0.8-0.4
			c0.4,0.1,1.4-0.1,1.8-0.9c0.1-0.2,0.2-0.6,0-1c0.2,0.8-0.3,1.4-0.9,1.6c-0.6,0.2-1.6,0.2-2.5-0.9c-0.3,0.1-0.7,0.1-1-0.2
			C18,64.1,18,64,18.1,64c0.2,0,0.8,0.1,1.1-0.6c0.3-0.7,0.8-1.2,1.6-1.4c0.1,0.1,0.8,0.4,0.8,0.4c-0.2,0-1.3-0.1-1.8,1
			c-0.3,0.6,0,1.1,0.4,1.3c1.1,0.7,1.9-0.1,1.8-0.8c0-0.4-0.3-0.6-0.7-0.7c-0.4-0.1-0.7,0.1-0.9,0.4c-0.1,0.3,0,0.5,0.2,0.6
			c0.3,0.2,0.6,0.1,0.7-0.1C21.4,63.9,21.3,63.8,21.1,63.8L21.1,63.8z"/>
		<path class="st8" d="M16.9,62.1c0.1,0,0.1-0.1,0.2-0.1c0.1,0,0.2,0,0.3,0.1c0,0.1-0.1,0.3-0.3,0.4c-0.2,0.1-0.5,0-0.7-0.3
			c-0.2-0.3,0-0.7,0.3-0.9c0.3-0.2,0.8-0.1,1.2,0.3c0.4,0.4,0.3,1-0.3,1.4c-0.4,0.2-1,0.3-1.6,0c-0.4-0.2-0.8-0.5-1-1
			c-0.4,0.1-0.7-0.1-1-0.4c-0.1-0.1,0-0.2,0.1-0.1c0.2,0.1,0.7,0.3,1.2-0.4c0.6-0.7,1.2-1.1,1.8-1.1c0,0,0.4,0.2,0.7,0.5
			c-0.3-0.1-1.4-0.1-2,0.7c-0.1,0.2-0.3,0.6-0.1,1c0-0.8,0.5-1.3,1.1-1.5c0.7-0.1,1.6,0,2.3,1.3c0.4-0.1,0.7,0,1,0.3
			c0,0.1,0,0.2-0.1,0.1c-0.2,0-0.7-0.2-1.2,0.4c-0.4,0.6-1,1-1.8,1.1c-0.1-0.1-0.7-0.5-0.7-0.5c0.2,0.1,1.3,0.3,2-0.7
			c0.3-0.5,0.1-1.1-0.2-1.4c-1-0.8-1.9-0.2-1.9,0.6c0,0.4,0.2,0.6,0.6,0.8c0.4,0.1,0.7,0,0.9-0.3c0.2-0.3,0.1-0.5-0.1-0.6
			c-0.3-0.2-0.5-0.2-0.7,0C16.6,61.9,16.7,62.1,16.9,62.1L16.9,62.1z"/>
		<path class="st8" d="M13.4,58.9c-0.1,0-0.1,0.1-0.3,0.1c-0.1,0-0.2-0.1-0.2-0.2c0-0.1,0.1-0.3,0.4-0.3c0.2,0,0.5,0,0.6,0.3
			c0.1,0.3-0.1,0.7-0.4,0.9c-0.3,0.1-0.8,0-1.1-0.4c-0.3-0.4-0.1-1.1,0.5-1.4c0.4-0.2,1-0.1,1.6,0.2c0.4,0.3,0.7,0.6,0.8,1.2
			c0.4,0,0.7,0.2,1,0.5c0.1,0.1,0,0.2-0.1,0.1c-0.1-0.1-0.6-0.3-1.2,0.3c-0.7,0.7-1.4,1-1.9,0.9c0,0-0.3-0.3-0.7-0.6
			c0.3,0.2,1.4,0.3,2-0.4c0.2-0.2,0.4-0.5,0.3-1c-0.1,0.8-0.7,1.2-1.3,1.3c-0.7,0.1-1.6-0.2-2.1-1.6c-0.4,0-0.7-0.1-1-0.5
			c0-0.1,0-0.2,0.1-0.1c0.2,0.1,0.7,0.3,1.2-0.3c0.5-0.6,1.1-0.9,1.9-0.9c0.1,0.1,0.7,0.6,0.7,0.6c-0.2-0.1-1.2-0.5-2,0.4
			c-0.4,0.5-0.3,1,0,1.4c0.9,0.9,1.8,0.5,2-0.3c0.1-0.4-0.2-0.7-0.5-0.8c-0.3-0.2-0.7-0.1-0.9,0.1c-0.2,0.3-0.1,0.5,0,0.7
			c0.3,0.2,0.5,0.2,0.7,0.1C13.6,59.1,13.5,58.9,13.4,58.9L13.4,58.9z"/>
		<path class="st8" d="M9.8,56c0.1,0,0.1-0.1,0.3-0.1c0.1,0,0.2,0.1,0.2,0.2c0,0.1-0.2,0.3-0.4,0.3c-0.2,0-0.5-0.1-0.6-0.4
			c-0.1-0.3,0.2-0.7,0.6-0.8c0.3-0.1,0.8,0.1,1,0.6c0.2,0.5,0,1.1-0.7,1.3c-0.5,0.1-1,0-1.5-0.5C8.3,56.2,8,55.9,8,55.3
			c-0.4,0-0.7-0.3-0.9-0.6c0-0.1,0-0.2,0.1-0.1c0.1,0.1,0.6,0.4,1.2-0.1c0.8-0.6,1.5-0.7,2-0.6c0,0,0.3,0.3,0.6,0.7
			c-0.3-0.2-1.3-0.5-2.1,0.1c-0.2,0.2-0.5,0.5-0.4,0.9c0.2-0.8,0.9-1.1,1.5-1.1c0.7,0.1,1.5,0.5,1.8,1.9c0.4,0,0.7,0.3,0.9,0.6
			c0,0.1,0,0.2-0.1,0.1c-0.2-0.1-0.6-0.4-1.2,0.1c-0.6,0.5-1.2,0.7-2,0.6c-0.1-0.1-0.6-0.7-0.6-0.7c0.2,0.1,1.1,0.7,2.1-0.1
			c0.5-0.4,0.4-1,0.2-1.4c-0.7-1-1.7-0.7-2,0c-0.1,0.3,0.1,0.7,0.3,0.9c0.3,0.2,0.7,0.2,0.9,0c0.2-0.2,0.2-0.5,0.1-0.6
			c-0.2-0.3-0.5-0.3-0.7-0.2C9.6,55.8,9.6,56,9.8,56L9.8,56z"/>
		<path class="st8" d="M7.3,52c-0.1,0-0.1,0-0.3,0c-0.1,0-0.2-0.1-0.2-0.2c0-0.1,0.2-0.2,0.4-0.2c0.2,0,0.4,0.2,0.5,0.5
			c0,0.3-0.2,0.7-0.7,0.7c-0.3,0-0.8-0.2-0.9-0.7C6,51.6,6.4,51,7.1,50.9c0.5,0,1,0.2,1.4,0.7C8.8,52,9,52.4,8.9,52.9
			c0.4,0.1,0.7,0.4,0.8,0.7c0,0.1-0.1,0.2-0.1,0.1c-0.1-0.1-0.5-0.5-1.2-0.1c-0.8,0.5-1.6,0.5-2.1,0.3c0,0-0.2-0.4-0.5-0.8
			c0.3,0.3,1.3,0.7,2.1,0.2c0.2-0.2,0.5-0.4,0.6-0.9c-0.3,0.7-1,1-1.6,0.9c-0.7-0.1-1.5-0.7-1.6-2.1c-0.4-0.1-0.7-0.3-0.8-0.7
			c0-0.1,0-0.2,0.1-0.1c0.1,0.1,0.6,0.5,1.2,0.1c0.7-0.4,1.3-0.6,2.1-0.3c0.1,0.1,0.5,0.8,0.5,0.8c-0.2-0.1-1-0.8-2.1-0.2
			c-0.5,0.3-0.6,0.9-0.4,1.3c0.6,1.1,1.6,1,2,0.3c0.2-0.3,0-0.7-0.2-0.9c-0.3-0.3-0.7-0.3-0.9-0.1c-0.3,0.2-0.3,0.4-0.2,0.6
			c0.2,0.3,0.4,0.4,0.7,0.3C7.5,52.2,7.5,52.1,7.3,52L7.3,52z"/>
		<path class="st8" d="M4.7,48.2c0.1,0.1,0.1,0,0.3,0c0.1,0,0.2,0.1,0.1,0.3c-0.1,0.1-0.2,0.2-0.5,0.1c-0.2-0.1-0.4-0.2-0.4-0.6
			c0-0.3,0.3-0.6,0.8-0.6c0.3,0,0.7,0.3,0.8,0.9c0.1,0.5-0.3,1-1,1c-0.5,0-1-0.3-1.3-0.9C3.2,48,3.1,47.6,3.2,47
			c-0.4-0.1-0.6-0.5-0.7-0.9c0-0.1,0.1-0.1,0.1-0.1c0.1,0.1,0.4,0.6,1.2,0.3c0.9-0.3,1.7-0.3,2.1,0c0,0,0.2,0.4,0.4,0.8
			c-0.2-0.3-1.1-0.9-2-0.5c-0.2,0.1-0.6,0.3-0.7,0.8c0.4-0.7,1.2-0.8,1.7-0.6c0.6,0.2,1.3,0.9,1.2,2.3c0.3,0.1,0.6,0.4,0.7,0.8
			c0,0.1-0.1,0.1-0.1,0.1c-0.1-0.1-0.5-0.6-1.2-0.3c-0.7,0.3-1.4,0.4-2.1,0c0-0.1-0.4-0.8-0.4-0.8c0.2,0.2,0.9,0.9,2,0.5
			C6,49.2,6.2,48.6,6,48.2C5.6,47,4.6,47,4.1,47.6c-0.2,0.3-0.1,0.7,0.1,1c0.2,0.3,0.6,0.4,0.9,0.3c0.3-0.1,0.3-0.4,0.3-0.6
			c-0.1-0.3-0.4-0.4-0.6-0.4C4.5,47.9,4.5,48.1,4.7,48.2L4.7,48.2z"/>
		<path class="st8" d="M3.5,43.6c-0.1-0.1-0.1,0-0.3,0c-0.1-0.1-0.1-0.2-0.1-0.3c0.1-0.1,0.3-0.2,0.5-0.1c0.2,0.1,0.4,0.3,0.3,0.6
			c-0.1,0.3-0.4,0.6-0.8,0.5c-0.3-0.1-0.7-0.4-0.7-1c0-0.5,0.5-1,1.2-0.9C4,42.6,4.5,43,4.7,43.6C4.9,44,5,44.5,4.8,45
			c0.3,0.2,0.5,0.5,0.6,0.9c0,0.1-0.1,0.1-0.1,0.1c-0.1-0.2-0.3-0.6-1.2-0.5c-0.9,0.2-1.7,0.1-2.1-0.3c0,0-0.1-0.4-0.2-0.9
			c0.2,0.3,1,1,1.9,0.8c0.3-0.1,0.6-0.2,0.8-0.7c-0.5,0.6-1.3,0.7-1.8,0.4c-0.6-0.3-1.2-1.1-0.9-2.5c-0.3-0.2-0.5-0.5-0.5-0.9
			c0-0.1,0.1-0.1,0.1,0c0.1,0.2,0.4,0.6,1.1,0.4c0.8-0.2,1.4-0.2,2.1,0.3c0,0.1,0.2,0.9,0.2,0.9C4.6,42.9,4,42,2.8,42.3
			C2.2,42.5,2,43,2.1,43.5c0.2,1.2,1.3,1.4,1.8,0.8c0.3-0.3,0.2-0.6,0-1C3.8,43,3.5,42.9,3.2,43c-0.3,0.1-0.4,0.3-0.3,0.6
			C2.9,43.9,3.1,44,3.4,44C3.6,43.9,3.6,43.7,3.5,43.6L3.5,43.6z"/>
		<path class="st8" d="M2,39.2c0.1,0.1,0.1,0,0.3,0.1c0.1,0.1,0.1,0.2,0.1,0.3c-0.1,0.1-0.3,0.1-0.5,0c-0.2-0.1-0.3-0.3-0.2-0.7
			c0.1-0.3,0.5-0.5,0.9-0.3c0.3,0.1,0.6,0.5,0.5,1.1c-0.1,0.5-0.6,0.9-1.3,0.7c-0.4-0.2-0.8-0.6-1-1.2c-0.1-0.5-0.1-0.9,0.2-1.4
			c-0.3-0.2-0.4-0.6-0.4-1c0-0.1,0.1-0.1,0.1-0.1c0,0.2,0.2,0.7,1.1,0.6c0.9-0.1,1.7,0.2,2,0.6c0,0,0,0.4,0.1,0.9
			C3.7,38.4,3,37.6,2,37.7c-0.3,0-0.6,0.1-0.9,0.6c0.6-0.5,1.3-0.5,1.8-0.1c0.5,0.4,1,1.2,0.5,2.6c0.3,0.2,0.4,0.6,0.4,1
			c0,0.1-0.1,0.1-0.2,0c-0.1-0.2-0.3-0.7-1.1-0.6c-0.8,0.1-1.4-0.1-2-0.6c0-0.1-0.1-0.9-0.1-0.9c0.1,0.2,0.6,1.2,1.8,1
			c0.6-0.1,0.9-0.6,0.9-1.1c0-1.3-1.1-1.5-1.7-1.1c-0.3,0.2-0.3,0.6-0.2,0.9c0.1,0.4,0.5,0.6,0.8,0.5c0.3-0.1,0.4-0.3,0.4-0.5
			c0-0.4-0.2-0.5-0.5-0.5C1.9,38.9,1.9,39.1,2,39.2L2,39.2z"/>
		<path class="st8" d="M2.1,34.5c-0.1-0.1-0.1,0-0.3-0.1c-0.1-0.1-0.1-0.2,0-0.3C1.9,34,2.2,34,2.3,34.2c0.2,0.1,0.3,0.4,0.2,0.7
			c-0.1,0.3-0.6,0.4-0.9,0.2C1.3,35,1,34.6,1.1,34c0.1-0.5,0.7-0.8,1.4-0.5c0.4,0.2,0.8,0.7,0.8,1.3c0,0.5,0,0.9-0.4,1.4
			c0.3,0.3,0.4,0.7,0.3,1.1c0,0.1-0.1,0.1-0.1,0c0-0.2-0.2-0.7-1-0.8c-0.9-0.1-1.6-0.4-1.9-0.9c0,0,0-0.4,0-0.9
			c0.1,0.4,0.7,1.3,1.6,1.3c0.3,0,0.6-0.1,0.9-0.4c-0.6,0.5-1.4,0.3-1.8-0.1c-0.5-0.5-0.9-1.4-0.2-2.6c-0.3-0.3-0.4-0.6-0.3-1
			c0-0.1,0.1-0.1,0.2,0c0.1,0.2,0.2,0.7,1,0.7c0.8,0,1.4,0.2,1.9,0.9c0,0.1,0,0.9,0,0.9c-0.1-0.2-0.4-1.2-1.7-1.3
			c-0.6,0-1,0.5-1,0.9c-0.1,1.3,0.8,1.7,1.5,1.3c0.3-0.2,0.4-0.6,0.3-0.9c-0.1-0.4-0.4-0.6-0.7-0.6c-0.3,0-0.5,0.2-0.5,0.4
			c0,0.4,0.1,0.5,0.4,0.6C2.1,34.8,2.2,34.7,2.1,34.5L2.1,34.5z"/>
		<path class="st8" d="M1.9,29.9C2,30,2.1,30,2.2,30.1c0.1,0.1,0.1,0.2,0,0.3c-0.1,0.1-0.3,0-0.5-0.1c-0.1-0.2-0.2-0.4,0-0.7
			c0.2-0.3,0.6-0.3,1-0.1c0.3,0.2,0.4,0.6,0.2,1.2c-0.2,0.5-0.8,0.7-1.4,0.3c-0.4-0.3-0.7-0.8-0.6-1.4c0-0.5,0.1-0.9,0.6-1.3
			c-0.2-0.3-0.3-0.7-0.1-1.1c0-0.1,0.1-0.1,0.2,0c0,0.2,0,0.7,0.9,0.9c0.9,0.2,1.6,0.7,1.7,1.1c0,0-0.1,0.4-0.1,0.9
			c0-0.4-0.5-1.4-1.4-1.5c-0.3,0-0.6,0-1,0.3c0.7-0.4,1.4-0.1,1.8,0.4c0.4,0.5,0.7,1.5-0.2,2.6c0.2,0.3,0.3,0.7,0.1,1.1
			c0,0.1-0.1,0.1-0.2,0c0-0.2-0.1-0.8-0.9-0.9c-0.8-0.1-1.3-0.4-1.7-1.1c0-0.1,0.1-0.9,0.1-0.9c0.1,0.2,0.2,1.3,1.4,1.5
			c0.6,0.1,1-0.3,1.1-0.8c0.3-1.2-0.6-1.8-1.3-1.5c-0.3,0.1-0.5,0.5-0.4,0.9c0,0.4,0.3,0.7,0.6,0.7c0.3,0,0.5-0.1,0.5-0.4
			c0.1-0.4-0.1-0.6-0.3-0.6C2,29.6,1.9,29.8,1.9,29.9L1.9,29.9z"/>
		<path class="st8" d="M3.4,25.4c-0.1-0.1-0.1-0.1-0.2-0.2c-0.1-0.1,0-0.2,0.1-0.3c0.1-0.1,0.3,0,0.5,0.2c0.1,0.2,0.2,0.4,0,0.7
			c-0.2,0.2-0.7,0.2-1,0c-0.2-0.2-0.4-0.7-0.1-1.2c0.3-0.5,0.9-0.6,1.4-0.1c0.3,0.3,0.5,0.9,0.4,1.5c-0.1,0.5-0.2,0.9-0.7,1.2
			c0.2,0.3,0.2,0.7,0,1.1c-0.1,0.1-0.2,0.1-0.2,0c0-0.2,0-0.7-0.7-1c-0.9-0.3-1.5-0.9-1.6-1.4c0,0,0.1-0.4,0.3-0.9
			c0,0.4,0.3,1.4,1.2,1.7c0.3,0.1,0.6,0.1,1-0.2C3,26.9,2.3,26.6,2,26.1c-0.3-0.6-0.5-1.5,0.5-2.6c-0.2-0.3-0.2-0.7,0-1.1
			c0-0.1,0.1-0.1,0.2,0c0,0.2,0,0.8,0.7,1c0.7,0.2,1.3,0.6,1.6,1.4c0,0.1-0.3,0.9-0.3,0.9c0-0.2-0.1-1.3-1.2-1.7
			c-0.6-0.2-1,0.2-1.2,0.6c-0.5,1.2,0.3,1.8,1.1,1.7C3.8,26.2,4,25.9,4,25.5c0-0.4-0.2-0.7-0.5-0.8C3.1,24.6,3,24.8,2.9,25
			c-0.1,0.4,0,0.6,0.2,0.7C3.3,25.7,3.4,25.6,3.4,25.4L3.4,25.4z"/>
		<path class="st8" d="M4.5,20.9c0,0.1,0.1,0.1,0.2,0.2c0,0.1,0,0.2-0.1,0.3c-0.1,0-0.3,0-0.4-0.3C4.1,21,4,20.7,4.3,20.5
			c0.2-0.2,0.7-0.1,0.9,0.2c0.2,0.3,0.2,0.7-0.1,1.2c-0.3,0.4-1,0.4-1.4-0.1c-0.3-0.4-0.4-0.9-0.2-1.6c0.2-0.5,0.4-0.8,0.9-1.1
			c-0.1-0.4,0-0.7,0.2-1.1c0.1-0.1,0.2,0,0.1,0c0,0.2-0.2,0.7,0.6,1.1c0.8,0.5,1.3,1.1,1.3,1.6c0,0-0.2,0.4-0.4,0.8
			c0.1-0.4-0.1-1.4-0.9-1.9c-0.2-0.1-0.6-0.2-1,0C5.1,19.5,5.7,20,6,20.6c0.2,0.6,0.2,1.6-1,2.5c0.1,0.3,0.1,0.7-0.2,1
			c-0.1,0.1-0.2,0-0.1-0.1c0-0.2,0.1-0.8-0.6-1.1c-0.7-0.3-1.2-0.8-1.3-1.6c0.1-0.1,0.4-0.8,0.4-0.8c0,0.2-0.1,1.3,0.9,1.9
			c0.5,0.3,1.1,0,1.3-0.4c0.7-1.1,0-1.9-0.8-1.9c-0.4,0-0.6,0.3-0.7,0.7c-0.1,0.4,0.1,0.7,0.4,0.9c0.3,0.1,0.5,0,0.6-0.2
			c0.2-0.3,0.1-0.6-0.1-0.7C4.6,20.7,4.5,20.8,4.5,20.9L4.5,20.9z"/>
		<path class="st8" d="M7.1,17.1C7.1,17,7,17,7,16.9c0-0.1,0-0.2,0.1-0.3c0.1,0,0.3,0.1,0.4,0.3c0,0.2,0,0.5-0.3,0.7
			c-0.3,0.2-0.7,0-0.9-0.3c-0.2-0.3-0.1-0.8,0.3-1.2c0.4-0.4,1-0.3,1.4,0.3c0.2,0.4,0.3,1,0,1.6c-0.2,0.4-0.5,0.8-1,1
			c0.1,0.4-0.1,0.7-0.4,1c-0.1,0.1-0.2,0-0.1-0.1c0.1-0.2,0.3-0.7-0.4-1.2c-0.8-0.6-1.1-1.2-1.1-1.8c0,0,0.2-0.4,0.5-0.7
			c-0.1,0.3-0.1,1.4,0.7,2c0.2,0.1,0.6,0.3,1,0.1c-0.8,0-1.3-0.5-1.5-1.1c-0.1-0.7,0-1.6,1.3-2.3c-0.1-0.4,0-0.7,0.3-1
			c0.1,0,0.2,0,0.1,0.1c0,0.2-0.2,0.7,0.4,1.2c0.6,0.4,1,1,1.1,1.8c-0.1,0.1-0.5,0.7-0.5,0.7c0.1-0.2,0.3-1.3-0.7-2
			c-0.5-0.3-1.1-0.1-1.4,0.2c-0.8,1-0.2,1.9,0.6,1.9c0.4,0,0.6-0.2,0.8-0.6c0.1-0.4,0-0.7-0.3-0.9c-0.3-0.2-0.5-0.1-0.6,0.1
			c-0.2,0.3-0.2,0.5,0,0.7C7,17.3,7.1,17.2,7.1,17.1L7.1,17.1z"/>
		<path class="st8" d="M9.5,13.1c0,0.1,0.1,0.1,0.1,0.3c0,0.1-0.1,0.2-0.2,0.2c-0.1,0-0.3-0.1-0.3-0.4c0-0.2,0-0.5,0.4-0.6
			c0.3-0.1,0.7,0.1,0.9,0.5c0.1,0.3,0,0.8-0.4,1.1c-0.4,0.3-1.1,0.1-1.4-0.5c-0.2-0.5-0.1-1,0.3-1.6c0.3-0.4,0.6-0.7,1.2-0.8
			c0-0.4,0.2-0.7,0.5-1c0.1-0.1,0.2,0,0.1,0.1c-0.1,0.1-0.4,0.6,0.2,1.2c0.7,0.7,0.9,1.4,0.8,1.9c0,0-0.3,0.3-0.6,0.7
			c0.2-0.3,0.3-1.4-0.4-2c-0.2-0.2-0.5-0.4-1-0.3c0.8,0.1,1.2,0.7,1.3,1.3c0,0.7-0.2,1.6-1.6,2.1c0,0.4-0.2,0.7-0.5,0.9
			c-0.1,0-0.2,0-0.1-0.1c0.1-0.2,0.3-0.7-0.2-1.2C8,14.4,7.6,13.8,7.7,13c0.1-0.1,0.6-0.7,0.6-0.7c-0.1,0.2-0.5,1.2,0.4,2
			c0.5,0.4,1,0.3,1.4,0c0.9-0.8,0.5-1.8-0.3-2c-0.4-0.1-0.7,0.2-0.8,0.5c-0.2,0.3-0.1,0.7,0.1,0.9c0.3,0.2,0.5,0.2,0.7,0
			C10,13.5,10,13.2,9.8,13C9.7,12.9,9.5,13,9.5,13.1L9.5,13.1z"/>
		<path class="st8" d="M13.1,10.1C13.1,10,13,10,13,9.9c0-0.1,0.1-0.2,0.2-0.2c0.1,0,0.3,0.2,0.3,0.4c0,0.2-0.1,0.5-0.4,0.6
			c-0.3,0.1-0.7-0.1-0.8-0.6c-0.1-0.3,0.1-0.8,0.6-1c0.5-0.2,1.1,0,1.3,0.7c0.1,0.5,0,1-0.5,1.5c-0.3,0.3-0.7,0.6-1.3,0.6
			c0,0.4-0.3,0.7-0.6,0.9c-0.1,0.1-0.2,0-0.1-0.1c0.1-0.1,0.4-0.6-0.1-1.2c-0.6-0.7-0.8-1.5-0.6-2c0,0,0.3-0.3,0.7-0.6
			c-0.2,0.3-0.5,1.3,0.1,2.1c0.2,0.2,0.5,0.4,0.9,0.4c-0.8-0.2-1.1-0.9-1.1-1.4c0-0.7,0.5-1.5,1.9-1.9c0-0.4,0.2-0.7,0.6-0.9
			c0.1,0,0.2,0,0.1,0.1c-0.1,0.2-0.4,0.7,0.1,1.2c0.5,0.6,0.7,1.2,0.6,2c-0.1,0.1-0.7,0.6-0.7,0.6c0.1-0.2,0.6-1.1-0.1-2.1
			c-0.4-0.5-1-0.4-1.4-0.2c-1,0.7-0.7,1.7,0,2c0.3,0.1,0.7-0.1,0.9-0.4c0.2-0.3,0.2-0.7,0-0.9c-0.2-0.2-0.5-0.2-0.6-0.1
			c-0.3,0.2-0.3,0.5-0.2,0.7C12.9,10.3,13.1,10.3,13.1,10.1L13.1,10.1z"/>
		<path class="st8" d="M16.5,6.9c0,0.1,0,0.1,0,0.3c0,0.1-0.1,0.2-0.2,0.2c-0.1,0-0.2-0.2-0.2-0.4c0-0.2,0.2-0.4,0.5-0.5
			c0.3,0,0.7,0.3,0.7,0.7c0,0.3-0.2,0.8-0.7,0.9c-0.5,0.2-1.1-0.2-1.1-0.9c0-0.5,0.2-1,0.7-1.4c0.4-0.3,0.8-0.5,1.4-0.4
			c0.1-0.4,0.4-0.6,0.8-0.8c0.1,0,0.2,0.1,0.1,0.1c-0.1,0.1-0.5,0.5-0.1,1.2c0.4,0.8,0.5,1.6,0.3,2.1c0,0-0.4,0.2-0.8,0.5
			c0.3-0.3,0.7-1.2,0.2-2.1c-0.1-0.2-0.4-0.5-0.9-0.6c0.7,0.3,1,1,0.9,1.6c-0.1,0.7-0.7,1.4-2.1,1.6c-0.1,0.4-0.4,0.6-0.7,0.8
			c-0.1,0-0.2,0-0.1-0.1c0.1-0.1,0.5-0.6,0.1-1.2c-0.4-0.7-0.5-1.3-0.3-2.1c0.1-0.1,0.8-0.5,0.8-0.5c-0.1,0.2-0.8,1-0.2,2.1
			c0.3,0.5,0.9,0.6,1.3,0.4c1.1-0.5,1-1.6,0.3-2c-0.3-0.2-0.7,0-0.9,0.2c-0.3,0.3-0.3,0.6-0.1,0.9c0.2,0.3,0.4,0.3,0.6,0.2
			c0.3-0.2,0.4-0.4,0.3-0.6C16.7,6.8,16.6,6.8,16.5,6.9L16.5,6.9z"/>
		<path class="st8" d="M20.8,5.1c0.1-0.1,0-0.1,0-0.3c0-0.1,0.1-0.2,0.3-0.1c0.1,0.1,0.2,0.2,0.2,0.5c-0.1,0.2-0.2,0.4-0.6,0.4
			c-0.3,0-0.6-0.3-0.6-0.8c0-0.3,0.3-0.7,0.8-0.8c0.5-0.1,1,0.3,1,1c0,0.5-0.3,1-0.9,1.3c-0.4,0.2-0.8,0.4-1.4,0.2
			c-0.1,0.4-0.5,0.6-0.9,0.7c-0.1,0-0.1-0.1-0.1-0.1C18.9,7,19.3,6.7,19,5.9c-0.3-0.9-0.3-1.7,0-2.1c0,0,0.4-0.2,0.8-0.4
			c-0.3,0.2-0.9,1.1-0.5,2c0.1,0.2,0.3,0.6,0.8,0.7c-0.7-0.4-0.8-1.1-0.7-1.7c0.2-0.6,0.9-1.3,2.3-1.3c0.1-0.3,0.4-0.6,0.8-0.7
			c0.1,0,0.2,0.1,0.1,0.1c-0.1,0.1-0.6,0.5-0.3,1.2c0.3,0.7,0.4,1.4,0,2.1c-0.1,0-0.8,0.4-0.8,0.4c0.2-0.2,0.9-0.9,0.5-2
			c-0.2-0.6-0.8-0.7-1.3-0.5c-1.2,0.4-1.2,1.5-0.6,1.9c0.3,0.2,0.7,0.1,1-0.1c0.3-0.2,0.4-0.6,0.3-0.9c-0.2-0.3-0.4-0.3-0.6-0.3
			c-0.3,0.1-0.4,0.4-0.4,0.6C20.6,5.2,20.7,5.2,20.8,5.1L20.8,5.1z"/>
		<path class="st8" d="M25,3c-0.1,0.1,0,0.1,0,0.3c-0.1,0.1-0.2,0.1-0.3,0.1c-0.1-0.1-0.2-0.3-0.1-0.5c0.1-0.2,0.3-0.4,0.6-0.3
			c0.3,0.1,0.6,0.4,0.5,0.8c-0.1,0.3-0.4,0.7-1,0.7c-0.5,0-1-0.5-0.9-1.2C24,2.4,24.3,2,24.9,1.8c0.5-0.2,0.9-0.3,1.4,0
			c0.2-0.3,0.5-0.5,0.9-0.5c0.1,0,0.1,0.1,0.1,0.1c-0.2,0.1-0.6,0.3-0.5,1.2c0.2,0.9,0,1.7-0.3,2.1c0,0-0.4,0.1-0.9,0.2
			c0.3-0.2,1-1,0.8-1.9c-0.1-0.3-0.2-0.6-0.7-0.8c0.6,0.5,0.7,1.3,0.4,1.8c-0.3,0.6-1.1,1.2-2.5,0.9c-0.2,0.3-0.5,0.5-0.9,0.5
			c-0.1,0-0.1-0.1,0-0.1C22.9,5,23.4,4.7,23.2,4C23,3.2,23,2.6,23.5,1.9c0.1,0,0.9-0.2,0.9-0.2c-0.2,0.1-1.1,0.8-0.8,1.9
			c0.2,0.6,0.7,0.8,1.2,0.7c1.2-0.2,1.4-1.3,0.8-1.8c-0.3-0.3-0.6-0.2-1-0.1c-0.3,0.2-0.5,0.5-0.4,0.9c0.1,0.3,0.3,0.4,0.5,0.4
			c0.4-0.1,0.5-0.3,0.4-0.5C25.2,2.9,25.1,2.9,25,3L25,3z"/>
		<path class="st8" d="M29.6,2.5c0.1-0.1,0-0.1,0.1-0.3c0.1-0.1,0.2-0.1,0.3-0.1c0.1,0.1,0.1,0.3,0,0.5c-0.1,0.2-0.3,0.3-0.7,0.3
			C29,2.8,28.8,2.4,29,2c0.1-0.3,0.5-0.6,1-0.6c0.5,0.1,0.9,0.6,0.7,1.3c-0.2,0.4-0.6,0.8-1.2,1c-0.5,0.1-0.9,0.1-1.4-0.2
			c-0.2,0.3-0.6,0.4-1,0.4C27,3.9,27,3.8,27,3.8c0.2-0.1,0.7-0.3,0.6-1.1c-0.1-0.9,0.2-1.7,0.6-2c0,0,0.4-0.1,0.9-0.1
			c-0.3,0.1-1.2,0.8-1,1.8c0,0.3,0.1,0.6,0.6,0.9c-0.5-0.6-0.5-1.3-0.1-1.8c0.4-0.6,1.2-1,2.6-0.6c0.2-0.3,0.6-0.4,1-0.4
			c0.1,0,0.1,0.1,0,0.2C32,0.7,31.4,1,31.5,1.7c0.1,0.8,0,1.4-0.6,2c-0.1,0-0.9,0.1-0.9,0.1c0.2-0.1,1.2-0.6,1-1.8
			C31,1.4,30.5,1.1,30,1.2c-1.3,0-1.5,1.1-1.1,1.7c0.2,0.3,0.6,0.3,0.9,0.2c0.3-0.1,0.5-0.5,0.5-0.8c-0.1-0.3-0.3-0.4-0.5-0.4
			c-0.4,0-0.5,0.2-0.5,0.5C29.4,2.5,29.5,2.6,29.6,2.5L29.6,2.5z"/>
		<path class="st11" d="M33.8,36.4c0-0.1,0.1-0.1,0.2,0c0,0.1,0,0.3,0.3,0.3c0.2,0,0.2-0.2,0.2-0.3c0-0.1,0.1-0.1,0.1,0
			c0.1,0.2,0.2,0.5-0.1,0.8c0,0.1,0,0.3,0,0.3c0,0.1-0.2,0.1-0.4,0.1c-0.1,0-0.1,0.1,0,0.1c0,0,0.3,0.1,0.4,0c0.2-0.1,0.3-0.1,0.5,0
			c0.4,0.1,0.9,0.5,1,1.3c0,0,0.2,1.5,0.2,2.1c0,0.3,0.2,0.9,0.6,1.2c0.3,0.3,0.8,0.7,0.9,1.4c-1.4-1.3-5.5-1.3-7,0
			c0.1-0.7,0.6-1.1,0.9-1.4c0.4-0.4,0.6-0.9,0.6-1.2c0,0,0.2-1.6,0.2-2.1c0.1-0.8,0.7-1.2,1-1.3c0.2-0.1,0.5-0.1,0.5-0.2
			c0-0.1,0-0.3,0-0.3C33.8,37.1,33.7,36.8,33.8,36.4L33.8,36.4z"/>
		<path class="st4" d="M32.7,42.8c0.2,0,1.9-0.4,3.5,0.1c0.4,0.1,1.1,0.4,1.5,0.7c0,0.2,0,0.5-0.1,0.7c-0.6,0.5-1.4,1-3.2,1
			c-2.1,0-2.9-0.4-3.5-1c-0.3-0.3-0.1-0.6,0-0.8C31.2,43.3,31.9,43,32.7,42.8L32.7,42.8z"/>
		<path class="st11" d="M32.5,43c1.2-0.2,2.3-0.2,3.4,0c0,0,1.1,0.3,1.6,0.7c0.3,0.2,0.3,0.5,0,0.7c-0.2,0.1-0.6,0.5-1.6,0.8
			c-1,0.2-2.2,0.2-3.4,0c-0.9-0.2-1.2-0.5-1.6-0.8c-0.2-0.3-0.3-0.5,0-0.7c0.1-0.1,0.2-0.1,0.2-0.2c0,0,0.1,0.1,0.2,0.2
			c-0.4,0.1-0.3,0.5,0.7,0.8c0.8,0.3,1.3,0.4,2.7,0.4c1.4-0.1,2-0.6,2.4-0.9c0.1-0.1,0-0.1-0.1-0.1c-0.1,0.1-0.4,0.3-0.6,0.4
			c-0.1,0.1-0.6,0.1-0.8,0.1c0.3-0.1,0.6-0.2,0.7-0.3c0,0,0-0.1-0.1-0.1c-0.5,0-0.8,0-1,0C35.1,44.1,35,44,35,44
			c-0.1-0.1-0.1-0.4-0.1-0.5c0-0.2-0.1-0.1-0.1,0c0,0.3,0.1,1-0.7,0.9c-0.2,0-0.2-0.1-0.1-0.2c0.3-0.2,0.3-1-0.3-0.9
			c-0.4,0.1-0.6,0.9,0.1,1.3c0.2,0.1,0.7,0.1,1.1,0.1c0.5-0.1,1-0.1,1.3-0.1c-0.5,0.2-0.9,0.4-2.1,0.4c-1.1,0-1.5-0.1-2.1-0.4
			c-0.6-0.2-1.1-0.6-0.7-0.7c0.2,0.2,0.7,0.5,1.1,0.5c0.2,0,0.4,0.1,0.8,0c0.1,0,0.1-0.1,0-0.1c0,0-1-0.3-1.5-1
			C31.9,43.2,32.2,43.1,32.5,43L32.5,43z"/>
		<path class="st4" d="M34.7,38.7c0-0.1,0-0.4,0.2-0.4c0.2,0,0.4,0.2,0.4,0.4C35.1,38.7,34.7,38.7,34.7,38.7L34.7,38.7L34.7,38.7z"
			/>
		<path class="st4" d="M34.7,39.1c0.2,0,0.5,0,0.7,0c0,0,0.2,1.3,0.3,2.3c-0.3,0-0.5,0-0.9,0L34.7,39.1L34.7,39.1z"/>
		<path class="st4" d="M34.9,41.8c0.1,0.1,0.1,0.5,0.2,0.7c0.6,0.1,1,0.2,1.5,0.4c-0.1-0.2-0.4-0.7-0.8-1
			C35.5,41.8,35.2,41.8,34.9,41.8L34.9,41.8z"/>
		<path class="st4" d="M33.5,38.8c-0.2,0.3-0.3,0.7-0.4,1.7c-0.1,0.5-0.1,0.8-0.2,1c0,0,0.5-0.1,0.7-0.1
			C33.6,41.1,33.6,39.3,33.5,38.8L33.5,38.8z"/>
		<path class="st4" d="M31.4,42.5c0.1-0.1,0.5-0.4,1.2-0.5c0.5-0.1,0.7-0.1,1.1-0.1c0.1,0,0.2,0.1,0.2,0.2c0,0.2,0,0.6,0,0.6
			c-0.6,0-2.2,0.2-3.2,1C30.7,43.4,31,42.8,31.4,42.5L31.4,42.5z"/>
		<path class="st11" d="M28,30.3c3.3-1.9,9.1-2,12.6,0v1.2l-0.4,0.3v0.7c0.1,0.1,0.3,0.2,0.4,0.4v1.7c-0.1,0.3-0.7,1.3-3.9,1.8
			c-1.4,0.2-3.7,0.2-5,0c-2.5-0.5-3.5-1.4-3.7-1.8c0-0.4,0-1.7,0-1.7c0.1-0.1,0.3-0.3,0.4-0.4c0-0.2,0-0.7,0-0.7L28,31.5
			C28,31.2,28,30.3,28,30.3L28,30.3z"/>
		<path class="st4" d="M40.2,32.3c-3.1-1.7-8-1.8-11.8,0l0,0.2c-0.2,0.1-0.3,0.3-0.4,0.4l0,1.6c0.1,0.2,0.3,0.3,0.5,0.5
			c0.3-0.1,5-1.6,5-1.6c-0.3,0-1.4-0.2-1.4-0.2c-0.3,0.1-3.9,1.2-3.9,1.2s0.3-0.7,1.4-1.1c0.3,0.1,0.6,0.1,0.6,0.1
			c0.3-0.1,2.6-0.8,2.6-0.8c1.2-0.1,3.7-0.4,6,0.6l-4.2,1.2c-0.2-0.2-0.5-0.1-0.6,0.1l-2,0.6c0.5,0.1,1.7,0.3,1.7,0.3
			c0.2-0.1,0.4-0.1,0.4-0.1c0,0.1,0,0.2,0,0.3c-0.4,0.1-2,0.6-2,0.6c0.2,0,0.8,0.1,1,0.1c0-0.1,0-0.2,0-0.2c0.2-0.1,1-0.3,1-0.3
			c0,0.1,0,0.1,0,0.2c-0.1,0-0.3,0.1-0.3,0.3c0.1,0,0.1,0,0.2,0c0-0.1,0.2-0.2,0.2,0c0,0,0.3,0,0.5,0c0-0.1,0.1-0.2,0.2,0
			c0.4,0,1.3-0.1,1.7-0.1c-0.1,0-0.3,0-0.4,0c0.1,0,2.9-0.9,3-1c-0.1,0-0.3-0.1-0.4-0.1c-0.6,0.2-3.2,1.1-3.5,1.2
			c-0.1,0-0.2,0-0.3,0c-0.1-0.2-0.1-0.2-0.2-0.3l0-0.3c0.2-0.1,3.1-0.9,3.1-0.9c-0.2-0.1-0.5-0.1-0.5-0.1c-0.3,0.1-2.6,0.8-2.6,0.8
			c0-0.1,0-0.2,0-0.3c0.3-0.1,5.3-1.5,5.3-1.5c0.3,0.1,0.6,0.4,0.7,0.5c0-0.1,0-0.3,0-0.3c-0.4-0.3-1.4-0.8-2.1-1.1
			c0-0.2,0-1.2,0-1.2s-0.3-0.1-1-0.3c0,0.2,0,1.2,0,1.2s-0.5-0.1-0.9-0.1c0-0.3,0-1.2,0-1.2c0,0-0.1,0-0.1,0l0,1.2
			c-0.1,0-0.2,0-0.2,0l0-1.2c-0.3,0-0.7-0.1-1.2-0.1l0,1.2c-0.9,0-3.1,0.1-4.7,0.6v-1.2c-0.2,0-0.3,0.1-0.5,0.2l0,1.2
			c-0.1,0.1-0.3,0.1-0.5,0.2l0-1.2c3.1-1.2,7.5-1.5,10.9,0.3L40.2,32.3L40.2,32.3z"/>
		<path class="st4" d="M29.8,29.5c0.2-0.1,0.3-0.1,0.5-0.1c0,0.2,0,1.2,0,1.2c1.4-0.4,2.9-0.5,4.8-0.5l0-1.2c0.4,0,0.8,0.1,1.2,0.1
			c0,0.3,0,1.3,0,1.3c0.1,0,0.2,0,0.2,0c0-0.2,0-1.2,0-1.2l0.2,0c0,0.2,0,1.2,0,1.2c0.2,0,0.7,0.1,0.8,0.1c0-0.3,0-1.2,0-1.2
			s0.7,0.2,1,0.3c0,0.2,0,1.2,0,1.2s1.4,0.4,2,0.9l-0.4,0.3c-3-1.6-7.8-1.8-11.7,0L28,31.5c0-0.4,0-1.2,0-1.2
			c0.5-0.3,0.8-0.4,1.3-0.6c0,0.3,0,1.2,0,1.2c0.2-0.1,0.5-0.2,0.5-0.2C29.8,30.5,29.8,29.5,29.8,29.5L29.8,29.5z"/>
		<path class="st11" d="M34.1,34.8c0-0.2,0.3-0.2,0.4,0l0,1.5c0,0.2-0.3,0.2-0.3,0C34.1,36,34.1,34.8,34.1,34.8L34.1,34.8z"/>
		<path class="st11" d="M31.8,28.8c-0.2-1.2-0.6-6.7-5.7-6.4c-2.4,0.2-3.4,2.5-3.5,3.9l-0.5,14.1c-0.1,0.2-0.2,0.5-0.3,0.7
			c0,0.2-0.3,10-0.3,10c0.2,0.2,0.8,0.6,0.8,0.6l0.2-9.9c0-0.4,0-0.6-0.2-0.9c-0.2-0.2,0.1-0.3,0.1-0.2c0.1,0.1,0.3,0.3,0.3,0.8
			c0,0.2-0.2,10.3-0.2,10.3c0.1,0,0.2,0.1,0.2,0.1c0-0.3,0.3-10.8,0.3-10.8c0-0.3-0.2-0.7-0.2-0.7l0.5-13.9c0-1.1,0.7-3.3,2.8-3.5
			c1.2,0,4.4-0.1,4.9,5.9C31.4,28.9,31.5,28.9,31.8,28.8L31.8,28.8z"/>
		<path class="st11" d="M37.1,28.9c0.2-1.2,0.6-6.7,5.7-6.4c2.4,0.2,3.4,2.5,3.5,3.9l0.5,14.1c0.1,0.2,0.2,0.5,0.3,0.7
			c0,0.2,0.3,10,0.3,10c-0.1,0.1-0.2,0.1-0.2,0.1l-0.3-9.5c0-0.4-0.1-0.8-0.3-0.9c-0.2-0.1-0.3,0.1-0.2,0.1c0.1,0.1,0.2,0.1,0.3,0.6
			c0,0.3,0.3,9.9,0.3,9.9c-0.1,0-0.8,0.5-0.8,0.5c0-0.3-0.3-10.8-0.3-10.8c0-0.3,0.2-0.7,0.2-0.7l-0.5-13.9c0-1.1-0.7-3.3-2.8-3.5
			c-1.2,0-4.4-0.1-4.9,5.9C37.6,29,37.3,28.9,37.1,28.9L37.1,28.9z"/>
		<path class="st11" d="M29.8,29.3c-0.1-0.3-0.3-1.9-2.3-1.9c-0.8,0-2.4,0.9-2.5,3.1l-0.4,15.7c-0.1,0.2-0.3,0.6-0.3,0.6l-0.1,5.7
			c0.1,0,0.9,0.3,0.9,0.3c0-0.2,0.1-5.6,0.1-5.6c0-0.2,0-0.4-0.3-0.6c-0.1-0.1,0-0.2,0.1-0.2c0.1,0.1,0.4,0.2,0.4,0.6
			c0,0.4-0.1,5.8-0.1,5.8c0.1,0,0.2,0,0.2,0c0-0.2,0.1-6.1,0.1-6.1c-0.1-0.1-0.3-0.6-0.3-0.6c0-0.2,0.4-15.5,0.4-15.5
			c0-0.4,0.1-2.4,1.9-2.6c0.8-0.1,1.4,0.7,1.5,1.4C29.4,29.5,29.8,29.3,29.8,29.3L29.8,29.3z"/>
		<path class="st11" d="M38.9,29.4c0.1-0.3,0.3-1.9,2.3-1.9c0.8,0,2.4,0.9,2.5,3.1l0.4,15.7c0.1,0.2,0.3,0.6,0.3,0.6l0.1,6
			c-0.1,0-0.2,0.1-0.2,0.1c0-0.2-0.1-5.6-0.1-5.6c0-0.2-0.1-0.5-0.4-0.6c-0.2,0-0.2,0.1-0.1,0.2c0.1,0.1,0.2,0.1,0.3,0.5
			c0,0.4,0.1,5.7,0.1,5.7c-0.2,0.1-0.8,0.2-0.9,0.3c0-0.2,0-6.4,0-6.4c0-0.1,0.3-0.6,0.3-0.6c0-0.2-0.4-15.5-0.4-15.5
			c0-0.4-0.1-2.4-1.9-2.6c-0.8-0.1-1.4,0.8-1.5,1.5C39.3,29.5,38.9,29.4,38.9,29.4L38.9,29.4z"/>
		<path class="st4" d="M22.5,40.9c0-0.1,0.1-0.2,0.2-0.1c0.1,0.1,0.3,0.4,0.3,0.8c0,0.1-0.1,2.6-0.1,2.6c-0.1,0-0.2,0-0.2,0
			c0-0.1,0.1-2.5,0.1-2.5C22.7,41.5,22.7,41.1,22.5,40.9L22.5,40.9z"/>
		<path class="st4" d="M46.3,41c-0.1-0.1,0-0.2,0.1-0.1c0.1,0,0.3,0.2,0.3,0.9c0,0.2,0.1,2.5,0.1,2.5c-0.1,0-0.2,0-0.2,0
			c0-0.1-0.1-2.5-0.1-2.5C46.5,41.6,46.5,41.1,46.3,41L46.3,41z"/>
	</g>
</g>
</svg>
