<svg version="1.2" baseProfile="tiny-ps" xmlns="http://www.w3.org/2000/svg" viewBox="0 0 1555 1231" width="1555" height="1231">
	<title>Micron_Technology_logo (1)-svg</title>
	<defs>
		<clipPath clipPathUnits="userSpaceOnUse" id="cp1">
			<path d="M0.41 -0.21L0.41 1232.04L4463.96 1232.04L4463.96 -0.21" />
		</clipPath>
		<clipPath clipPathUnits="userSpaceOnUse" id="cp2">
			<path d="M0.79 0.79L4463.04 0.79L4463.04 1230.93L0.79 1230.93L0.79 0.79L0.79 0.79Z" />
		</clipPath>
		<clipPath clipPathUnits="userSpaceOnUse" id="cp3">
			<path d="M-1834.59 -1655.08L21566.44 -1655.08L21566.44 28639.46L-1834.59 28639.46L-1834.59 -1655.08Z" />
		</clipPath>
	</defs>
	<style>
		tspan { white-space:pre }
		.shp0 { fill: #ffffff } 
	</style>
	<g id="layer1">
		<g id="g7589">
			<g id="Clip-Path: g7591" clip-path="url(#cp1)">
				<g id="g7591">
					<g id="Clip-Path: g7597" clip-path="url(#cp2)">
						<g id="g7597">
							<g id="Clip-Path: g7603" clip-path="url(#cp3)">
								<g id="g7603">
									<g id="g7623">
									</g>
									<g id="g7627">
										<path id="path7629" class="shp0" d="M1109.2 747.82L1109.16 958.13L1301.08 958.13L1301.08 574.17C1245.48 631.54 1181.36 689.95 1109.2 747.82Z" />
									</g>
									<g id="g7631">
										<path id="path7633" class="shp0" d="M1301.08 574.17C1512.41 356.06 1599.94 153.33 1531.8 55.75C1460.68 -46.15 1239.7 -4.87 953.27 146.52C940.46 152.8 929.11 159.45 920.73 165.23C906.89 174.83 914.96 181.83 925.17 178.12C935.64 174.33 947.57 169.74 961.03 163.12C1175.73 61.26 1343.21 42.98 1408.67 114.09C1508.43 222.37 1304.13 577.26 950.37 839.78C903.14 874.82 830.26 926.11 782.81 954.61C779.6 956.6 776.43 958.55 773.33 960.54C760.79 968.76 749.62 976.41 740.83 983.3C732.26 989.95 733.91 1000.55 749.35 993.89C758.76 989.87 770.19 983.79 782.35 976.33C785.11 974.65 787.82 973.12 790.69 971.36C844.03 938.96 923.22 884.26 977.32 846.47C1023.86 813.96 1067.83 780.95 1109.2 747.82C1181.36 689.95 1245.48 631.5 1301.08 574.17Z" />
									</g>
									<g id="g7635">
										<path id="path7637" class="shp0" d="M359.03 1232.04L550.94 1232.04L550.94 1033.1C603.4 1002.08 656.51 968.07 708.71 932.46C720.45 924.39 730.85 916.36 738.38 909.47C750.81 898.11 741.82 892.26 732.22 897.31C722.36 902.51 710.7 909.55 698.08 917.58C401.63 1107.27 201.49 1165.14 127.58 1064.77C63.38 977.63 168.61 809.18 359.03 618.92L359.03 1060.52C413.06 1042.16 476.92 1012.9 550.9 971.74L550.87 562.04L593.08 651.89C639.35 751.11 723.31 810.44 830.07 810.44C936.79 810.44 1020.76 751.11 1067.03 651.89L1109.24 562.04L1109.2 666.58C1177.88 599.95 1236.49 533.43 1280.96 469.09C1286.51 461.13 1286.01 454.44 1282.99 447.1C1253.39 385.32 1190.42 342.75 1117.23 342.75C1044.85 342.75 981.99 384.75 951.86 445.49L871.56 615.9C863.26 632.5 847.97 641.72 830.07 641.72C812.22 641.72 796.84 632.5 788.55 615.9L708.25 445.49C692.95 414.62 669.17 388.61 640 370.48C698.73 323.85 755.82 282.2 812.02 248.08C824.8 240.31 835.27 232.55 844.11 225.78C852.78 219.16 851.18 208.57 835.69 215.07C826.29 219.01 814.09 225.01 801.89 232.43C744.46 267.24 685.77 302.85 629.63 341.22C622.83 345.85 616.1 350.51 609.37 355.18C588.72 347.15 566.31 342.75 542.87 342.75C441.16 342.75 359.03 424.95 359.03 526.7L359.03 552.02C87.93 793.84 -54.39 1033.29 19.98 1139.89C74.59 1218.08 204.06 1200.02 359.03 1132.66L359.03 1232.04Z" />
									</g>
									<g id="g7639">
									</g>
								</g>
							</g>
						</g>
					</g>
				</g>
			</g>
		</g>
	</g>
</svg>