<?xml version="1.0" encoding="UTF-8"?>
<svg
  id="logosandtypes_com"
  data-name="logosandtypes com"
  xmlns="http://www.w3.org/2000/svg"
  viewBox="0 0 150 150"
  class="fill-current text-black dark:text-white"
>
  <defs>
    <style>
      .cls-1 {
        fill: none;
      }
    </style>
  </defs>
  <g id="Layer_3" data-name="Layer 3">
    <g id="Layer_3-2" data-name="Layer 3">
      <g id="Layer_2" data-name="Layer 2">
        <path id="Layer_3-3" data-name="Layer 3" class="cls-1" d="M0,0H150V150H0V0Z" />
      </g>
    </g>
  </g>
  <path
    fill="currentColor"
    d="M145.53,20.17c-6.71-9.62-27.54-5.75-54.54,8.55-1.07,.51-2.09,1.1-3.07,1.76-1.3,.92-.54,1.55,.42,1.24s2.11-.84,3.39-1.44c20.24-9.58,36.02-11.34,42.2-4.63,9.4,10.22-9.85,43.64-43.21,68.4-4.45,3.31-11.32,8.15-15.79,10.82-.31,.2-.6,.4-.9,.56-1.06,.66-2.08,1.38-3.06,2.16-.8,.6-.68,1.6,.81,1,1.07-.49,2.11-1.05,3.11-1.68,.27-.15,.53-.31,.78-.48,5.03-3.03,12.5-8.19,17.61-11.74,4.38-3.07,8.53-6.19,12.43-9.31v19.81h18.09v-36.18c19.89-20.56,28.11-39.65,21.73-48.83Z"
  />
  <path
    id="path22"
    fill="currentColor"
    d="M34.96,131.01h18.1v-18.77c4.94-2.91,9.95-6.11,14.87-9.46,.99-.66,1.92-1.4,2.8-2.2,1.17-1.04,.33-1.6-.58-1.12s-2.04,1.16-3.22,1.91c-27.95,17.85-46.83,23.32-53.79,13.85-6.05-8.23,3.87-24.08,21.82-42.01v41.61c5.1-1.72,11.13-4.51,18.09-8.38v-38.6l3.98,8.5c4.36,9.35,12.27,14.93,22.34,14.93s17.97-5.59,22.34-14.93l3.98-8.5v9.86c5.98-5.67,11.4-11.9,16.19-18.6,.45-.6,.51-1.41,.17-2.08-4.17-8.64-14.56-12.27-23.2-8.1-3.48,1.68-6.31,4.47-8.02,7.94l-7.57,16.05c-1.03,2.16-3.61,3.08-5.77,2.05-.9-.43-1.62-1.15-2.05-2.05l-7.57-16.05c-1.45-2.91-3.68-5.35-6.44-7.07,5.17-4.17,10.59-8.03,16.22-11.54,1.05-.63,2.06-1.33,3.02-2.08,.81-.64,.68-1.64-.79-1-1.1,.46-2.17,1-3.18,1.64-5.43,3.27-10.95,6.63-16.24,10.22l-1.91,1.32c-8.96-3.43-19,1.05-22.43,10.01-.75,1.97-1.14,4.05-1.15,6.16v2.4C9.41,89.68-4.01,112.28,3,122.3c5.15,7.38,17.36,5.67,31.96-.68v9.39"
  />
</svg>
