<svg xmlns="http://www.w3.org/2000/svg" xml:space="preserve" id="圖層_1" width="68.8" height="68.8" x="0" y="0" version="1.1"><style>.st2{fill:#70383b}.st4{fill:#fff}.st8{fill:#bd9c26}.st9{fill:#fafafa}.st11{fill:#342b2b}</style><path d="M68.7 34.4c0 18.9-15.4 34.3-34.3 34.2C15.5 68.6.1 53.2.2 34.3.2 15.4 15.6 0 34.5.1c18.8 0 34.2 15.4 34.2 34.3" class="st2"/><path d="M68.7 34.4c0 18.9-15.4 34.3-34.3 34.2C15.5 68.6.1 53.2.2 34.3.2 15.4 15.6 0 34.5.1c18.8 0 34.2 15.4 34.2 34.3z" style="fill:none;stroke:#bd9c26;stroke-width:.26 38"/><path d="M65.2 34.4c0 17-13.8 30.8-30.8 30.8S3.6 51.4 3.6 34.4 17.4 3.6 34.4 3.6s30.8 13.8 30.8 30.8" class="st4"/><path d="M65.2 34.4c0 17-13.8 30.8-30.8 30.8S3.6 51.4 3.6 34.4 17.4 3.6 34.4 3.6s30.8 13.8 30.8 30.8z" style="fill:none;stroke:#bd9c26;stroke-width:.1979"/><path d="M57.7 34.4c0 12.9-10.5 23.3-23.3 23.3-12.9 0-23.3-10.5-23.3-23.3 0-12.9 10.5-23.3 23.3-23.3 12.9 0 23.3 10.5 23.3 23.3z" style="fill:none;stroke:#c39c2a;stroke-width:.1319"/><path d="M56.7 34.4c0 12.3-9.9 22.3-22.2 22.3s-22.3-9.9-22.3-22.2 9.9-22.3 22.2-22.3c12.3-.1 22.3 9.9 22.3 22.2" class="st2"/><path d="M55.2 27.6c-1.6-4.8-6.7-7.5-11.6-6-.1-5-4.2-9.1-9.3-9.1-5 0-9.1 4-9.3 9-4.8-1.4-9.9 1.2-11.4 6-1.6 4.8 1 9.9 5.7 11.6-2.9 4.1-1.9 9.8 2.2 12.8S31.3 54 34.3 50c3 4 8.7 4.9 12.8 1.9s5-8.7 2.2-12.8c4.8-1.5 7.4-6.7 5.9-11.5" style="fill:#fffad9"/><path d="M34.8 13.9c.1.4 0 3.2-.1 4.4v5.5c.1-.5.2-.7.1-1.2.2.1.3.4.3.7.1-.5.4-1.7 0-2.9.2.1.5.2.6 1.8.1-.5.4-2.3-.3-2.6 0 0 .6.2.7.7.1-.6.2-1 .4-1.2-.1.6 0 1.3 0 1.6.2-.8.5-2 1.1-2.5-.3.6-.6 1.5-.7 2.4 0 0 .3-.6.4-1.5 0 0 .1.5.1.7.1-.4.5-1.5.8-1.9.2-.5.2-.4.3-.7 0 .3-.1.5-.2.9-.1.3-.3 1.3-.4 1.6.3-.7 1.1-2.1 1.7-2.5-.3.5-.7.9-1.2 2.5-.5.5-2.2 2.1-3.2 4.4-.4.9-.5 3.2-.5 4.9 0 0 .2-.5.4-.8 0-.7-.2-1.9-.4-2.2.4.4.7.7.7 1.4 0-1.1-.2-2.5-.5-3 .4.6.6.8.6 1.2.1-.6 0-.7 0-1 .2.3.4.6.5 1.2-.1-1-.1-1.8.4-2.6-.2.7-.3 1.6-.1 2.1.1.3.2.3.2-.2s-.1-1.4.8-2.8c-.2.8-.4 1.1-.3 2.2.3-.8 1-2.6 1.6-3-.3.6-.8 1.6-1 2.5.2-.3.5-.7.5-.8.2-.5.7-1.6 1.6-2.2-.3.4-1 1.5-1.2 2.1.5-.7 1.5-1.7 2.9-2-.6.4-1.7 1.3-2.5 2.1.9-.3 1.3-.5 2-.2-.5 0-1.6.3-2.1.6.5-.1 1-.2 1.4.1-.4 0-1.7.3-2.3.7.5-.1 1.3-.4 1.6-.1-.4 0-1.5.3-2.1.8.6-.2 1-.3 1.4-.4-.6.3-1.4.8-2 1.3.6-.3 1.4-.7 2-.6-.5.2-1.7.7-2.1 1.1.7-.4 1.3-.6 2.2-.6-.6.2-2.2.8-2.9 1.7.4-.2.9-.5 1.5-.4-.4.2-2.7.8-2.6 4 .3-.4 1.1-1.4 1.6-1.7.1-.7.2-1.7.6-2-.1.5-.2 1.1-.1 1.6 0 .2.2.1.2-.1 0-.4.2-1.7.8-2.5-.2.5-.4 1.2-.4 2.1 0 .3.2.2.3-.1 0 0 .2-1.8.8-2.3-.1.5-.3 1.3-.3 1.8 0 .2.3 0 .3-.4.1-.5.4-1.6 1.2-2.5-.3.7-.6 1.2-.7 2.2 0 .2-.2.5.2-.1.2-.5.5-2 2-3.1-.4.4-.9 1.4-1.3 2.6-.2.5-.1.4.4-.2.3-.7 1.5-2.7 2.2-3 0 0-1.2 1.6-1.5 2.6-.1.3 0 .3.4-.3s1-2.2 2.4-2.8c-.4.4-1.4 1.7-1.6 2.3-.1.3.2.1.2.1.1-.1.3-.4.5-.7.3-.5 1.4-1.8 2.3-2.1-.4.3-1.3 1.1-1.9 2.3.3-.1.6-.3.8-.6.3-.3 1.2-1.5 2.3-1.7 0 0-1.5 1-1.9 1.8-.3.2-.5.4 0 .2.2-.2.7-.4.9-.7.2-.2 1.3-1.2 2.4-1.2-.5.2-1.6.9-2.3 1.5.2 0 .3-.1.6-.3s1.8-1.2 3-.9l-1.2.3c-.3.1-.7.4-1.2.7 0 0 2.8-.9 3.4-.1-.3-.1-.9-.2-1.7.1.7.1 3.2.3 4 1.4-.5-.2-1.8-.9-3.4-.9.7.4 1.3 1.2 1.4 1.6 0 0-1.4-1.3-2.4-1.6.5.2 1.6.8 1.9 2.1-.3-.4-1.5-1.7-2.7-2 .4.2 1.8 1.1 2.1 2.4-.4-.5-1.8-2-2.8-2.1.7.5 1.7 1 2.1 2.1-.3-.2-.7-.7-.8-.9-1.1-.8-2.6-1.2-2.4-1 0 0 2.6 1.2 2.6 2.5-.5-.8-.7-.9-.8-1-.8-.3-1.2-1-2.7-1.2 0 0 1.6.7 2.6 2.1 0 0-2.2-1.9-3.6-1.7 0 0 2.6.6 2.7 2.6-.2-.3-1.4-2.2-3.3-2.2 1.2.4 1.8.7 2.4 1.7 0 .3 0 1.1-.2-.2-.3 0-.5-.3-.9-.5-.4-.3-1.5-.6-2.2-.4.7.2 2.2.7 2.6 1.6.3.3.5.5.5.7-.3-.3-.6-.6-.7-.8-.2-.1-.6-.4-.7-.5-.3-.1-.6-.3-2.5-.5 1.1.1 2.4.3 3.2 2.2-.4-.5-2.1-2.4-4.2-1.5 1.1 0 2.6.5 3.3 1.5 0 0-1.2-1-3.8-1.1.4.1.6.2.7.2.4 0 1.9.1 2.7 1.4-.7-.5-1.8-1.1-3.6-1-.3 0-.6 0-.8.1.6 0 1.9 0 2.9.9-.6-.3-2.9-.6-3.5-.5.7.1 2.3.5 2.7.9-.4-.1-1-.3-1.2-.3-.4-.1-2.7-.2-3.5.8-.3.4-.9 1-1.1 1.7.4-.4.6-.7 1.8-1.1.3-.2 1.4-.5 1.1-1.3.2.1.6.6-.1 1.1.3-.1.5-.2.7-.3s1-.6 1.6-.7c-.4.2-1.1.8-1.3 1 .2 0 .4-.1.5-.1.2-.1 1.1-.6 2.2-.7-.6.3-1.3.6-1.6.8-.1.1-.3.3.2.2.3-.1 1.3-1 2.5-1-.6.3-1.3.6-1.7 1-.2.2.1.3.3.1s.5-.4.6-.4c.2-.2.6-.6 2.4-.6-.6.2-1.7.6-2.3 1-.2.1-.3.4.4.2.4-.3 1.5-1 3.2-.8-.6.1-1.9.4-2.6.9-.2.2 0 .2.3.1 0 0 2-1 3.4-.4-.4 0-2.1.1-2.9.7.4 0 1 0 1.3-.1.4-.1 1.5-.4 2.3-.1-.5 0-2 .2-2.3.4-.2.1 0 .2.2.1.2 0 1.6-.4 3 .2-.6 0-2.1-.1-2.6.1-.2.1-.1.3.4.2.4-.1 1.9-.4 2.9.3-.8-.2-2.1-.1-2.5 0 .7 0 1.6 0 2.3.5-.6-.1-1.4-.2-1.7-.1.6.2 1.8.1 2.7 1.1-.6-.3-1.5-.6-2.2-.6-.2 0 0 .2.3.3.4 0 1.4.1 2.3 1.1-.6-.3-1.5-.6-1.9-.6.8.4 1.4.6 1.5.9.2.2.6.5.7.7-.4-.3-1.3-.8-1.6-.9.2.2 1.2 1 1.6 2.8-.3-.4-1.3-1.9-1.5-2.2.2.6.3 1.2.4 1.3-.3-.4-.9-1.7-1.4-2.2.1.4.5 1.8.7 1.9-.5-.6-1-1.6-1.3-2.2-.1-.3-.4-.4-.4-.5.3.4.6 1.1.6 2.3-.1-.3-.2-.8-.2-.8-.2-.3-.5-.9-.5-1-.2-.3-.6-.8-.6-.8 0 .3.1.5.1.5l.3.6c.1.3.3.7.4.8-.5-.5-.7-.6-1.4-2.1-.1-.5-.2-.4-.3-.4.1.4.5 2 .9 2.6-.4-.3-.9-1.1-1.2-2.2-.1-.4-.4-.7-.6-.7.2.4.6 1.2.6 1.9 0 .3.1.9.1.9-.2-.6-.9-2.8-1.7-3.2.5.5.6 1.2.6 2.9 0 0-.3-2.8-1.9-3.4.3.3 1.1 1.1 1 2.7-.1-.5-.7-2.1-1.5-2.6.3.5.7 1.1.6 2.1-.1-.4-.5-2-1.4-2.3.4.4.8.8.7 1.8-.2-.5-.9-1.9-1.5-1.9.4.4.8.7.8 1.5-.3-.5-1-1.5-1.6-1.6.4.4.8.6.9 1.4-.2-.3-.7-1.2-2-1.5.4.2 1 .6 1 1.2-.3-.4-1.6-1.6-2.8-1.1-.4.2-1.1.7-1.4 1.4v.4c.4 0 1.2 0 2 .5.4.2.5.2.7 0 .2-.1 1.4-.6 2.3-.4-.6.1-1.5.3-1.9.7-.2.2 0 .3.4.1.5-.2 1.3-.7 3.2-.7-.7.2-2.3.5-2.7 1-.3.3 0 .2.2.1s.7-.3.9-.5l-.7.7c.7-.3 2-1.1 3.2-.8-.5 0-1.6.3-2.6 1.1-.2.2-.2.3.3.1s2-.7 3.1 0c-.6-.1-1.8-.2-2.9.4-.2.2.1.2.3.1.3-.1 2.2-.5 3.4.1-.6 0-2.4 0-2.8.3-.2.2 0 .3.3.2s2-.5 3.1.4c-.6-.2-1.8-.5-2.6 0-.5-.5-.2-.5-.1-.5.4 0 2.1-.2 3.4 1-.8-.3-1.8-.7-2.8-.5-.2.1-.1.2.2.3.5 0 2.5.1 3.4 1-.6-.2-1.2-.5-2.5-.5-.5 0-.3.1 0 .2.3 0 1 .1 1.1.2h-.9c-.1 0-.1.2.2.2s1.9 0 2.9.9c-.6-.2-1.7-.6-2.4-.5.3.1 1.5.5 2.5 1.3-.6-.3-2-.8-2.2-.7.2.2.3.3.6.4s1.8.6 2.3 1.7c-.4-.3-1.4-1.1-1.8-1.1-.3 0 0 .1.2.2s1.1.6 1.4 1q.3.45.6.6c-.4-.3-.5-.3-.7-.6-.2-.1-.8-.5-1-.5.3.4.5.5.9.7.2.2.9.7 1.1 1.5-.3-.4-.9-.9-1.2-1.1 0 .2.1.3.2.4.2.2.8.8 1 1.5-.2-.3-.3-.5-.4-.6-.2-.1-.3-.4-.5-.5.1.3.4 1.2-.2 2.1.1-.6 0-1.3-.1-1.8 0 .3-.1.6-.5.8.2-.4.4-1 .1-1.7 0 .3-.1 1.1-.6 1.4.2-.3.5-1.2 0-2.2 0 .3-.1.7-.2.9 0 .2-.1.6-.4.7.1-.3.6-1.3-.3-2.7.1.4.3 1.6-.4 2.2.1-.4.3-2.1-.1-2.5.1.4.3 1.8-1.1 2.4.4-.5 1.3-1.8.1-3.5 0 0 0 1.4-.4 1.9 0-.6.1-2.2-.6-2.7.1.7.3 2.1-.4 2.9.1-.6.4-2.4-.3-3.3.1.6 0 1.9-.2 2.4 0-.6.1-2.2-.6-3 .2.6.4 1.8-.1 2.6 0-.8-.1-2.2-.8-3.2.1.4.3 1.6-.2 2.5 0-.7-.1-2.9-1.1-3.5.3.6.9 1.9.5 3.2 0-.8-.6-2.6-1.3-3.5.3.7.7 1.6 0 2.8.1-.7-.2-2.6-1-3.4.1.3.2.7.2 1.3.1.2.2.8.3.9-.2-.3-.7-1.5-1-2.4-.2-.3-.3-.4-.5-.5s-.7-.4-1.5-.3c0 1.3.2 3.2.4 4.1s.6 3 .1 4.8c-.1.6 0 1.2.1 1.9-.1.7-.1 1.1.1 2-.1.7-.1 1.1.1 2 0 0 0 1.6.5 2.3 0 0 0 .1-.2 0-.1-.1-.3-.4-.5-.8-.4.2-.9-.7-1.2-1 .2 0 .8-.1 1.1-.2.1 0 0-.2 0-.2-.8.2-1.7.2-2.3.1 0 1-.3 1.7-.5 2-.1.1-.3.1-.3 0 .1-.2.4-.6.3-2.2.2-1 .2-1.4 0-2.1.1-.7.2-1.2.1-2 .1-.7.2-1.1.1-1.9-.5-1.7-.3-3.9-.1-4.9 0 0 .5-2.1.4-3.4-.2.2-.3.3-.4.5.1.3.2 1.1-.6 2.1.1-.4.3-1 .3-1.7 0-.2-.2-.1-.4.2-.1.3-.2 1.7.1 2.6-.2-.2-.6-.7-.6-2.1 0-.2-.2 0-.2.3s-.1 1.2.2 1.7c.1.2.2.7.1 1.1 0-.4-.3-.9-.4-1.1-.4-.4-.4-.8-.5-1.2-.1.2-.2 1 0 1.4.1.3.3 1.2 0 1.7-.1-.4-.1-.9-.2-1.2 0 0-.3-.8-.3-1.1 0 .5.1 1.8.2 2.5-.1-.2-.5-.8-.6-1.7 0-.3-.1-.7-.2-.3 0 .4-.1 1.9.3 3-.2-.3-.6-.8-.7-2.2 0-.2-.1-.1-.1.2s0 2.5.3 3c-.4-1-.6-1.6-.7-2.6 0-.3-.1 0-.1.3s0 1.5-.1 1.9v.7c-.2-.3-.4-1-.4-2.1-.1.3-.4 1-.1 2.8-.2-.3-.5-.7-.4-1.8-.1.6-.3 1.9-.2 2.5-.2-1-.5-1.7.1-3 .5-1.1 2.1-3.9 5.2-6.6 0-.3 0-.7-.8-.5-.5.1-1.4.6-1.9 1.1 0 0-.4 1.3-.7 2.1.1-.7.2-1.5.1-1.9-.2.4-.5 1.5-.5 2 0 .3-.1.6-.2.7 0-.4 0-.7-.1-.8-.1-.3-.1-.7 0-1.3-.1.5-.5 1.3-.5 2.8-.2-.3-.5-1.1-.2-2.4-.2.2-.8.7-.5 3.7-.2-.3-.7-.9-.5-2.8-.2.6-.3 1.7-.3 3.2-.3-.7-.5-1.3-.2-3-.2.2-.5.7-.3 2.6 0 .2.1.5.1.9-.1-.3-.5-1-.5-2.9-.2.5-.6 2.1-.1 4.1-.3-.5-.8-1.7-.6-3.2-.1 0-.1.1-.1.4s-.1 2.5-1.4 3.4c.1-.2.8-.8.9-3.3-.2.2-1 1.1-.2 3.7 0 0-.6-.5-.7-2.7-.1.2-.2.2-.2.5s.1 1.8-1 3c.2-.6.6-1 .6-2.8 0 0-.6 1.1-1 2.7-.1.7-.4 1.5-.6 1.6.1-.5.3-2 .3-2.5-.3.8-.8 2.7-1.8 3.5.3-.6.7-1 .9-1.9.1-.4.4-1.1.4-1.3-.4.4-1.2 1.5-1.4 1.8.2-.6.9-1.9 1.7-2.8-.5.4-1.2 1-1.6 1.5.4-.7 1.5-1.8 1.9-2.1-.3.1-.8.3-1.6 1 .3-.4 1-1.1 1.6-1.4.3-.2.5-.4.6-.5-.5.1-1.9.8-2.6 1.4.2-.4 1.2-1.5 2.9-1.9-.7.1-1.4.2-2.5-.7.6.3 2.1.6 3.1-.1 0 0-1.6.3-2.5 1.1.3-.5 1.8-1.6 3.1-1.8-.4 0-2 .4-2.4.6.9-.4 1.9-.8 2.8-.9.3 0 .2-.2.3-.2 0 0-2 0-2.8.5.3-.4 1.6-1.1 3.2-1.1-.4-.1-1-.1-2.3.3.5-.3 1.8-1 3.3-.9-.2-.1-.3-.1-.4-.1.4-.1.7-.1.9-.2-.4-.1-1.5-.1-2.3.2.3-.3 1.1-.7 2.2-.8-.2-.1-.5-.3-.5-.7 0 0 .9.8 2.2.2h-1.4c.4-.2 1-.4 1.8-.5.3 0 .4-.1.4-.2-.4 0-1.1.1-1.6.3.3-.2 1.1-.7 2.2-.6.2 0 .4-.1.5-.1 0 0 1.2-.8 1.6-1s.9-.3 1.2-.2c-.2-.5-.9-1.6-2.6-1.5.5-.5 2-.2 2.6.6 0 0-.1-.7-.2-.9-.4-.3-1-.6-2-.5-.6.1-1.2 1.1-1.5 2.2 0 0 0-1 .5-1.9-.5.3-1.4 1.1-1.6 3.1 0 0-.6-1.3.3-2.7-.5.4-1.1.7-1.6 3.3-.1-.8.1-2.1.6-3-.5.3-1 .8-1 3.2 0 0-.6-1-.1-2.6-.3.4-.5.5-.6 1.4-.1.4-.4 1.4-.6 1.9.1-.7.2-1.8.2-2 0-.4.2-.7.2-.8-.4.4-1.4 1.5-1.1 3.7 0 0-.6-.9-.3-2.6-.3.7-.7 2.2-.7 2.2.1-.8.2-2.2.5-2.8-.3.3-.8 1.3-1 3.3-.1-.5-.3-1.2.2-2.8-.4.6-.9 1.2-1.1 3.9-.3-.9-.5-1.6.2-3.4-.3.4-.6 1-.8 1.6-.1.7-.3 2.1-.6 2.9 0 0-.1-1.7.2-3.5-.4 1.1-.7 1.7-.9 3.7-.2-.7-.4-1.6.4-3.5-.4.7-.8 1.7-1 2.7-.1-.4-.1-.8-.1-1 0 0-.4.7-.7 1.3 0 0-.1-.1-.2-.1.1-.5.2-1.2.8-1.8-.6.3-1.3.9-1.8 1.3h-.1c.3-.4 1-1.3 2.2-2.1-.4.1-1.5.5-1.9.5.3-.2 1.9-1 2.1-1.1-.4.1-1 .1-2 .6.3-.3 1.3-.9 2.7-1.2 0 0-1.5 0-3 .7.6-.4 1.4-.9 3.6-1.3.2 0 .3-.1 0-.1-.2 0-.9 0-1.3.1.5-.2 1.1-.5 1.8-.6-.3-.1-1.7 0-2.8.1.4-.2 1.7-.7 3.6-.6.2 0 .5-.1.1-.1s-1.1 0-1.5-.1c.4-.1.7-.2 1.7-.2.2 0 .2-.1-.1-.1s-2 .1-2.8 0c.4-.1 1-.3 3.3-.4-.3-.1-1.4-.3-2.7-.2.4-.1 1.6-.5 3.5-.1.6.1.8-.1.2-.3-.2 0-2.3-.4-2.8-.4.7-.1 2.2-.2 3.6.2.2.1.5 0 .1-.1s-1.2-.5-2.6-.6c0 0 1.9-.3 3.4.4.1.1.5 0 .2-.2-.4-.2-1.3-.5-1.7-1.2.3.2 1.6.9 2.9 1-.3-.1-1.3-.5-1.4-1.2.2.3.9 1 2.8.9.2 0 .4-.1 0-.1-.3-.1-.6-.3-1.7-.3.4-.1 1.6-.1 2.6.2 0 0-.2-.2-.6-.4.4 0 .7-.1 1.5.4 0 0 1.1-.2 1.8.2-.3-.3-.5-.7-1.3-1.1-.3-.1-1.6-.2-2.3.9.1-.6.5-1.1 1.1-1.3-.4.1 0 0 0 0s-1.4.2-2.4 1.3c.2-.5.9-1.3 1.9-1.6-.4 0-1.7.2-3 1.6.1-.4.7-1.5 2-2-.3.1-1.2.3-1.8 1-.2.3-.7.9-1.4.9.4-.3.7-.7 1-1.1.2-.3.8-1 1.3-1.2-.4.1-1.5.3-2.6 2.1.1-.6.4-1.5 1.7-2.3 0 0 .2-.2-.1-.1-.2.1-1.4.6-2.3 2.5 0-.5.2-1.5 1.3-2.6-.4.2-1.4.7-2.3 2.5 0-.5.2-1.7 1.8-2.7-.4.2-1.4.5-2.7 2.6.2-.6.9-1.9 1.8-2.6 0 0 .3-.2-.1-.1-.2.1-1.4.6-2.5 2.8.1-.5.6-2.4 1.7-3-.3.1-1.7.8-2.5 2.7 0-.3.3-1.7 1.4-2.7.1-.1.1-.2-.2 0s-1.6.8-2.2 2.4c0-.3-.1-.6 0-.8s.6-1.2 1.4-1.8c.1 0 .1-.1-.2 0 0 0-1.7.8-2.5 3 0-.3.4-1.6.9-2.3.1-.1.2-.3.3-.4.1-.2.3-.3.6-.4 0-.1-.1-.2-.4 0 0 0-1.3.8-1.7 2.3 0-.5.1-1.3.7-2-.4.4-1.4 1.3-2 2.4.1-.5.5-1.5 1.1-2.1-.6.3-1.8.9-2.7 2.7.1-.4.4-1.7 1.6-2.8-.4.1-1.9 1-2.3 1.1.4-.4 1.4-1.4 3.1-1.8-.4 0-1.2-.1-2-.1.3-.1.9-.3 3.1-.2 0 0-.3-.3-2.1-.4.3-.1 1.7-.4 3 .2.1.1.6.2.3-.1-.3-.1-1.2-.5-2.4-.7.7 0 2-.1 3.5.7.2.1.9.2.4 0-.5-.3-1.6-.9-2.9-1.2.5 0 2.1 0 3.8 1.2.2.1.2.1.1-.1-.3-.3-1-1-2.2-1.5.3 0 1.5.2 2.8 1.4.2.2 1.1.7.7.2-.4-.4-1-1.2-2.1-2 .5.2 1.7.7 2.8 2.1.2.2.4.4.4.1-.1-.2-.6-1.4-2.3-1.5.2-.1 1.9-.5 2.8 1.5.1.3.5.6.5.2-.1-.3-.6-1.9-1.5-2.6 0 0 1.3.4 2 2.4.1.4.5.8.9.9-.3-.3-.9-.9-1.4-2.7.3.5 1.3 2.1 2.2 2.8.1.2.2.1.1 0-.1-.3-.6-.9-1-1.4-.2-.1-.6-.5-.7-.8.3.2.4.3.6.4s1.1.9 1.9 2.2c-.1-.5-.4-1.2 0-2.2 0 .6.4 2.4 1.2 3 .1-.4 0-.9.1-1.9.1.6.3 1.8 1 2.3 0 0-.4-.6 0-1.8 0 .4.1 1.6.7 2.2.2.2 1.1.8 1.2 1.1-.2-.5-.6-1.1-.3-1.9 0 0 .5 1.8 1.4 2.5 0-.4 0-2-.4-2-.3-.1-1.1-.3-1.5-.7.3.1 1.2.1 1.4.2-.4-.3-.8-.3-1.1-.4 0 0-.6-.2-1-.2.3-.1.7-.3 1.8 0-.4-.2-.9-.6-2.4-.7.3-.1.9-.4 2.1.1-.4-.2-.9-.4-1.7-.5-.3 0-1.1 0-1.5-.3.7 0 2.4-.1 3.1.2-.8-.6-1.5-.9-3.8-.7 0 0 1-.7 2.7-.3.2.1.2-.1 0-.2-.3-.1-1.9-.6-3.4 0 .3-.2 1.1-.8 2.8-.6-.5-.1-1.5-.3-3.3-.2.6-.2 1.4-.7 3.2-.3-.4-.2-1.8-.8-3.9-.1 0 0 1.6-1.2 3-.7-.4-.2-1.7-.4-3 0 .4-.2 1-.6 2.3-.6-.4-.1-1.2-.2-2.7.3.5-.3 1.1-.8 2.1-.8-.5-.1-1.8-.4-3.6.2.2-.2 1.1-.8 2-.8-.4 0-1.4-.1-2.8.3.3-.3 1-.6 1.7-.6h-1.2c-.5 0-1.1.2-1.6.4.1-.1.5-.3 1.1-.5.1 0 .3.1.5.1h.2v-.2c1-.2 2.4 0 4 .9-.3-.5-1.1-1.4-2-2 .4.2 1.7.7 2.8 2.3 0 0-.2-1-1.3-2.1.4.3 1.4 1.1 2 2.6 0-.4-.4-1.6-1.1-2.4.3.2 1.3.9 1.7 3 0-.5-.3-1.9-.6-2.3.5.7.9 1.1 1.1 2.6 0 .2.2.6.2.1s-.1-1.9-.5-2.5c.4.5 1 1.5 1 3 0 0 .1 1 .2.2 0-.3.1-1.5-.3-2.3.2.3.8 1.1.8 3.1 0 .2.1.4.1.5.1.1.2.4.2-.1 0-.4.1-1.3-.1-1.6.2.2.7.8.5 2.3 0 .2 0 .6.1.4.1-.1.2-.4.2-.6-.1-.5-.3-4.6-2.8-7-.3-.7-.6-1.7-1.9-2.3.4.1 1.4.5 2.1 1.6-.2-.6-.6-1.5-1-1.9.7.7 1.3 1.5 1.7 2.9.1.3.2.6.2.2-.1-.4-.4-1.7-.6-2.2.4.7.8 1.4 1.2 3.3.1.2.1.3.1 0 0-.4.1-1.1-.2-1.9.3.4.7.6.6 2.8 0 .3 0 .6.1.2s.2-1.1.1-1.8c.2.5.3 1.3.2 2.5-.1.4.1 1 .1 1.2 0 0 .2-1.4 0-2.4.1.3.3.5.3 1-.1-.4-.1-7.3.5-8.7" class="st8"/><path d="M33.4 43.7c.7.2 1.2.1 1.8-.1.1 0 .1.1 0 .1s-.4.2-1 .2c0 .3.1.7 0 1.1.4 0 .7 0 1.1-.2.1-.1.1.1.1.1-.1 0-.9.4-2.1.1.1-.4.2-.7.1-1.3" class="st4"/><path d="M33.7 33c.2 3.4-.1 4.3-.5 7.1-.1 1.3 0 2.7.5 2.8s.5-.2.4-.6c-.4-1.9 0-3 0-5.9.1-4 .3-10.1.2-10.6v-1.7c-.1.3-.2 0-.3-.4v1.4c-.1-.3-.2-.5-.3-.7.2.6.2 1.7.2 2 0 .7-.1 1.3-.1 1.3-.1.1-.3-.3-.5-.6-1.3-2.3-2.8-3.7-4-4.7 0 0 2.5 2.1 3.9 4.9.3.7.6.8.7 3.5-.1.9-.3.9-.8.2-1.5-2.1-7.8-5.9-14.9-4.3 5.2-.8 10.7.5 14.2 3.8.7.7 1.2 1.2 1.3 2.5" class="st9"/><path d="M32.6 31c-1.4-.7-7.2-.2-12.9 5.5 4.8-4.7 10.9-6.5 13-5.3 0-.1-.1-.2-.1-.2" class="st9"/><path d="M33.2 33.6c-.9-.4-2.2.4-6.6 3.9 0 0-2.8 2.1-4 4.3 2-2.7 4.1-4.2 6.3-5.9.9-.6 3.7-3 4.4-2-.1-.1-.1-.3-.1-.3m1.5-4.1c.7-1.6 2.1-5.1 4-6.4 0 0-2.1 1.5-4 7-.1-.2 0-.6 0-.6" style="fill:#fcfaea"/><path d="M34.8 31.5c1.1-1.8 5.2-4.3 7.5-5.7 1.9-1 3.8-1.6 5.9-1.7-1.6.2-3.4.5-5.5 1.5-2.4 1.4-7.4 4.4-8 6.3zm.2.9c.4-.5 1.2-1.3 3.5-1.2 1.8.1 6.6.8 9.7 3.7-1.3-1-3-2.4-7.2-3.3-1.5-.3-4.9-1-6.1 1.1.1-.1.1-.3.1-.3m0 1.4c1.6-.2 5.5 2.4 7.6 4.1 1 .9 3.2 2.3 4.9 5.2-2.1-2.9-3.6-4-5.4-5.4-.6-.5-5.5-4.3-7.1-3.6zm-1.6 11.7c.7.1 1.3.1 1.9-.1.1-.1.1.1.1.1-.2.1-.5.2-1.1.2v1.2c.4 0 .7-.1 1.1-.2.1-.1.1.1.1.1-.1.1-1 .5-2.2.1.1-.3.2-.8.1-1.4m-.1 1.9c.1.5.1 1 0 1.7 0 0 1.1.3 2.2-.1.1-.1 0-.2-.1-.2-.2.1-.5.2-1.1.2v-1.3c.4 0 .9-.1 1.2-.2.1-.1.1-.2 0-.2-.6.1-1.2.3-2.2.1" class="st9"/><path d="M11.5 25.6c0-.1 0-.1-.1-.2l-.4-.1-.9 2.2-.5-.2.9-2.2-.3-.1.2-.2-.2-.5-.7 1.7-.4-.2 1-2.3q.15-.15.3 0h.1l.1.1.2 1 .8-2 .5.2-.8 2 .5.2c.1.1.2.2.3.4l-.3.8h-.4v-.1zm-2.2-1.7-.4.2.1.5zm-1.8-.7.5-.3.2.3-.6.3.2.7-.3.2-.2-.6-.3.2-.1.1-.2-.3.5-.4L7 23l.4-.2zm1.8.6.4-1.1-.3-.1-.3.8-.4-.2.3-.8-.3-.1-.3.7-.4-.1.3-.7L8 22l-.3.8-.4-.2.5-1.3 2.1.9.2-.4 1.1.5-.2.5-.7-.3-1.6 3.9.7.3-.2.6-1.1-.5.2-.5-2.1-.8.5-1.3.4.2-.3.8.2.1.3-.8.4.2-.3.8.3.1.3-.8.4.2-.3.8.3.1.4-1h-.1l-.1-.5-.4.3-.2-.4.4-.3-.2-.5.3-.1.1.4.4-.3zm7.3-10.9 1.8-1.5.3.4-1.7 1.4c.3.3.8.5 1.5.8q1.05.3 2.1 0v.5h-.1c-.3 0-.6.1-.8.1-.3 0-.6 0-.9-.1-.5-.1-1-.4-1.5-.6.2.6.3 1.3.2 1.9s-.2 1.1-.4 1.7H17c-.1 0-.3-.1-.5-.1.1-.3.2-.7.3-1s.1-.6.1-.9c0-.7-.2-1.3-.5-1.9l-1.8 1.5-.3-.4 1.8-1.5-1-1.2.5-.3h.2v.2zm12.5-5.1v.1l.3-.1v-.1zm-.5-.3 1.1-.2.2.9-1.1.3zm-.1-.4 1-.2.1.3-1 .2zm-.1-.4 1-.2.1.3-1 .2zm-.3-1 1.1-.3.1.4-1.1.2zm.1.9-.1-.4 1.3-.3.1.2.1-.3.1.1.1-.4.2-.3.4.1c.1 0 .1 0 .1.1 0 0 0 .1-.1.1l-.2.6.1.1.3-.5.4.2s0 .1-.2.1c-.1.2-.2.5-.3.7h.2l-.1-.2.3-.2.4.7-.4.2v-.3l-.2.1.1.3.2-.2.4.6-.4.2v-.2l-.2-.3.1.6-.4.1-.1-.5v.3c0 .1 0 .2-.1.3l-.4-.1c0-.1 0-.2.1-.4v-.3l.4.1-.1-.3H30c0 .1-.1.1-.1.1s-.1 0-.1-.1l-.2-.3.4-.1.1-.2-.3-.1-.3-.1zm.1 4h-.5l.1-1.3 2.8-.6v-.1l-2.9.6-.1-.5L31 8l.2 1-2.9.6v.2l2.8-.6c.2-.1.4 0 .4.1v.2l-.1.3-.1.3c-.1.3-.4.4-.7.5l-.7.2c-.1 0-.1 0-.1-.1l-.2-.3.7-.2c.2 0 .3-.1.4-.3v-.1l.1-.1-2.6.6zM27.6 8v.2l-.1.3v.4l-.5-.1.2-.8zm.1-2.1c.1 0 .1.1.1.1s0 .1-.1.1l-.3.5.1.1.1-.2.1-.2.4.2v.1s0 .1-.1.1l-.2.3-.1.3.2-.1v-.1l.3-.2.2.3.2.3-.3.2-.1-.2-.2.1v.3l.3-.2c.1.2.3.4.4.6l-.3.2L28 8l.1.6-.4.1-.2-1-.4.1c0 .1-.1.1-.1.1q0 .15 0 0l-.2-.3.4-.2.1-.2.1-.2-.6-.3.2-.4.1.1.3-.6zm-.6 3.2v1c0 .4 0 .7-.1 1v.3s-.1 0-.2-.1l-.3-.2c.1-.3.1-.7.2-1.1 0-.1 0-.3.1-.6v-.6zm-1.2-1.6c.1 0 .2.1.3.1s.2.1.3.1c.1.1.3.1.4.2l-.2.5c-.3-.1-.6-.3-.9-.4zm-.1-1.4c.4.2.7.3.9.4l-.2.5c-.2-.2-.5-.3-.9-.4zm15.2 3-.2.3 1.6.4-.2-.4zm2.1-1-2.5-.7v.1l2.5.7zm.6-.2-.2.8-3.5-1 .2-.7zm1-1-.1.4-2.2-.6-.1.2 1.9.5-.1.4-4.4-1.2.3-.3 1.9.5.1-.2-2.2-.6.1-.4 2.1.6.1-.3.6.2c.1 0 .1.1.1.1l-.1.1v.1zm-5.1 1.4-.2.7-.5-.1.3-1.1 5 1.4-.3 1-.5-.2.2-.6zm3.8 1.2-.1.3-.6-.2.4.9h-.4l-.2-.4-1-.2-.1.4 1.7.5-.1.3-1.7-.5-.1.3 2.2.6-.1.4-4.9-1.4.1-.4 2.2.6.1-.3-1.7-.5.1-.4 1.7.5.1-.1-1.3-.3c0 .1-.1.1-.1.1s-.1-.1-.1-.2v-.4l.8.2.3-.3-.9-.2.1-.3zm12.1 6.2L52 12.4l.4-.4 1.5 1.4.7-.7.4.5v.1h-.2l-.5.5 1.6 1.5zm-4.1.1-.5-.3c.5-.7.9-1.4 1.1-2.1l.6.2c-.4.8-.8 1.5-1.2 2.2m-2.2-.7.4-.4 2 1.9c.5-.2.9-.5 1.3-.7.4-.3.9-.6 1.3-.9l.3.5c.1.1.1.2 0 .2h-.2c-.8.6-1.6 1-2.3 1.4l1.4 1.3-.4.4zm9.6 8 .2.6.5-.2-.2-.6zm-.6-.2 1.2-.5.6 1.4-1.2.5zm2.9 2.4-.4-1c-.2.1-.5.2-.8.4-.2.1-.4.3-.6.4.4 0 .8 0 1.3-.1v.4c0 .1 0 .1-.1.2 0 0-.1 0-.1-.1h-1.6c-.1 0-.1.1-.2.3 0 .1.2.1.6.1l-.2.4h-.7c-.1 0-.2-.1-.2-.2v-.2q0-.3.3-.6c-.3-.1-.6-.2-.8-.4.1-.1.1-.3.2-.4h.1c.1.1.2.2.4.2.1.1.3.1.5.2.3-.2.6-.5.9-.6.3-.2.7-.4 1-.5L60 22l.4-.2.7 1.7.5-.2.1.4v.2h-.2l-.5.2.2.5s.1-.1.1-.2.1-.1.1-.2l.3.2c0 .1-.1.3-.2.3-.1.1-.1.2-.2.2l.1.2zm-2.8-.7-.8-1.2c-.1 0-.2-.1-.2-.1s0-.1.1-.2l.4-.2.9 1.5zm-1.6-1.4 1.5 3.6 4-1.6-1.5-3.6zm-.6.2-.2-.5 5-2.1 1.9 4.6-5 2.1-.2-.5.2-.1-1.5-3.6zM62 42.5l.5.1c.2.1.4.3.3.5l-.1.5h-.4v-.1l.1-.4V43s-.1 0-.1-.1l-.3.1-.1.9c.1.1.1.2.1.2l-.1.1h-.5l.2-1.2-.5-.1v-.1l-.2-.4-.4 1.6-.5-.4.6-2.1c.1-.1.2-.2.3-.1.1 0 .1 0 .1.1l.4.9h.1l.1-1.1.4.2zm-2.1-3.3-.2.7.4.3V40c.9.1 1.5.2 1.9.2-.4-.2-.8-.4-1.1-.6-.4-.2-.7-.3-1-.4m-.7 3.4.3.1.3-1.1-.3-.1zm-.6.4.6-2.1 1.2.4-.6 2.1zm1.4-4.3c1.1.4 1.9.8 2.5 1.2l.6-.3c.2-.1.4-.3.6-.5l.3.4c-.2.2-.4.3-.6.4l-.6.3c.2.4.4.9.5 1.5l-.4.2c-.1-.5-.2-.9-.6-1.4-.5.1-1.2.1-2-.1l.1.1-.3.4c-.6-.5-1.2-1-2-1.4l.3-.5c0-.1.1-.1.1-.1s.1.1.1.2l.6.3.4-1.5.5.1zm-2.4 3.1.2-.5c0-.1.1-.1.1-.1l.1.1v.1l.3.1.3-1 .4.1-.8 2.7-.4-.1.3-1.2zm1.1 5.9-.7 1 1.1.7.7-1zm.9 2 .3.2-.3.5-2.2-1.4 1.3-1.9 2.2 1.4-.3.5-.3-.2zm-2.4.4-.7 1 1.1.7.7-1zM58 52l.3.2-.3.5-2.2-1.4 1.2-1.9 2.2 1.4-.3.5-.2-.3zm-2-5-1.2 1.8 1 .6 1.2-1.8zm.2 2.7.2.1-.3.5-2-1.3 1.8-2.7 2 1.3-.4.4-.2-.1zm-5.1 5.7-.4.3.3.3.4-.3zm-.6-2.9.4-.2h.1v.1l.7.9.7-.6.8 1c.1.1.2.2.3.4.2.3.4.5.4.6s.2.3.6.9c.1.3.1.6 0 .8l-.3.2H54l-.2-.2h-.1s0-.1.1-.1l.2-.1c.1-.1.1-.2 0-.4-.3-.4-.5-.7-.5-.8-.1-.1-.2-.2-.3-.4s-.3-.4-.5-.7-.3-.4-.4-.5l-.3.3c.3.4.5.7.7.9.1.1.2.2.2.4.1.1.2.3.3.5q.45.75.6 1.5h-.4s0-.1-.1-.1v-.2c-.2-.5-.5-1.1-.8-1.6l-.3-.4-.5-.7-.4.3-.3-.3.4-.3zm.2 2.4-.4.3.2.3.4-.3zm-.3 1.1-.4.2.2.3.3-.3zm-.4-.5-.3.3.2.3.3-.3zm0-.8-.5.3.2.2.4-.3zm-.3-.3-.2-.3.4-.2h.1v.1l.1.1.5-.4.2.3-.5.4.2.2.4-.3 1.1 1.4-.7.6.2.2.9-.7.8 1c.2.3.2.5.1.7l-.3.3c-.1.1-.1.1-.2 0l-.3-.1s0-.1.1-.1l.2-.2q.15-.15 0-.3l-.5-.6-.6.4.2.3.1-.2h-.1l.1-.3.6.3c0 .2-.1.3-.1.3l-.2-.1-.7.8v.2h-.1l-.3-.2.3-.4-.3-.4-.5.4.9 1.1-.4.3-1.1-1.4.9-.7-.2-.2-.7.6-1.1-1.5.3-.3-.2-.2-.5.4-.2-.3.6-.4-.2-.3.4-.2h.1v.1l.1.1zm-1.5.7 1.3 1.7.8 1.2c.2.3.3.5.4.7s.1.4.2.6h-.4s-.1 0-.1-.1v-.1c-.1-.2-.2-.5-.4-.9l-.3-.6c-.1-.2-.3-.4-.5-.6l-1.6-2 2.5-2 .2.3zm-4.8 4.5-.5-.2-.3.4zm-.7-1.7.6.2-.1.4-.6-.2-.4.6-.3-.1.3-.6-.5-.2h-.1l.1-.4.6.2.2-.4.4.1zm.8 4.5c.1 0 .1-.1.1-.2l-.1-.4-2.3.8-.2-.4 2.3-.8-.1-.3h.3l.3-.5-1.9.6-.2-.4 2.4-.8c.1.1.2.1.3.2v.2l-.6.8 2-.7.2.5-2 .7.2.5c0 .2 0 .3-.1.5l-.9.3-.1-.2-.1-.1v-.1zm0-2.8 1.1-.4-.1-.3-.8.3-.1-.4.8-.3-.1-.3-.7.3-.3-.5.7-.3-.1-.3-.8.3-.1-.4 1.3-.5.7 2.2.4-.1.4 1.1-.5.2-.2-.7-4 1.4.2.7-.6.2-.4-1.1.5-.2-.7-2.1 1.3-.5.1.4-.8.3.1.3.8-.3.1.4-.7.3.1.3.8-.3.1.4-.8.3.1.3 1.1-.4-.1-.2.3-.4-.5-.1.1-.3.5.1.3-.5.3.2-.2.4.5.1zm-15.8.3V61h-.5v-1.1zm-1.6-.7.3.3c.1.1.2.3.3.4l-.4.2-.5-.7zm2.3-.9q0 .15 0 0v.2h-.2l-.1-.1c-1.1-.2-2.2-.5-3.2-.9h-.1V57l.4.2c.5.2 1.1.4 1.6.5l1.5.3zm-3.7 2.6c.1.3.2.6.4.8.3 0 .7-.1 1.1-.2zm.2-1.7v.2h-.2c-.2.1-.3.2-.5.3s-.3.1-.5.2l-.2-.5c.4-.1.8-.3 1.2-.5zm2.8 1.5.3-.7-3.8-1.6-.3.8-.5-.2.5-1.2 1 .4-.1-.6h.4c.1.3.2.5.2.7h-.2l.7.3v-.3c0-.1-.1-.2-.1-.3h.5c0 .1.1.3.1.4s.1.3.1.4h-.1l.7.3V59c.3-.1.6-.2 1-.5l.2.4v.1h-.2c-.1.1-.2.1-.3.2-.1 0-.2.1-.3.1l1.1.4-.5 1.1zm-2.1-1.5c.1 0 .1.1.1.1s-.1.1-.2.1l-.2.4c0 .1 0 .2.1.2l.9.4c.1 0 .3 0 .6-.2 0 .1.1.2.2.3v.1c-.4.3-.6.4-.8.3l-1.1-.4-.2.1 1.7.7c.1.1.1.1.1.2v.2c-.5.3-.9.4-1.3.5.3.2.5.3.8.5.2.1.5.2.7.3l-.2.2-.2.2c-.3-.1-.7-.3-1-.5s-.6-.4-.9-.7c-.2 0-.5-.1-.8-.1-.3-.1-.6-.1-1-.2h-.1l-.1-.4c.2.1.5.2.7.2.2.1.5.1.9.1-.1-.1-.1-.3-.2-.4-.1-.2-.1-.3-.1-.4-.3 0-.6.1-.8.1l-.2-.4c.6 0 1.1-.1 1.7-.3q-.15-.15 0-.3l.4-.9zM16.4 55l.5.4.3-.4-.5-.4zm3.1.8-.9-.7c-.2.2-.3.4-.5.7-.1.2-.2.4-.4.7.3-.2.7-.4 1.1-.7l.2.4v.2h-.2c-.2.2-.4.3-.7.4-.2.1-.4.2-.7.3 0 .1-.1.2 0 .3.1 0 .2 0 .6-.2v.4c-.1.1-.2.1-.3.2-.1 0-.2.1-.3.1s-.2 0-.3-.1l-.1-.1q-.15-.3 0-.6h-.9c0-.2 0-.3-.1-.5h.9c.2-.4.3-.7.5-1l.6-.9-1.5-1.2.3-.3 1.4 1.2.4-.4.3.3c.1.1.1.2.1.2s-.1 0-.2.1l-.2.2.4.3v-.4h.4v.4c0 .1 0 .2-.1.3l.1.1zm-3.7-.8.8-1 1.2 1-.8 1zm.9 1.5-1.3-.6h-.3v-.2l.2-.4 1.5.9zm-2.1-.6 3 2.5 2.7-3.3-3-2.5zm-.4.6-.4-.4 3.5-4.2 3.8 3.2-3.5 4.1-.4-.3.1-.2-3-2.5zm.2-7.7q0 .15 0 0l-.1.1s-.1 0-.1-.1v-.2c-.7-.8-1.4-1.7-2-2.7v-.1l.3-.4h.1l.2.4c.3.5.6 1 .9 1.4s.6.8 1 1.1zm-1.5.8c-.2.4-.5.7-.7.9l-.4-.3c.2-.3.5-.5.6-.9zm-.8-1.5v.9h-.5v-.9zm.3 2.2.7-.4-2.1-3.6-.7.4-.3-.4 1.1-.6.6 1 .3-.7.4.3c-.1.3-.2.5-.3.7h-.2l.4.7c.1-.1.1-.2.2-.3 0-.1.1-.2.1-.3l.4.3c0 .1-.1.3-.2.4s-.1.2-.2.3h-.1l.4.7v-.1c.3.1.6.2 1.1.3v.5c0 .1 0 .1-.1.1 0 0-.1 0-.2-.1-.1 0-.2 0-.3-.1-.1 0-.2 0-.3-.1l.6 1-1.1.6zm-1.3-2.9c0 .1 0 .1-.1.2 0 0-.1 0-.1-.1-.2 0-.4-.1-.6-.1s-.3-.1-.5-.2l.1-.5q.6.3 1.2.3zm-1.2 1.2c-.1.3-.2.6-.2.9.3.2.6.4 1 .5zm1.7-.8v.1h-.2l-.4.2c-.1.1-.1.1 0 .3l.5.8c0 .1.2.1.6.2v.4c-.4 0-.7-.1-.8-.3l-.6-1-.3-.1 1 1.6v.2c0 .1-.1.1-.1.1-.6-.1-1-.2-1.4-.4.1.3.2.6.3.8s.2.5.4.7h-.5c-.2-.3-.3-.6-.5-1-.1-.3-.2-.7-.3-1.1l-.6-.6c-.2-.2-.4-.5-.6-.8v-.1l.1.2c.1.2.3.4.4.6l.6.6c0-.2.1-.3.1-.5s.1-.3.2-.4c-.3-.2-.5-.3-.7-.5l.1-.5c.5.3 1 .6 1.5.8 0-.1.1-.2.2-.2l.9-.5zm-.7-7.3c0 .1 0 .2-.1.2 0 0-.1 0-.2-.1h-.2c-.9.2-1.7.6-2.3 1.1-.7.7-1.1 1.4-1.4 2.3-.1-.1-.3-.3-.5-.4v-.1c.3-.7.7-1.3 1.3-1.9.3-.3.6-.5.9-.8-.5 0-1.1-.1-1.6-.4q-1.05-.6-1.5-1.2v-.1c.1-.2.2-.4.2-.6h.1c.1.5.4.7.7 1 .3.2.7.5 1.2.7.4.1.9.1 1.4.1.6 0 1.2-.1 1.9-.3zm51.4-6.1c0 .4-.3.8-.8.8-.4 0-.8-.3-.8-.8 0-.4.3-.8.8-.8.4 0 .8.3.8.8m-54.1 0c0 .4-.3.8-.8.8-.4 0-.8-.3-.8-.8 0-.4.3-.8.8-.8.4 0 .8.4.8.8m27 27.1c0 .4-.3.8-.8.8-.4 0-.8-.3-.8-.8 0-.4.3-.8.8-.8s.8.3.8.8" class="st11"/><path d="M34.2 1.6c-.1.1 0 .1-.1.3q-.15.15-.3 0c-.1-.1-.1-.3.1-.5s.4-.3.7-.1c.3.1.4.6.2.9s-.6.5-1.1.4-.8-.7-.5-1.4c.2-.4.7-.8 1.3-.8.5 0 .9 0 1.4.4.3-.3.7-.3 1.1-.3.1 0 .1.1 0 .1-.2 0-.7.1-.8 1s-.4 1.6-.9 1.9h-.9c.4-.1 1.3-.7 1.3-1.6 0-.3 0-.6-.4-.9.5.6.3 1.4-.1 1.8-.5.5-1.4.8-2.6.1-.3.3-.6.4-1 .2-.1 0-.1-.1 0-.2.2-.1.7-.2.8-1 0-.8.3-1.4.9-1.9h.9c-.2.1-1.2.4-1.3 1.6 0 .6.4 1 .9 1 1.1.4 1.6-.5 1.2-1.2-.1-.4-.5-.5-.9-.4s-.6.4-.6.7.2.5.4.5c.4 0 .5-.1.6-.4 0-.2-.1-.2-.3-.2m4.7.8c.1 0 0-.1.1-.2q.15-.15.3 0c.1.1 0 .3-.1.5-.2.1-.4.2-.7 0s-.3-.6-.1-1c.2-.3.6-.4 1.2-.2.4.2.6.9.2 1.5-.3.4-.8.7-1.4.6-.5 0-.9-.1-1.3-.6-.3.2-.7.3-1.1.1-.1 0-.1-.1 0-.1.2 0 .7 0 .9-.9S37.6.5 38 .4c0 0 .4.1.9.1-.4 0-1.4.5-1.5 1.4 0 .3 0 .6.3 1-.4-.7-.1-1.4.4-1.8s1.5-.7 2.6.2c.3-.2.7-.3 1.1-.1.1 0 .1.1 0 .2-.2 0-.8.1-.9.9-.2.7-.5 1.3-1.2 1.7-.1 0-.9-.1-.9-.1.2-.1 1.3-.3 1.5-1.4.1-.6-.3-1-.8-1.1-1.2-.3-1.8.6-1.5 1.3.1.3.5.5.9.4.4 0 .7-.3.7-.6s-.1-.5-.4-.5c-.4-.1-.6.1-.6.3 0 .1.1.2.3.1m4.6.5c-.2.1-.1.1-.2.2s-.2 0-.3-.1 0-.3.2-.5c.2-.1.4-.2.7.1.2.2.2.7-.1 1-.3.2-.7.3-1.2.1-.5-.3-.6-.9-.1-1.4.3-.3.9-.5 1.5-.4.5.1.9.3 1.2.7.3-.2.7-.1 1.1 0 .1.1.1.2 0 .2-.2 0-.7-.1-1 .7-.3.9-.8 1.4-1.3 1.6 0 0-.4-.1-.9-.3.4 0 1.4-.3 1.7-1.2.1-.3.1-.6-.1-1 .3.7-.1 1.4-.6 1.7-.6.3-1.5.4-2.6-.6-.3.2-.7.2-1.1 0-.1 0-.1-.1 0-.1.2 0 .8 0 1-.7s.6-1.3 1.4-1.6c.1 0 .9.3.9.3-.2 0-1.3.1-1.7 1.2-.2.6.2 1.1.6 1.2 1.2.5 1.8-.3 1.7-1.1-.1-.4-.4-.5-.8-.6-.4 0-.7.2-.8.5s.1.5.3.6c.4.1.6 0 .7-.2 0-.2-.1-.3-.2-.3" class="st8"/><path d="M47.7 5c.1 0 .1-.1.2-.2.1 0 .2 0 .3.1 0 .1 0 .3-.3.4-.2.1-.5.1-.7-.2-.2-.2-.2-.6.2-.9.2-.2.7-.2 1.2.1.4.3.4 1-.1 1.4-.4.3-.9.4-1.6.2-.5-.2-.8-.4-1.1-.9-.4.1-.7.1-1.1-.2-.1-.1 0-.2 0-.1.2 0 .7.2 1.1-.6s1.1-1.3 1.6-1.4l.8.4c-.4-.1-1.4.1-1.8 1-.1.2-.2.6 0 1-.2-.8.3-1.4.9-1.6s1.6-.2 2.5.9c.3-.1.7-.1 1 .2.1.1.1.2-.1.1-.2 0-.8-.1-1.1.6s-.8 1.2-1.6 1.4c-.1-.1-.8-.4-.8-.4.2 0 1.3.1 1.8-1 .3-.6 0-1.1-.4-1.3-1.1-.6-1.9.1-1.8.9 0 .4.3.6.7.7s.7-.1.9-.4c.1-.3 0-.5-.2-.6-.3-.2-.6-.1-.7.1s0 .3.2.3m4.2 1.8c-.1 0-.1.1-.2.1s-.2 0-.3-.1c0-.1.1-.3.3-.4.2 0 .5 0 .7.3s0 .7-.3.9c-.3.1-.8.1-1.2-.3s-.3-1 .3-1.4c.4-.2 1-.3 1.6 0 .4.2.8.5 1 1.1.4-.1.7.1 1 .4.1.1 0 .2-.1.1-.2-.1-.7-.3-1.2.4S52.4 9 51.8 9c0 0-.4-.2-.7-.5.3.1 1.4.1 2-.7.1-.2.3-.6.2-1 0 .8-.5 1.3-1.1 1.5-.7.1-1.6 0-2.3-1.3-.4.1-.7 0-1-.3-.1-.1 0-.2.1-.1.2 0 .7.2 1.2-.4.4-.6 1-1 1.8-1.1.1.1.7.5.7.5-.2-.1-1.3-.3-2 .7-.3.5-.2 1.1.2 1.4 1 .8 1.9.2 2-.6 0-.4-.2-.6-.6-.8q-.6-.15-.9.3c-.2.3-.1.5.1.6.3.2.5.2.7 0 0-.3-.1-.4-.3-.4" class="st8"/><path d="M55.4 9.9c.1 0 .1-.1.3-.1.1 0 .2.1.2.2s-.1.3-.4.3c-.2 0-.5 0-.6-.4-.1-.3.1-.7.5-.9.3-.1.8 0 1.1.4s.1 1.1-.5 1.4c-.5.2-1 .1-1.6-.3-.4-.3-.7-.6-.8-1.2-.4 0-.7-.2-1-.5-.1-.1 0-.2.1-.1s.6.4 1.2-.2c.7-.7 1.4-1 1.9-.9 0 0 .3.3.7.6-.3-.2-1.4-.3-2 .4-.2.2-.4.5-.3 1 .1-.8.7-1.2 1.3-1.3.7-.1 1.6.2 2.1 1.6.4 0 .7.1.9.5 0 .1 0 .2-.1.1-.2-.1-.7-.3-1.2.2-.5.6-1.1.9-1.9.9-.1-.1-.7-.6-.7-.6.2.1 1.2.5 2-.4.4-.5.3-1 0-1.4-.9-.9-1.8-.5-2 .3-.1.4.2.7.5.8.3.2.7.1.9-.1.2-.3.1-.5 0-.6-.3-.3-.5-.2-.7-.1-.1.2 0 .4.1.4m3.6 2.9c-.1 0-.1.1-.3.1-.1 0-.2-.1-.2-.2s.2-.3.4-.3.5.1.6.4-.2.7-.6.8c-.3.1-.8-.1-1-.6s0-1.1.7-1.3c.5-.1 1 0 1.5.5.3.3.6.7.6 1.3.4 0 .7.3.9.6.1.1 0 .2-.1.1s-.6-.4-1.2.1c-.7.6-1.5.7-2 .6 0 0-.3-.3-.6-.7.3.2 1.3.5 2.1-.1.2-.2.4-.5.4-.9-.2.8-.9 1.1-1.5 1.1-.7 0-1.5-.5-1.9-1.9-.4 0-.7-.3-.9-.6 0-.1 0-.2.1-.1.2.1.7.4 1.2-.1.6-.5 1.2-.7 2-.6.1.1.6.7.6.7-.2-.1-1.1-.6-2.1.1-.5.4-.4 1-.2 1.4.7 1 1.7.7 2 0 .1-.3-.1-.7-.4-.9s-.7-.2-.9 0-.2.5-.1.6c.2.3.5.3.7.2.4-.1.4-.3.2-.3m2.5 4h.3c.1 0 .2.1.2.2s-.2.2-.4.2-.4-.2-.5-.5c0-.3.2-.7.7-.7.3 0 .8.2.9.7.2.5-.2 1.1-.9 1.2-.5 0-1-.2-1.4-.7-.3-.4-.5-.8-.5-1.3-.4-.1-.7-.4-.8-.7 0-.1.1-.2.1-.1.1.1.5.5 1.2.1.8-.5 1.6-.5 2.1-.3 0 0 .2.4.5.8-.3-.3-1.3-.7-2.1-.2-.2.2-.5.4-.5.9.3-.7 1-1 1.6-.9.7.1 1.5.7 1.6 2.1.4.1.7.3.8.7 0 .1 0 .2-.1.1-.2-.1-.6-.5-1.2-.1-.7.4-1.3.6-2.1.3-.1-.1-.5-.8-.5-.8.2.1 1 .8 2.1.2.5-.3.6-.9.3-1.3-.6-1.1-1.6-.9-2-.3-.2.3 0 .7.2.9.3.3.7.3.9.1.3-.2.3-.4.2-.6-.2-.3-.4-.4-.7-.3q-.3.15 0 .3" class="st8"/><path d="M64.1 20.6c-.1-.1-.1 0-.3 0-.1 0-.2-.1-.1-.3.1-.1.2-.2.5-.1.2.1.4.2.4.6 0 .3-.3.6-.8.6-.3 0-.7-.3-.8-.9-.1-.5.3-1 1-1 .5 0 1 .3 1.3.9.2.4.4.8.2 1.4.4.1.6.5.7.9 0 .1-.1.1-.1.1-.1-.1-.4-.6-1.2-.3-.9.3-1.7.3-2.1 0 0 0-.2-.4-.3-.8.2.3 1.1.9 2 .5.2-.1.6-.3.7-.8-.4.6-1.2.8-1.7.6-.6-.2-1.3-.9-1.2-2.3-.3-.1-.6-.4-.7-.8 0-.1.1-.1.1-.1.1.1.5.6 1.2.3q1.05-.45 2.1 0c0 .1.4.8.4.8-.2-.2-.9-.9-2-.5-.6.2-.7.8-.6 1.3.4 1.2 1.4 1.2 1.9.6.2-.3.1-.7-.1-1s-.6-.4-.9-.3-.3.4-.3.6c.1.3.4.4.6.4.3-.1.3-.3.1-.4m1.2 4.6c.1.1.2 0 .3 0 .1.1.1.2.1.3-.1.1-.3.2-.5.1s-.4-.3-.3-.6.4-.6.8-.5c.3.1.7.4.7 1 0 .5-.5 1-1.2.9-.5-.1-.9-.4-1.2-1.1-.2-.5-.3-.9 0-1.4q-.45-.3-.6-.9c0-.1.1-.1.1-.1.1.2.3.6 1.2.5.9-.2 1.7 0 2.1.3 0 0 .1.4.2.9-.2-.3-1-1-1.9-.8-.3.1-.6.2-.8.7.5-.6 1.3-.7 1.8-.4.6.3 1.2 1.1.9 2.5.3.2.5.5.5.9 0 .1-.1.1-.1 0-.1-.2-.4-.6-1.1-.4-.8.2-1.4.2-2.1-.3 0-.1-.2-.9-.2-.9.1.2.8 1.1 1.9.8.6-.2.8-.7.7-1.2-.2-1.2-1.3-1.4-1.8-.8-.3.3-.2.6-.1 1 .2.3.5.5.9.4.3-.1.4-.3.3-.5-.1-.4-.3-.5-.6-.4-.1-.3-.1-.2 0 0" class="st8"/><path d="M66.8 29.5c-.1-.1-.2 0-.3-.1s-.1-.2-.1-.3c.1-.1.3-.1.5 0s.3.3.2.7c-.1.3-.5.5-.9.3-.3-.1-.6-.5-.6-1 .1-.5.6-.9 1.3-.7.4.2.8.6 1 1.2.1.5.1.9-.2 1.4.3.2.4.6.4 1 0 .1-.1.1-.1.1-.1-.2-.2-.7-1.1-.6s-1.7-.2-2-.6c0 0 0-.4-.1-.9.1.3.8 1.2 1.8 1 .3 0 .6-.1.9-.6-.6.5-1.3.5-1.8.1s-1-1.2-.5-2.6c-.3-.2-.4-.6-.4-1 0-.1.1-.1.2 0 .1.2.3.7 1.1.6s1.4 0 2 .6c0 .1.1.9.1.9-.1-.2-.6-1.2-1.8-1-.6.1-.9.6-.9 1.1 0 1.3 1.1 1.5 1.7 1.1.3-.2.3-.6.2-.9s-.5-.6-.8-.5-.4.3-.4.5c0 .4.2.5.5.5.2 0 .2-.2.1-.3" class="st8"/><path d="M66.7 34.2c.1.1.1 0 .3.1q.15.15 0 .3c-.1.1-.3.1-.5-.1-.2-.1-.3-.4-.2-.7s.6-.4.9-.2.5.6.4 1.1-.7.8-1.4.5c-.4-.2-.8-.7-.8-1.3 0-.5 0-.9.3-1.4-.3-.3-.4-.7-.3-1.1 0-.1.1-.1.1 0 0 .2.2.7 1 .8.9.1 1.6.4 1.9.9v.9c-.1-.4-.7-1.3-1.6-1.3-.3 0-.6.1-.9.4.6-.5 1.4-.3 1.8.1.5.5.9 1.4.2 2.6.3.3.4.6.3 1 0 .1-.1.1-.2 0-.1-.2-.2-.7-1-.7s-1.4-.2-1.9-.9v-.9c.1.2.4 1.2 1.7 1.3.6 0 1-.5 1-.9.1-1.3-.8-1.7-1.5-1.3-.3.2-.4.6-.3.9.1.4.4.6.7.6s.5-.2.5-.4c0-.4-.2-.5-.4-.6-.1 0-.2.2-.1.3" class="st8"/><path d="m66.8 38.9-.2-.2q-.15-.15 0-.3c.1-.1.3 0 .5.1.1.2.2.4 0 .7s-.6.3-1 .1c-.3-.2-.4-.6-.2-1.2.2-.5.8-.7 1.4-.3.4.3.6.8.6 1.4 0 .5-.1.9-.6 1.3.2.3.2.7.1 1.1-.1.1-.1.1-.2 0 0-.2 0-.7-.9-.9s-1.5-.7-1.7-1.2c0 0 .1-.4.2-.9 0 .4.5 1.4 1.4 1.5.3 0 .6 0 1-.3-.7.4-1.4.1-1.8-.4-.4-.6-.6-1.5.2-2.6-.2-.3-.3-.7-.1-1.1 0-.1.1-.1.2 0 0 .2.1.8.9.9s1.3.5 1.7 1.2c0 .1-.2.9-.2.9 0-.2-.2-1.3-1.4-1.5-.6-.1-1 .3-1.1.8-.3 1.2.6 1.8 1.3 1.5.3-.1.5-.5.5-.9s-.3-.7-.6-.7-.5.1-.5.3c-.1.4.1.6.3.6.2.3.3.2.2.1m-1.4 4.4.2.2c.1.1 0 .2-.1.3s-.3 0-.5-.2c-.1-.2-.2-.4.1-.7.2-.2.7-.2 1 .1.2.3.4.7.1 1.2s-.9.6-1.4.1c-.3-.3-.5-.9-.4-1.5.1-.5.3-.9.7-1.2-.2-.3-.2-.7 0-1.1.1-.1.2-.1.2 0 0 .2-.1.7.7 1 .9.3 1.4.9 1.6 1.4 0 0-.1.4-.3.9 0-.4-.3-1.4-1.2-1.7-.3-.1-.6-.1-1 .1.7-.3 1.4.1 1.7.6.3.6.4 1.5-.6 2.6.2.3.2.7 0 1.1 0 .1-.1.1-.2 0 0-.2 0-.8-.7-1s-1.3-.6-1.6-1.4c0-.1.3-.9.3-.9 0 .2.1 1.3 1.2 1.7.6.2 1-.2 1.2-.6.5-1.2-.3-1.8-1.1-1.7-.4.1-.5.4-.6.8 0 .4.2.7.5.8s.5-.1.6-.3c.1-.4 0-.6-.2-.7-.1-.1-.2 0-.2.1" class="st8"/><path d="M64.3 47.8c0-.1-.1-.1-.2-.2 0-.1 0-.2.1-.3.1 0 .3 0 .4.3.1.2.1.5-.2.7-.2.2-.7.1-.9-.2s-.2-.7.1-1.2c.3-.4 1-.4 1.4.1.3.4.4.9.2 1.6-.2.5-.4.8-.9 1.1.1.4 0 .7-.2 1.1-.1.1-.2 0-.1 0 0-.2.2-.7-.6-1.1s-1.3-1.1-1.3-1.6l.4-.8c-.1.4.1 1.4.9 1.9.2.1.6.2 1 0-.8.1-1.4-.3-1.6-.9s-.2-1.6 1-2.5c-.1-.3-.1-.7.2-1 .1-.1.2 0 .1.1 0 .2-.1.8.6 1.1s1.2.8 1.3 1.6c-.1.1-.4.8-.4.8 0-.2.1-1.3-1-1.9-.6-.3-1.1 0-1.3.4-.7 1.1.1 1.9.8 1.8.4 0 .6-.3.7-.7s-.1-.7-.4-.9c-.3-.1-.5 0-.6.2-.2.3-.1.6.1.7.3.1.4 0 .4-.2" class="st8"/><path d="M61.6 51.7c0 .1.1.1.1.2s0 .2-.1.3c-.1 0-.3-.1-.4-.3s0-.5.3-.7.7 0 .9.3.1.8-.3 1.2-1 .3-1.4-.3c-.2-.4-.3-1 0-1.6.2-.4.5-.8 1-1-.1-.4.1-.7.4-1 .1-.1.2 0 .1.1-.1.2-.3.7.4 1.2.8.6 1.1 1.2 1.1 1.8 0 0-.2.4-.5.7.1-.3.1-1.4-.7-2-.2-.1-.6-.3-1-.1.8 0 1.3.5 1.5 1.1.1.7 0 1.6-1.3 2.3.1.4 0 .7-.3 1-.1.1-.2 0-.1-.1 0-.2.2-.7-.4-1.2-.7-.4-1-1-1.1-1.8.1-.1.5-.7.5-.7-.1.2-.3 1.3.7 2 .5.3 1.1.1 1.4-.2.8-1 .2-1.9-.6-1.9-.4 0-.6.2-.8.6q-.15.6.3.9c.3.2.5.1.6-.1.2-.3.2-.5 0-.7-.1-.2-.3-.1-.3 0" class="st8"/><path d="M59.3 55.7c0-.1-.1-.1-.1-.3 0-.1.1-.2.2-.2s.3.1.3.4c0 .2 0 .5-.4.6-.3.1-.7-.1-.9-.5-.1-.3 0-.8.4-1.1s1.1-.1 1.3.5q.3.75-.3 1.5c-.3.4-.6.7-1.2.8 0 .4-.2.7-.5 1-.1.1-.2 0-.1-.1s.4-.6-.2-1.2c-.7-.7-.9-1.4-.8-1.9 0 0 .3-.3.6-.7-.2.3-.3 1.4.4 2 .2.2.5.4 1 .3-.8-.1-1.2-.7-1.3-1.3 0-.7.3-1.6 1.6-2.1 0-.4.2-.7.5-.9.1 0 .2 0 .1.1-.1.2-.3.7.2 1.2.6.5.9 1.1.8 1.9-.1.1-.6.7-.6.7.1-.2.5-1.2-.4-2-.5-.4-1-.3-1.4 0-.9.8-.5 1.8.3 2 .4.1.7-.1.8-.5.2-.3.1-.7-.1-.9q-.45-.3-.6 0c-.3.3-.3.5-.1.7.3.2.4.2.5 0" class="st8"/><path d="M55.6 58.7c0 .1.1.1.1.3 0 .1-.1.2-.2.2s-.3-.2-.3-.4.1-.5.4-.6.7.2.8.6c.1.3-.1.8-.6 1s-1.1 0-1.3-.7c-.1-.5 0-1 .5-1.5.3-.3.7-.6 1.3-.6 0-.4.3-.7.6-.9.1-.1.2 0 .1.1s-.4.6.1 1.2c.6.7.7 1.5.6 2 0 0-.3.3-.7.6.2-.3.5-1.3-.1-2.1-.2-.2-.5-.4-.9-.4.8.2 1.1.9 1.1 1.5 0 .7-.5 1.5-1.9 1.9q0 .6-.6.9c-.1 0-.2 0-.1-.1.1-.2.4-.7-.1-1.2-.5-.6-.7-1.2-.6-2 .1-.1.7-.6.7-.6-.1.2-.6 1.1.1 2.1.4.5 1 .4 1.4.2 1-.7.7-1.7 0-2-.3-.1-.7.1-.9.4s-.2.7 0 .9.5.2.6.1c.3-.2.3-.5.2-.7-.1-.4-.2-.4-.3-.2" class="st8"/><path d="M52.3 61.8v-.3c0-.1.1-.2.2-.2s.2.2.2.4-.2.4-.5.5c-.3 0-.7-.3-.7-.7 0-.3.2-.8.7-.9.5-.2 1.1.2 1.2.9 0 .5-.2 1-.7 1.4-.4.3-.8.5-1.4.4-.1.4-.4.6-.8.8-.1 0-.2-.1-.1-.1.1-.1.5-.5.1-1.2-.5-.8-.5-1.6-.3-2.1 0 0 .4-.2.8-.5-.3.3-.7 1.2-.2 2.1.2.2.4.5.9.6-.7-.3-1-1-.9-1.6.1-.7.7-1.4 2.1-1.6.1-.4.3-.6.7-.8.1 0 .2 0 .1.1s-.5.6-.1 1.2c.4.7.5 1.3.3 2.1-.1.1-.8.5-.8.5.1-.2.8-1 .2-2.1-.3-.5-.9-.6-1.3-.4-1.1.6-1 1.6-.3 2 .3.2.7 0 .9-.2.3-.3.3-.6.1-.9s-.4-.3-.6-.2q-.45.3-.3.6c.2.4.4.4.5.2" class="st8"/><path d="M47.9 63.7c-.1.1 0 .1 0 .3 0 .1-.1.2-.3.1-.1-.1-.2-.2-.2-.5.1-.2.2-.4.6-.4.3 0 .6.3.6.8 0 .3-.3.7-.8.8s-1-.3-1-1c0-.5.3-1 .9-1.3.4-.2.8-.4 1.4-.3.1-.4.4-.6.9-.7.1 0 .1.1.1.1-.1.1-.6.4-.3 1.2.3.9.3 1.7 0 2.1l-.8.4c.3-.2.9-1.1.5-2-.1-.2-.3-.6-.8-.7.7.4.8 1.1.7 1.7-.2.6-.9 1.3-2.3 1.3-.1.3-.4.6-.8.7-.1 0-.2-.1-.1-.1.1-.1.6-.5.3-1.2s-.4-1.4 0-2.1c.1-.1.8-.4.8-.4-.2.2-.9.9-.5 2 .3.6.8.7 1.3.5 1.2-.4 1.2-1.5.6-2-.3-.2-.7-.1-1 .1s-.4.6-.3.9c.2.3.4.3.6.3.3-.1.4-.4.3-.6-.1-.1-.3-.1-.4 0m-4.1 2.1c.1-.1 0-.1 0-.3.1-.1.2-.1.3-.1.1.1.2.3.1.5s-.3.4-.6.3-.6-.4-.5-.8c.1-.3.4-.7 1-.7.5 0 1 .5.9 1.2-.1.5-.5.9-1.1 1.2-.5.2-.9.3-1.4 0-.2.3-.5.5-.9.5-.1 0-.1-.1-.1-.1.2-.1.6-.3.5-1.2-.2-.9 0-1.7.3-2.1 0 0 .4-.1.9-.2-.3.2-1 1-.8 1.9.1.3.2.6.7.8-.6-.5-.7-1.3-.4-1.8.3-.6 1.1-1.2 2.5-.9.2-.3.5-.5.9-.5.1 0 .1.1 0 .1-.2.1-.6.4-.5 1.1.2.7.2 1.4-.3 2.1-.1 0-.9.2-.9.2.2-.1 1.1-.7.8-1.9-.2-.6-.7-.8-1.2-.7-1.2.2-1.4 1.3-.9 1.8.3.3.6.2 1 .1.3-.2.5-.5.4-.9-.1-.3-.3-.4-.5-.4-.4.1-.5.3-.4.5-.1.4.1.4.2.3m-4.7.5c-.1.1 0 .2-.1.3s-.2.1-.3.1c-.1-.1-.1-.3 0-.5s.3-.3.7-.3c.3.1.5.5.4.9-.1.3-.5.6-1 .6-.5-.1-.9-.6-.7-1.3.2-.4.6-.8 1.2-1 .5-.1.9-.1 1.4.2.2-.3.6-.4 1-.4.1 0 .1.1.1.1-.2.1-.7.3-.6 1.1.1.9-.2 1.7-.6 2 0 0-.4.1-.9.1.3-.1 1.2-.8 1-1.8 0-.3-.1-.6-.6-.9.5.6.5 1.3.2 1.8-.4.6-1.2 1-2.6.6-.2.3-.6.4-1 .4-.1 0-.1-.1 0-.2.2-.1.7-.3.6-1.1s0-1.4.6-2c.1 0 .9-.1.9-.1-.2.1-1.2.6-1 1.8.1.6.6.9 1.1.9 1.3 0 1.5-1.1 1.1-1.7-.2-.3-.6-.3-.9-.2-.4.1-.6.5-.5.8s.3.4.5.4c.4 0 .5-.2.5-.5-.2-.1-.3-.2-.5-.1m-4.5.9c.1-.1 0-.1.1-.3q.15-.15.3 0c.1.1.1.3-.1.5-.1.2-.4.3-.7.2-.2-.2-.4-.6-.2-1 .2-.3.6-.5 1.1-.4s.8.7.5 1.4c-.2.4-.7.8-1.3.8-.5 0-.9 0-1.4-.4-.3.3-.7.3-1.1.3-.1 0-.1-.1 0-.1.2 0 .7-.2.8-1 .1-.9.4-1.6.9-1.9h.9c-.4.1-1.3.7-1.3 1.6 0 .3.1.6.4.9-.5-.6-.3-1.4.1-1.8.5-.5 1.4-.9 2.6-.2.3-.3.6-.4 1-.3.1 0 .1.1 0 .2-.2.1-.7.2-.8 1 0 .8-.2 1.4-.9 1.9h-.9c.2-.1 1.2-.4 1.3-1.6 0-.6-.4-1-.9-1-1.3-.1-1.7.8-1.3 1.5.2.3.6.4.9.3.4-.1.6-.4.6-.7s-.2-.5-.4-.5c-.4 0-.5.1-.6.4.1.2.3.2.4.2m-4.6-.8-.2.2q-.15.15-.3 0c-.1-.1-.1-.3.1-.5.2-.1.4-.2.7-.1.3.2.3.6.1 1-.2.3-.6.5-1.2.3-.5-.2-.7-.8-.3-1.4.3-.4.8-.7 1.4-.6.5 0 .9.1 1.3.5.3-.2.7-.3 1.1-.1.1 0 .1.1 0 .2-.2 0-.7.1-.9.9-.2.9-.6 1.6-1.1 1.8 0 0-.4-.1-.9-.1.4 0 1.3-.5 1.5-1.4 0-.3 0-.6-.3-1 .4.7.1 1.4-.4 1.8s-1.5.7-2.6-.2c-.3.2-.7.3-1.1.1-.1 0-.1-.1 0-.2.2 0 .8-.1.9-.9s.4-1.4 1.1-1.8c.1 0 .9.1.9.1-.2.1-1.3.3-1.5 1.5-.1.6.3 1 .8 1.1 1.2.3 1.8-.6 1.5-1.3-.1-.3-.5-.5-.9-.4-.4 0-.7.3-.7.6s.1.5.4.5c.4.1.6-.1.6-.3.2-.3.1-.4 0-.3" class="st8"/><path d="m25.3 65.9.2-.2c.1-.1.2 0 .3.1s0 .3-.2.5c-.2.1-.4.2-.7-.1-.2-.2-.2-.7.1-1 .3-.2.7-.3 1.2-.1.5.3.6.9.1 1.4-.3.3-.9.5-1.5.4-.5-.1-.9-.3-1.2-.7-.3.2-.7.1-1.1-.1-.1-.1-.1-.2 0-.2.2 0 .7.1 1-.7.3-.9.9-1.4 1.4-1.6 0 0 .4.1.9.3-.4 0-1.4.3-1.7 1.2-.1.3-.1.6.1 1-.3-.7.1-1.4.6-1.7.6-.3 1.5-.4 2.6.6.3-.2.7-.2 1.1.1.1 0 .1.1 0 .1-.2 0-.8 0-1 .7s-.6 1.3-1.4 1.5c-.1 0-.9-.3-.9-.3.2 0 1.3-.1 1.7-1.2.2-.6-.1-1.1-.6-1.2-1.2-.5-1.8.3-1.7 1.1.1.4.4.5.8.6.4 0 .7-.2.8-.5s-.1-.5-.3-.6c-.4-.1-.6 0-.7.2-.1.3 0 .4.1.4" class="st8"/><path d="M21.1 63.8c-.1 0-.1.1-.2.2-.1 0-.2 0-.3-.1 0-.1 0-.3.3-.4.2-.1.5-.1.7.2.2.2.1.7-.2.9s-.7.3-1.2-.1c-.4-.3-.4-1 .1-1.4.4-.3.9-.4 1.6-.2.5.2.8.4 1.1.9.4-.1.7 0 1.1.2.1.1 0 .2 0 .1-.2 0-.7-.2-1.1.6s-1.1 1.3-1.6 1.4l-.8-.4c.4.1 1.4-.1 1.8-.9.1-.2.2-.6 0-1 .2.8-.3 1.4-.9 1.6s-1.6.2-2.5-.9c-.3.1-.7.1-1-.2 0-.2 0-.3.1-.3.2 0 .8.1 1.1-.6s.8-1.2 1.6-1.4c.1.1.8.4.8.4-.2 0-1.3-.1-1.8 1-.3.6 0 1.1.4 1.3 1.1.7 1.9-.1 1.8-.8 0-.4-.3-.6-.7-.7s-.7.1-.9.4c-.1.3 0 .5.2.6.3.2.6.1.7-.1s0-.3-.2-.3" class="st8"/><path d="M16.9 62.1c.1 0 .1-.1.2-.1s.2 0 .3.1c0 .1-.1.3-.3.4s-.5 0-.7-.3 0-.7.3-.9.8-.1 1.2.3.3 1-.3 1.4c-.4.2-1 .3-1.6 0-.4-.2-.8-.5-1-1-.4.1-.7-.1-1-.4-.1-.1 0-.2.1-.1.2.1.7.3 1.2-.4.6-.7 1.2-1.1 1.8-1.1 0 0 .4.2.7.5-.3-.1-1.4-.1-2 .7-.1.2-.3.6-.1 1 0-.8.5-1.3 1.1-1.5.7-.1 1.6 0 2.3 1.3.4-.1.7 0 1 .3 0 .1 0 .2-.1.1-.2 0-.7-.2-1.2.4-.4.6-1 1-1.8 1.1-.1-.1-.7-.5-.7-.5.2.1 1.3.3 2-.7.3-.5.1-1.1-.2-1.4-1-.8-1.9-.2-1.9.6 0 .4.2.6.6.8q.6.15.9-.3c.2-.3.1-.5-.1-.6-.3-.2-.5-.2-.7 0-.3.1-.2.3 0 .3m-3.5-3.2c-.1 0-.1.1-.3.1-.1 0-.2-.1-.2-.2s.1-.3.4-.3c.2 0 .5 0 .6.3s-.1.7-.4.9c-.3.1-.8 0-1.1-.4s-.1-1.1.5-1.4c.4-.2 1-.1 1.6.2.4.3.7.6.8 1.2.4 0 .7.2 1 .5.1.1 0 .2-.1.1s-.6-.3-1.2.3c-.7.7-1.4 1-1.9.9 0 0-.3-.3-.7-.6.3.2 1.4.3 2-.4.2-.2.4-.5.3-1-.1.8-.7 1.2-1.3 1.3-.7.1-1.6-.2-2.1-1.6-.4 0-.7-.1-1-.5 0-.1 0-.2.1-.1.2.1.7.3 1.2-.3s1.1-.9 1.9-.9c.1.1.7.6.7.6-.2-.1-1.2-.5-2 .4-.4.5-.3 1 0 1.4.9.9 1.8.5 2-.3.1-.4-.2-.7-.5-.8-.3-.2-.7-.1-.9.1-.2.3-.1.5 0 .7.3.2.5.2.7.1.1-.1 0-.3-.1-.3" class="st8"/><path d="M9.8 56c.1 0 .1-.1.3-.1.1 0 .2.1.2.2s-.2.3-.4.3-.5-.1-.6-.4.2-.7.6-.8c.3-.1.8.1 1 .6s0 1.1-.7 1.3c-.5.1-1 0-1.5-.5-.4-.4-.7-.7-.7-1.3-.4 0-.7-.3-.9-.6 0-.1 0-.2.1-.1s.6.4 1.2-.1c.8-.6 1.5-.7 2-.6 0 0 .3.3.6.7-.3-.2-1.3-.5-2.1.1-.2.2-.5.5-.4.9.2-.8.9-1.1 1.5-1.1.7.1 1.5.5 1.8 1.9.4 0 .7.3.9.6 0 .1 0 .2-.1.1-.2-.1-.6-.4-1.2.1s-1.2.7-2 .6c-.1-.1-.6-.7-.6-.7.2.1 1.1.7 2.1-.1.5-.4.4-1 .2-1.4-.7-1-1.7-.7-2 0-.1.3.1.7.3.9.3.2.7.2.9 0s.2-.5.1-.6c-.2-.3-.5-.3-.7-.2-.1.1-.1.3.1.3m-2.5-4H7c-.1 0-.2-.1-.2-.2s.2-.2.4-.2.4.2.5.5c0 .3-.2.7-.7.7-.3 0-.8-.2-.9-.7s.3-1.1 1-1.2c.5 0 1 .2 1.4.7.3.4.5.8.4 1.3.4.1.7.4.8.7 0 .1-.1.2-.1.1-.1-.1-.5-.5-1.2-.1-.8.5-1.6.5-2.1.3 0 0-.2-.4-.5-.8.3.3 1.3.7 2.1.2.2-.2.5-.4.6-.9-.3.7-1 1-1.6.9-.7-.1-1.5-.7-1.6-2.1-.4-.1-.7-.3-.8-.7 0-.1 0-.2.1-.1s.6.5 1.2.1c.7-.4 1.3-.6 2.1-.3.1.1.5.8.5.8-.2-.1-1-.8-2.1-.2-.5.3-.6.9-.4 1.3.6 1.1 1.6 1 2 .3.2-.3 0-.7-.2-.9-.3-.3-.7-.3-.9-.1-.3.2-.3.4-.2.6.2.3.4.4.7.3q.3-.15 0-.3" class="st8"/><path d="M4.7 48.2c.1.1.1 0 .3 0 .1 0 .2.1.1.3-.1.1-.2.2-.5.1-.2-.1-.4-.2-.4-.6 0-.3.3-.6.8-.6.3 0 .7.3.8.9.1.5-.3 1-1 1-.5 0-1-.3-1.3-.9-.3-.4-.4-.8-.3-1.4-.4-.1-.6-.5-.7-.9 0-.1.1-.1.1-.1.1.1.4.6 1.2.3.9-.3 1.7-.3 2.1 0l.4.8c-.2-.3-1.1-.9-2-.5-.2.1-.6.3-.7.8.4-.7 1.2-.8 1.7-.6.6.2 1.3.9 1.2 2.3.3.1.6.4.7.8 0 .1-.1.1-.1.1-.1-.1-.5-.6-1.2-.3s-1.4.4-2.1 0c0-.1-.4-.8-.4-.8.2.2.9.9 2 .5.6-.2.8-.8.6-1.2-.4-1.2-1.4-1.2-1.9-.6-.2.3-.1.7.1 1s.6.4.9.3.3-.4.3-.6c-.1-.3-.4-.4-.6-.4-.3 0-.3.2-.1.3m-1.2-4.6c-.1-.1-.1 0-.3 0-.1-.1-.1-.2-.1-.3.1-.1.3-.2.5-.1s.4.3.3.6-.4.6-.8.5c-.3-.1-.7-.4-.7-1 0-.5.5-1 1.2-.9.4.2.9.6 1.1 1.2.2.4.3.9.1 1.4q.45.3.6.9c0 .1-.1.1-.1.1-.1-.2-.3-.6-1.2-.5-.9.2-1.7.1-2.1-.3 0 0-.1-.4-.2-.9.2.3 1 1 1.9.8.3-.1.6-.2.8-.7-.5.6-1.3.7-1.8.4-.6-.3-1.2-1.1-.9-2.5-.3-.2-.5-.5-.5-.9 0-.1.1-.1.1 0 .1.2.4.6 1.1.4.8-.2 1.4-.2 2.1.3 0 .1.2.9.2.9-.2-.1-.8-1-2-.7-.6.2-.8.7-.7 1.2.2 1.2 1.3 1.4 1.8.8.3-.3.2-.6 0-1-.1-.3-.4-.4-.7-.3q-.45.15-.3.6c0 .3.2.4.5.4.2-.1.2-.3.1-.4" class="st8"/><path d="M2 39.2c.1.1.1 0 .3.1.1.1.1.2.1.3-.1.1-.3.1-.5 0s-.3-.3-.2-.7c.1-.3.5-.5.9-.3.3.1.6.5.5 1.1-.1.5-.6.9-1.3.7-.4-.2-.8-.6-1-1.2-.1-.5-.1-.9.2-1.4-.3-.2-.4-.6-.4-1 0-.1.1-.1.1-.1 0 .2.2.7 1.1.6s1.7.2 2 .6c0 0 0 .4.1.9-.2-.4-.9-1.2-1.9-1.1-.3 0-.6.1-.9.6.6-.5 1.3-.5 1.8-.1s1 1.2.5 2.6c.3.2.4.6.4 1 0 .1-.1.1-.2 0-.1-.2-.3-.7-1.1-.6s-1.4-.1-2-.6c0-.1-.1-.9-.1-.9.1.2.6 1.2 1.8 1 .6-.1.9-.6.9-1.1 0-1.3-1.1-1.5-1.7-1.1-.3.2-.3.6-.2.9.1.4.5.6.8.5s.4-.3.4-.5c0-.4-.2-.5-.5-.5 0 0 0 .2.1.3" class="st8"/><path d="M2.1 34.5c-.1-.1-.1 0-.3-.1q-.15-.15 0-.3c.1-.1.4-.1.5.1.2.1.3.4.2.7s-.6.4-.9.2c-.3-.1-.6-.5-.5-1.1.1-.5.7-.8 1.4-.5.4.2.8.7.8 1.3 0 .5 0 .9-.4 1.4.3.3.4.7.3 1.1 0 .1-.1.1-.1 0 0-.2-.2-.7-1-.8-.9-.1-1.6-.4-1.9-.9v-.9c.1.4.7 1.3 1.6 1.3.3 0 .6-.1.9-.4-.6.5-1.4.3-1.8-.1-.5-.5-.9-1.4-.2-2.6-.3-.3-.4-.6-.3-1 0-.1.1-.1.2 0 .1.2.2.7 1 .7s1.4.2 1.9.9v.9c-.1-.2-.4-1.2-1.7-1.3-.6 0-1 .5-1 .9-.1 1.3.8 1.7 1.5 1.3.3-.2.4-.6.3-.9-.1-.4-.4-.6-.7-.6s-.5.2-.5.4c0 .4.1.5.4.6q.45 0 .3-.3" class="st8"/><path d="M1.9 29.9c.1.1.2.1.3.2q.15.15 0 .3c-.1.1-.3 0-.5-.1-.1-.2-.2-.4 0-.7s.6-.3 1-.1c.3.2.4.6.2 1.2-.2.5-.8.7-1.4.3-.4-.3-.7-.8-.6-1.4 0-.5.1-.9.6-1.3-.2-.3-.3-.7-.1-1.1 0-.1.1-.1.2 0 0 .2 0 .7.9.9s1.6.7 1.7 1.1c0 0-.1.4-.1.9 0-.4-.5-1.4-1.4-1.5-.3 0-.6 0-1 .3.7-.4 1.4-.1 1.8.4s.7 1.5-.2 2.6c.2.3.3.7.1 1.1 0 .1-.1.1-.2 0 0-.2-.1-.8-.9-.9S1 31.7.6 31c0-.1.1-.9.1-.9.1.2.2 1.3 1.4 1.5.6.1 1-.3 1.1-.8.3-1.2-.6-1.8-1.3-1.5-.3.1-.5.5-.4.9 0 .4.3.7.6.7s.5-.1.5-.4c.1-.4-.1-.6-.3-.6-.3-.3-.4-.1-.4 0m1.5-4.5-.2-.2c-.1-.1 0-.2.1-.3s.3 0 .5.2c.1.2.2.4 0 .7-.2.2-.7.2-1 0-.2-.2-.4-.7-.1-1.2s.9-.6 1.4-.1c.3.3.5.9.4 1.5-.1.5-.2.9-.7 1.2.2.3.2.7 0 1.1-.1.1-.2.1-.2 0 0-.2 0-.7-.7-1-.9-.3-1.5-.9-1.6-1.4 0 0 .1-.4.3-.9 0 .4.3 1.4 1.2 1.7.3.1.6.1 1-.2-.8.4-1.5.1-1.8-.4-.3-.6-.5-1.5.5-2.6-.2-.3-.2-.7 0-1.1 0-.1.1-.1.2 0 0 .2 0 .8.7 1s1.3.6 1.6 1.4c0 .1-.3.9-.3.9 0-.2-.1-1.3-1.2-1.7-.6-.2-1 .2-1.2.6-.5 1.2.3 1.8 1.1 1.7.4-.1.6-.4.6-.8s-.2-.7-.5-.8c-.4-.1-.5.1-.6.3-.1.4 0 .6.2.7q.3 0 .3-.3" class="st8"/><path d="M4.5 20.9c0 .1.1.1.2.2 0 .1 0 .2-.1.3-.1 0-.3 0-.4-.3-.1-.1-.2-.4.1-.6.2-.2.7-.1.9.2s.2.7-.1 1.2c-.3.4-1 .4-1.4-.1-.3-.4-.4-.9-.2-1.6.2-.5.4-.8.9-1.1-.1-.4 0-.7.2-1.1.1-.1.2 0 .1 0 0 .2-.2.7.6 1.1.8.5 1.3 1.1 1.3 1.6l-.4.8c.1-.4-.1-1.4-.9-1.9-.2-.1-.6-.2-1 0 .8-.1 1.4.4 1.7 1 .2.6.2 1.6-1 2.5.1.3.1.7-.2 1-.1.1-.2 0-.1-.1 0-.2.1-.8-.6-1.1s-1.2-.8-1.3-1.6c.1-.1.4-.8.4-.8 0 .2-.1 1.3.9 1.9.5.3 1.1 0 1.3-.4.7-1.1 0-1.9-.8-1.9-.4 0-.6.3-.7.7s.1.7.4.9c.3.1.5 0 .6-.2.2-.3.1-.6-.1-.7s-.3 0-.3.1m2.6-3.8c0-.1-.1-.1-.1-.2s0-.2.1-.3c.1 0 .3.1.4.3 0 .2 0 .5-.3.7s-.7 0-.9-.3-.1-.8.3-1.2 1-.3 1.4.3c.2.4.3 1 0 1.6-.2.4-.5.8-1 1 .1.4-.1.7-.4 1-.1.1-.2 0-.1-.1.1-.2.3-.7-.4-1.2-.8-.6-1.1-1.2-1.1-1.8 0 0 .2-.4.5-.7-.1.3-.1 1.4.7 2 .2.1.6.3 1 .1-.8 0-1.3-.5-1.5-1.1-.1-.7 0-1.6 1.3-2.3-.1-.4 0-.7.3-1 .1 0 .2 0 .1.1 0 .2-.2.7.4 1.2.6.4 1 1 1.1 1.8-.1.1-.5.7-.5.7.1-.2.3-1.3-.7-2-.5-.3-1.1-.1-1.4.2-.8 1-.2 1.9.6 1.9.4 0 .6-.2.8-.6q.15-.6-.3-.9c-.3-.2-.5-.1-.6.1-.2.3-.2.5 0 .7s.3.1.3 0m2.4-4c0 .1.1.1.1.3 0 .1-.1.2-.2.2s-.3-.1-.3-.4c0-.2 0-.5.4-.6.3-.1.7.1.9.5.1.3 0 .8-.4 1.1s-1.1.1-1.4-.5c-.2-.5-.1-1 .3-1.6.3-.4.6-.7 1.2-.8 0-.4.2-.7.5-1 .1-.1.2 0 .1.1s-.4.6.2 1.2c.7.7.9 1.4.8 1.9 0 0-.3.3-.6.7.2-.3.3-1.4-.4-2-.2-.2-.5-.4-1-.3.8.1 1.2.7 1.3 1.3 0 .7-.2 1.6-1.6 2.1 0 .4-.2.7-.5.9-.1 0-.2 0-.1-.1.1-.2.3-.7-.2-1.2-.6-.5-1-1.1-.9-1.9.1-.1.6-.7.6-.7-.1.2-.5 1.2.4 2 .5.4 1 .3 1.4 0 .9-.8.5-1.8-.3-2-.4-.1-.7.2-.8.5-.2.3-.1.7.1.9.3.2.5.2.7 0s.2-.5 0-.7c-.1-.1-.3 0-.3.1" class="st8"/><path d="M13.1 10.1c0-.1-.1-.1-.1-.2s.1-.2.2-.2.3.2.3.4-.1.5-.4.6-.7-.1-.8-.6c-.1-.3.1-.8.6-1s1.1 0 1.3.7c.1.5 0 1-.5 1.5-.3.3-.7.6-1.3.6 0 .4-.3.7-.6.9-.1.1-.2 0-.1-.1s.4-.6-.1-1.2c-.6-.7-.8-1.5-.6-2 0 0 .3-.3.7-.6-.2.3-.5 1.3.1 2.1.2.2.5.4.9.4-.8-.2-1.1-.9-1.1-1.4 0-.7.5-1.5 1.9-1.9q0-.6.6-.9c.1 0 .2 0 .1.1-.1.2-.4.7.1 1.2.5.6.7 1.2.6 2-.1.1-.7.6-.7.6.1-.2.6-1.1-.1-2.1-.4-.5-1-.4-1.4-.2-1 .7-.7 1.7 0 2 .3.1.7-.1.9-.4s.2-.7 0-.9-.5-.2-.6-.1c-.3.2-.3.5-.2.7s.3.2.3 0m3.4-3.2v.3c0 .1-.1.2-.2.2s-.2-.2-.2-.4.2-.4.5-.5c.3 0 .7.3.7.7 0 .3-.2.8-.7.9-.5.2-1.1-.2-1.1-.9 0-.5.2-1 .7-1.4.4-.3.8-.5 1.4-.4.1-.4.4-.6.8-.8.1 0 .2.1.1.1-.1.1-.5.5-.1 1.2.4.8.5 1.6.3 2.1 0 0-.4.2-.8.5.3-.3.7-1.2.2-2.1-.1-.2-.4-.5-.9-.6.7.3 1 1 .9 1.6-.1.7-.7 1.4-2.1 1.6-.1.4-.4.6-.7.8-.1 0-.2 0-.1-.1s.5-.6.1-1.2c-.4-.7-.5-1.3-.3-2.1.1-.1.8-.5.8-.5-.1.2-.8 1-.2 2.1.3.5.9.6 1.3.4 1.1-.5 1-1.6.3-2-.3-.2-.7 0-.9.2-.3.3-.3.6-.1.9s.4.3.6.2q.45-.3.3-.6c-.4-.3-.5-.3-.6-.2" class="st8"/><path d="M20.8 5.1c.1-.1 0-.1 0-.3 0-.1.1-.2.3-.1.1.1.2.2.2.5-.1.2-.2.4-.6.4-.3 0-.6-.3-.6-.8 0-.3.3-.7.8-.8s1 .3 1 1c0 .5-.3 1-.9 1.3-.4.2-.8.4-1.4.2-.1.4-.5.6-.9.7-.1 0-.1-.1-.1-.1.3-.1.7-.4.4-1.2-.3-.9-.3-1.7 0-2.1l.8-.4c-.3.2-.9 1.1-.5 2 .1.2.3.6.8.7-.7-.4-.8-1.1-.7-1.7.2-.6.9-1.3 2.3-1.3.1-.3.4-.6.8-.7.1 0 .2.1.1.1-.1.1-.6.5-.3 1.2s.4 1.4 0 2.1c-.1 0-.8.4-.8.4.2-.2.9-.9.5-2-.2-.6-.8-.7-1.3-.5-1.2.4-1.2 1.5-.6 1.9.3.2.7.1 1-.1s.4-.6.3-.9c-.2-.3-.4-.3-.6-.3-.3.1-.4.4-.4.6.2.3.3.3.4.2M25 3c-.1.1 0 .1 0 .3-.1.1-.2.1-.3.1-.1-.1-.2-.3-.1-.5s.3-.4.6-.3.6.4.5.8c-.1.3-.4.7-1 .7-.5 0-1-.5-.9-1.2.2-.5.5-.9 1.1-1.1.5-.2.9-.3 1.4 0 .2-.3.5-.5.9-.5.1 0 .1.1.1.1-.2.1-.6.3-.5 1.2.2.9 0 1.7-.3 2.1 0 0-.4.1-.9.2.3-.2 1-1 .8-1.9-.1-.3-.2-.6-.7-.8.6.5.7 1.3.4 1.8-.3.6-1.1 1.2-2.5.9-.2.3-.5.5-.9.5-.1 0-.1-.1 0-.1.2-.3.7-.6.5-1.3-.2-.8-.2-1.4.3-2.1.1 0 .9-.2.9-.2-.2.1-1.1.8-.8 1.9.2.6.7.8 1.2.7 1.2-.2 1.4-1.3.8-1.8-.3-.3-.6-.2-1-.1-.3.2-.5.5-.4.9.1.3.3.4.5.4.4-.1.5-.3.4-.5.1-.3 0-.3-.1-.2m4.6-.5c.1-.1 0-.1.1-.3.1-.1.2-.1.3-.1.1.1.1.3 0 .5s-.3.3-.7.3c-.3-.1-.5-.5-.3-.9.1-.3.5-.6 1-.6.5.1.9.6.7 1.3-.2.4-.6.8-1.2 1-.5.1-.9.1-1.4-.2-.2.3-.6.4-1 .4-.1 0-.1-.1-.1-.1.2-.1.7-.3.6-1.1-.1-.9.2-1.7.6-2 0 0 .4-.1.9-.1-.3.1-1.2.8-1 1.8 0 .3.1.6.6.9-.5-.6-.5-1.3-.1-1.8.4-.6 1.2-1 2.6-.6.2-.3.6-.4 1-.4.1 0 .1.1 0 .2-.2 0-.8.3-.7 1 .1.8 0 1.4-.6 2-.1 0-.9.1-.9.1.2-.1 1.2-.6 1-1.8 0-.6-.5-.9-1-.8-1.3 0-1.5 1.1-1.1 1.7.2.3.6.3.9.2s.5-.5.5-.8c-.1-.3-.3-.4-.5-.4-.4 0-.5.2-.5.5.1.1.2.2.3.1" class="st8"/><path d="M33.8 36.4c0-.1.1-.1.2 0 0 .1 0 .3.3.3.2 0 .2-.2.2-.3s.1-.1.1 0c.1.2.2.5-.1.8v.3c0 .1-.2.1-.4.1-.1 0-.1.1 0 .1 0 0 .3.1.4 0 .2-.1.3-.1.5 0 .4.1.9.5 1 1.3 0 0 .2 1.5.2 2.1 0 .3.2.9.6 1.2.3.3.8.7.9 1.4-1.4-1.3-5.5-1.3-7 0 .1-.7.6-1.1.9-1.4.4-.4.6-.9.6-1.2 0 0 .2-1.6.2-2.1.1-.8.7-1.2 1-1.3.2-.1.5-.1.5-.2v-.3c-.1-.1-.2-.4-.1-.8" class="st11"/><path d="M32.7 42.8c.2 0 1.9-.4 3.5.1.4.1 1.1.4 1.5.7 0 .2 0 .5-.1.7-.6.5-1.4 1-3.2 1-2.1 0-2.9-.4-3.5-1-.3-.3-.1-.6 0-.8.3-.2 1-.5 1.8-.7" class="st4"/><path d="M32.5 43c1.2-.2 2.3-.2 3.4 0 0 0 1.1.3 1.6.7.3.2.3.5 0 .7-.2.1-.6.5-1.6.8-1 .2-2.2.2-3.4 0-.9-.2-1.2-.5-1.6-.8-.2-.3-.3-.5 0-.7.1-.1.2-.1.2-.2l.2.2c-.4.1-.3.5.7.8.8.3 1.3.4 2.7.4 1.4-.1 2-.6 2.4-.9.1-.1 0-.1-.1-.1-.1.1-.4.3-.6.4-.1.1-.6.1-.8.1.3-.1.6-.2.7-.3 0 0 0-.1-.1-.1h-1c-.1.1-.2 0-.2 0-.1-.1-.1-.4-.1-.5 0-.2-.1-.1-.1 0 0 .3.1 1-.7.9-.2 0-.2-.1-.1-.2.3-.2.3-1-.3-.9-.4.1-.6.9.1 1.3.2.1.7.1 1.1.1.5-.1 1-.1 1.3-.1-.5.2-.9.4-2.1.4-1.1 0-1.5-.1-2.1-.4-.6-.2-1.1-.6-.7-.7.2.2.7.5 1.1.5.2 0 .4.1.8 0 .1 0 .1-.1 0-.1 0 0-1-.3-1.5-1 .2-.1.5-.2.8-.3" class="st11"/><path d="M34.7 38.7c0-.1 0-.4.2-.4s.4.2.4.4zm0 .4h.7s.2 1.3.3 2.3h-.9zm.2 2.7c.1.1.1.5.2.7.6.1 1 .2 1.5.4-.1-.2-.4-.7-.8-1-.3-.1-.6-.1-.9-.1m-1.4-3c-.2.3-.3.7-.4 1.7-.1.5-.1.8-.2 1 0 0 .5-.1.7-.1 0-.3 0-2.1-.1-2.6m-2.1 3.7c.1-.1.5-.4 1.2-.5.5-.1.7-.1 1.1-.1.1 0 .2.1.2.2v.6c-.6 0-2.2.2-3.2 1 0-.3.3-.9.7-1.2" class="st4"/><path d="M28 30.3c3.3-1.9 9.1-2 12.6 0v1.2l-.4.3v.7c.1.1.3.2.4.4v1.7c-.1.3-.7 1.3-3.9 1.8-1.4.2-3.7.2-5 0-2.5-.5-3.5-1.4-3.7-1.8v-1.7l.4-.4v-.7l-.4-.3z" class="st11"/><path d="M40.2 32.3c-3.1-1.7-8-1.8-11.8 0v.2c-.2.1-.3.3-.4.4v1.6c.1.2.3.3.5.5.3-.1 5-1.6 5-1.6-.3 0-1.4-.2-1.4-.2-.3.1-3.9 1.2-3.9 1.2s.3-.7 1.4-1.1c.3.1.6.1.6.1.3-.1 2.6-.8 2.6-.8 1.2-.1 3.7-.4 6 .6l-4.2 1.2c-.2-.2-.5-.1-.6.1l-2 .6c.5.1 1.7.3 1.7.3.2-.1.4-.1.4-.1v.3c-.4.1-2 .6-2 .6.2 0 .8.1 1 .1v-.2c.2-.1 1-.3 1-.3v.2c-.1 0-.3.1-.3.3h.2c0-.1.2-.2.2 0h.5c0-.1.1-.2.2 0 .4 0 1.3-.1 1.7-.1h-.4c.1 0 2.9-.9 3-1-.1 0-.3-.1-.4-.1-.6.2-3.2 1.1-3.5 1.2H35c-.1-.2-.1-.2-.2-.3v-.3c.2-.1 3.1-.9 3.1-.9-.2-.1-.5-.1-.5-.1-.3.1-2.6.8-2.6.8v-.3c.3-.1 5.3-1.5 5.3-1.5.3.1.6.4.7.5v-.3c-.4-.3-1.4-.8-2.1-1.1v-1.2s-.3-.1-1-.3v1.2s-.5-.1-.9-.1v-1.2h-.1v1.2h-.2v-1.2c-.3 0-.7-.1-1.2-.1v1.2c-.9 0-3.1.1-4.7.6v-1.2c-.2 0-.3.1-.5.2v1.2c-.1.1-.3.1-.5.2v-1.2c3.1-1.2 7.5-1.5 10.9.3z" class="st4"/><path d="M29.8 29.5c.2-.1.3-.1.5-.1v1.2c1.4-.4 2.9-.5 4.8-.5v-1.2c.4 0 .8.1 1.2.1v1.3h.2v-1.2h.2v1.2c.2 0 .7.1.8.1v-1.2s.7.2 1 .3v1.2s1.4.4 2 .9l-.4.3c-3-1.6-7.8-1.8-11.7 0l-.4-.4v-1.2c.5-.3.8-.4 1.3-.6v1.2c.2-.1.5-.2.5-.2z" class="st4"/><path d="M34.1 34.8c0-.2.3-.2.4 0v1.5c0 .2-.3.2-.3 0-.1-.3-.1-1.5-.1-1.5m-2.3-6c-.2-1.2-.6-6.7-5.7-6.4-2.4.2-3.4 2.5-3.5 3.9l-.5 14.1c-.1.2-.2.5-.3.7 0 .2-.3 10-.3 10 .2.2.8.6.8.6l.2-9.9c0-.4 0-.6-.2-.9-.2-.2.1-.3.1-.2.1.1.3.3.3.8 0 .2-.2 10.3-.2 10.3.1 0 .2.1.2.1 0-.3.3-10.8.3-10.8 0-.3-.2-.7-.2-.7l.5-13.9c0-1.1.7-3.3 2.8-3.5 1.2 0 4.4-.1 4.9 5.9.4 0 .5 0 .8-.1m5.3.1c.2-1.2.6-6.7 5.7-6.4 2.4.2 3.4 2.5 3.5 3.9l.5 14.1c.1.2.2.5.3.7 0 .2.3 10 .3 10-.1.1-.2.1-.2.1l-.3-9.5c0-.4-.1-.8-.3-.9s-.3.1-.2.1c.1.1.2.1.3.6 0 .3.3 9.9.3 9.9-.1 0-.8.5-.8.5 0-.3-.3-10.8-.3-10.8 0-.3.2-.7.2-.7l-.5-13.9c0-1.1-.7-3.3-2.8-3.5-1.2 0-4.4-.1-4.9 5.9-.3 0-.6-.1-.8-.1" class="st11"/><path d="M29.8 29.3c-.1-.3-.3-1.9-2.3-1.9-.8 0-2.4.9-2.5 3.1l-.4 15.7-.3.6-.1 5.7c.1 0 .9.3.9.3 0-.2.1-5.6.1-5.6 0-.2 0-.4-.3-.6-.1-.1 0-.2.1-.2.1.1.4.2.4.6s-.1 5.8-.1 5.8h.2c0-.2.1-6.1.1-6.1-.1-.1-.3-.6-.3-.6 0-.2.4-15.5.4-15.5 0-.4.1-2.4 1.9-2.6.8-.1 1.4.7 1.5 1.4.3.1.7-.1.7-.1m9.1.1c.1-.3.3-1.9 2.3-1.9.8 0 2.4.9 2.5 3.1l.4 15.7.3.6.1 6c-.1 0-.2.1-.2.1 0-.2-.1-5.6-.1-5.6 0-.2-.1-.5-.4-.6-.2 0-.2.1-.1.2s.2.1.3.5c0 .4.1 5.7.1 5.7-.2.1-.8.2-.9.3v-6.4c0-.1.3-.6.3-.6 0-.2-.4-15.5-.4-15.5 0-.4-.1-2.4-1.9-2.6-.8-.1-1.4.8-1.5 1.5-.4-.4-.8-.5-.8-.5" class="st11"/><path d="M22.5 40.9c0-.1.1-.2.2-.1s.3.4.3.8c0 .1-.1 2.6-.1 2.6h-.2c0-.1.1-2.5.1-2.5-.1-.2-.1-.6-.3-.8m23.8.1c-.1-.1 0-.2.1-.1.1 0 .3.2.3.9 0 .2.1 2.5.1 2.5h-.2c0-.1-.1-2.5-.1-2.5 0-.2 0-.7-.2-.8" class="st4"/></svg>